<?xml version="1.0" standalone="no"?>
<!DOCTYPE svg PUBLIC "-//W3C//DTD SVG 1.1//EN" "http://www.w3.org/Graphics/SVG/1.1/DTD/svg11.dtd" >
<svg xmlns="http://www.w3.org/2000/svg" xmlns:xlink="http://www.w3.org/1999/xlink" version="1.1">
<metadata></metadata>
<defs>
<font id="oswald_regularregular" horiz-adv-x="598" >
<font-face units-per-em="2048" ascent="1638" descent="-410" />
<missing-glyph horiz-adv-x="425" />
<glyph horiz-adv-x="0" />
<glyph unicode="&#xd;" horiz-adv-x="620" />
<glyph unicode=" "  horiz-adv-x="425" />
<glyph unicode="&#x09;" horiz-adv-x="425" />
<glyph unicode="&#xa0;" horiz-adv-x="425" />
<glyph unicode="!" horiz-adv-x="386" d="M93 0v205h201v-205h-201zM93 1509h201l-66 -1186h-71z" />
<glyph unicode="&#x22;" horiz-adv-x="707" d="M159 1046v463h180l-72 -463h-108zM437 1046v463h179l-72 -463h-107z" />
<glyph unicode="#" horiz-adv-x="905" d="M59 540v149h103l26 182h-124v150h145l71 488h200l-71 -488h166l71 488h198l-70 -488h75v-150h-96l-28 -182h119v-149h-140l-77 -540h-199l77 540h-166l-77 -540h-198l75 540h-80zM360 689h167l27 182h-166z" />
<glyph unicode="$" horiz-adv-x="914" d="M72 422l187 51q20 -324 214 -324q81 0 123.5 45t42.5 133q0 48 -11.5 88t-37.5 76.5t-49 60.5t-66 64l-253 225q-76 69 -111 146t-35 188q0 160 91 251.5t249 96.5v124h64v-125q156 -10 235 -106t95 -283l-178 -49q-3 49 -9.5 87t-21 77t-35.5 63t-55.5 38t-80.5 11 q-166 -11 -166 -165q0 -67 22.5 -111.5t76.5 -93.5l255 -225q99 -89 157.5 -191t58.5 -231q0 -152 -85 -246.5t-226 -110.5v-129h-63v128q-184 3 -280 120t-108 317z" />
<glyph unicode="%" horiz-adv-x="1660" d="M67 1058v118q0 171 69 258.5t223.5 87.5t223.5 -84.5t69 -251.5v-133q0 -344 -293 -344q-292 0 -292 349zM249 1051q0 -42 4.5 -73.5t15.5 -59.5t34 -43.5t56 -15.5q35 0 58 15.5t34.5 44.5t15.5 60.5t4 73.5v133q0 33 -2 58t-9 50t-19 40.5t-32.5 25.5t-49.5 10 q-35 0 -58 -14.5t-33.5 -42t-14.5 -57t-4 -72.5v-133zM539 0l415 1512h172l-414 -1512h-173zM1009 340v118q0 171 69 258.5t223 87.5t223 -84.5t69 -252.5v-132q0 -168 -70 -256t-222 -88q-292 0 -292 349zM1191 333q0 -42 4.5 -73.5t15.5 -59.5t34 -43.5t56 -15.5 q35 0 57.5 15.5t34 44.5t15.5 60t4 73v134q0 43 -4 72.5t-15 56.5t-34 41t-58 14t-58 -14.5t-34 -42t-14.5 -57t-3.5 -72.5v-133z" />
<glyph unicode="&#x26;" horiz-adv-x="1129" d="M107 323q0 131 59.5 236.5t161.5 198.5q-14 26 -42.5 78.5t-45.5 86t-37 81t-29.5 93.5t-9.5 92q0 151 87.5 242.5t234.5 91.5q139 0 229.5 -76t90.5 -204q0 -70 -25.5 -142t-72 -137.5t-88 -113t-96.5 -100.5l228 -359q51 103 73 302h199q0 -103 -44.5 -223.5 t-102.5 -202.5q27 -33 66.5 -55.5t81.5 -22.5v-204h-27q-20 0 -39.5 4.5t-34 9.5t-34 17t-28.5 18t-29 24t-25 23t-26 26.5t-23 23.5q-54 -67 -136 -107t-188 -40q-153 0 -240.5 93.5t-87.5 245.5zM308 323q0 -75 30 -125t97 -50q110 0 202 112l-230 356q-46 -57 -72.5 -135 t-26.5 -158zM363 1189q0 -127 91 -331q63 74 108 180t45 205q0 54 -33 85.5t-88 31.5q-62 0 -92.5 -50t-30.5 -121z" />
<glyph unicode="'" horiz-adv-x="682" d="M159 1046v463h180l-72 -463h-108z" />
<glyph unicode="(" horiz-adv-x="555" d="M136 579q0 124 1.5 198t9 186.5t20.5 180.5t40 148t64.5 124.5t95.5 75t133 30.5v-133q-42 -1 -72.5 -30.5t-49 -96t-29 -126t-15.5 -170.5t-5.5 -177t-0.5 -193v-6v-5.5v-5.5v-23q0 -127 0.5 -193t5.5 -175.5t15.5 -168.5t29 -124t49 -94t72.5 -29v-133q-75 1 -133 31.5 t-95.5 74.5t-64.5 124t-40 147.5t-20.5 179.5t-9 185.5t-1.5 197.5z" />
<glyph unicode=")" horiz-adv-x="484" d="M55 -228q41 1 72 31t49.5 96t29.5 126t15.5 170.5t5.5 176.5t1 193v17v23q0 128 -1 193.5t-5.5 175t-15.5 168.5t-29.5 124t-49.5 94t-72 30v132q74 0 132.5 -30.5t96 -74.5t64.5 -124t40 -147.5t20.5 -179.5t9 -185.5t1.5 -198.5q0 -95 -0.5 -153.5t-4.5 -148 t-10.5 -146.5t-19 -131t-30.5 -121t-46 -97.5t-63.5 -79t-83.5 -47t-106 -19.5v133z" />
<glyph unicode="*" horiz-adv-x="741" d="M85 1236l47 126l210 -111l-22 256h151l-23 -256l211 111l47 -126l-220 -86l149 -205l-120 -71l-120 233l-120 -233l-118 71l147 206z" />
<glyph unicode="+" horiz-adv-x="773" d="M46 700v150h262v304h149v-304h270v-150h-270v-305h-149v305h-262z" />
<glyph unicode="," horiz-adv-x="347" d="M74 -158q51 16 79.5 58.5t28.5 99.5h-106v214h206v-209q0 -99 -42.5 -158.5t-133.5 -91.5z" />
<glyph unicode="-" d="M91 487v151h417v-151h-417z" />
<glyph unicode="." horiz-adv-x="351" d="M91 0v221h200v-221h-200z" />
<glyph unicode="/" horiz-adv-x="687" d="M54 0l406 1509h173l-407 -1509h-172z" />
<glyph unicode="0" horiz-adv-x="915" d="M85 430v648q0 209 91.5 327t281.5 118q188 0 281 -118.5t93 -326.5v-648q0 -205 -94 -325.5t-280 -120.5q-185 0 -279 121.5t-94 324.5zM285 428q0 -281 173 -281t173 281v652q0 61 -7 107t-25 87.5t-53.5 63.5t-87.5 22t-87.5 -22t-54 -63.5t-25 -87.5t-6.5 -107v-652z " />
<glyph unicode="1" horiz-adv-x="870" d="M151 1194v151q230 59 311 164h151v-1509h-199v1249q-1 -1 -16 -5t-38 -9t-50.5 -11t-55 -11t-50 -9.5t-37.5 -6.5z" />
<glyph unicode="2" horiz-adv-x="890" d="M76 0v142l384 599q11 18 40 62t40 63t31.5 57t28.5 65.5t15 66.5t7 80q0 225 -150 225q-179 0 -179 -279v-50h-199v51q0 213 87 327t280 114q181 0 272 -101.5t91 -288.5q0 -66 -10.5 -121.5t-37 -111.5t-45.5 -88t-61 -97l-12 -18l-347 -530h477v-167h-712z" />
<glyph unicode="3" horiz-adv-x="869" d="M74 371v50h199v-32q1 -57 8.5 -97t25.5 -74.5t52 -52t84 -17.5q43 0 74 13.5t50 36.5t30 59.5t15 76t4 93.5q0 127 -46 199t-150 79q-8 1 -29 1v199h26q107 4 153 56.5t46 173.5q0 111 -37.5 168t-132.5 57q-51 0 -85 -17t-53 -51.5t-26.5 -75.5t-8.5 -99v-30h-199v51 q0 182 94.5 283.5t277.5 101.5q182 0 276 -102t94 -286q0 -133 -57 -216.5t-158 -113.5q102 -32 158.5 -129t56.5 -249q0 -210 -90 -326.5t-283 -116.5q-181 0 -275 101.5t-94 285.5z" />
<glyph unicode="4" horiz-adv-x="915" d="M75 397v222l387 891h248v-924h167v-189h-167v-397h-200v397h-435zM276 586h234v671z" />
<glyph unicode="5" horiz-adv-x="887" d="M87 422h200q0 -45 3 -81t13.5 -74.5t28 -64t49.5 -42t75 -16.5q34 0 60.5 9.5t45 25t31 42.5t19.5 53.5t11 68t5 75t1 84.5q0 69 -3.5 114t-13.5 88t-28.5 67.5t-49.5 39.5t-75 15q-58 0 -101.5 -36t-66.5 -88h-170v807h651v-199h-471l-12 -417q80 83 218 83 q89 0 152.5 -32.5t99.5 -94.5t52.5 -140t16.5 -179q0 -98 -10.5 -176.5t-36.5 -149t-67.5 -118t-107.5 -74.5t-153 -27q-196 0 -281 111t-85 326z" />
<glyph unicode="6" horiz-adv-x="911" d="M100 479v508q0 116 18.5 208.5t59.5 168.5t116 117.5t177 41.5q176 0 270.5 -95t99.5 -272q0 -3 0.5 -10.5t0.5 -11.5h-200q0 115 -37.5 170.5t-132.5 55.5q-173 0 -173 -324v-229q31 48 88 76.5t134 28.5q73 0 129 -20.5t93 -57.5t60 -92.5t32.5 -120t9.5 -145.5 q0 -85 -12.5 -157t-41 -134.5t-71.5 -106.5t-106 -69t-143 -25q-95 0 -167.5 38t-116 106.5t-65.5 156.5t-22 194zM299 432q0 -284 172 -284q49 0 83.5 22t53.5 61.5t27.5 88t8.5 108.5q0 47 -0.5 75t-4 68.5t-10 63.5t-19 50.5t-31 41.5t-45.5 24t-63 10q-58 0 -102 -30 t-70 -74v-225z" />
<glyph unicode="7" horiz-adv-x="717" d="M51 1352v157h602v-97l-279 -1412h-192l273 1352h-404z" />
<glyph unicode="8" horiz-adv-x="890" d="M74 425q0 144 47.5 229.5t139.5 140.5q-168 112 -168 339q0 185 87.5 287t266.5 102q176 0 263 -102t87 -287q0 -228 -166 -339q91 -57 139 -142.5t48 -227.5q0 -214 -88 -327.5t-283 -113.5q-197 0 -285 113.5t-88 327.5zM265 421q0 -63 8 -110.5t27.5 -87.5t56.5 -60.5 t90 -20.5t89 21t55.5 61t27 87.5t7.5 109.5q0 78 -15 135.5t-57 98.5t-107 42q-51 -1 -87.5 -23.5t-56.5 -62.5t-29 -86.5t-9 -103.5zM289 1145q0 -52 7.5 -94.5t24 -81t48.5 -60.5t78 -23q44 1 76 23t48.5 60.5t23.5 81t7 94.5q0 100 -37 161.5t-118 61.5q-83 0 -120.5 -61 t-37.5 -162z" />
<glyph unicode="9" horiz-adv-x="911" d="M82 1032q0 106 21 193t64.5 155t117 105.5t171.5 37.5q95 0 167.5 -38t116.5 -106t65.5 -156t21.5 -194v-508q0 -91 -11 -168t-37.5 -147t-68 -118t-106 -76t-147.5 -28q-177 0 -272.5 96.5t-98.5 277.5v16h200q0 -116 37 -171t135 -55q169 0 169 324v229 q-65 -104 -221 -104q-91 0 -155 30.5t-100.5 90t-52.5 136t-16 178.5zM283 1080q0 -48 0.5 -76t4 -68t10 -63t19 -50t31 -41.5t45.5 -24t63 -9.5q110 0 171 103v225q0 284 -171 284q-47 0 -82 -22.5t-54.5 -62.5t-28 -88t-8.5 -107z" />
<glyph unicode=":" horiz-adv-x="366" d="M112 179v212h201v-212h-201zM112 773v213h201v-213h-201z" />
<glyph unicode=";" horiz-adv-x="401" d="M108 2q109 7 109 125h-107v212h207v-208q0 -104 -41.5 -158.5t-134.5 -58.5zM110 831v222h200v-222h-200z" />
<glyph unicode="&#x3c;" horiz-adv-x="695" d="M55 443v200l533 380v-200l-383 -279l383 -277v-201z" />
<glyph unicode="=" horiz-adv-x="773" d="M100 521v151h572v-151h-572zM100 850v152h572v-152h-572z" />
<glyph unicode="&#x3e;" horiz-adv-x="695" d="M107 66v201l384 279l-384 277v200l535 -378v-200z" />
<glyph unicode="?" horiz-adv-x="907" d="M109 1132q-34 180 63.5 288.5t280.5 108.5q179 0 278.5 -102t99.5 -287q0 -84 -21.5 -155.5t-76 -146t-92 -115.5t-123.5 -126l-38 -38v-181h-179v232q77 67 128.5 120.5t103 122t77.5 141.5t26 152q0 92 -51 150t-134 58q-85 0 -126 -50.5t-27 -134.5l9 -66l-185 -35z M293 0v205h199v-205h-199z" />
<glyph unicode="@" horiz-adv-x="1685" d="M109 525q0 198 40.5 359.5t115 277t179.5 193.5t232.5 116t275.5 38q132 0 242 -39.5t185.5 -108t127.5 -161.5t75 -197t22 -218q-1 -165 -55.5 -301.5t-157 -218.5t-233.5 -82q-80 0 -131 46.5t-54 125.5q-17 -67 -60 -115t-117 -54q-90 -9 -154.5 37.5t-94.5 124 t-30 173.5q0 104 32.5 211.5t89 195.5t141 143.5t178.5 55.5q29 0 63 -15t57 -34l19 32h145l-105 -684q-5 -34 -6 -51.5t1.5 -39t14 -31t32.5 -9.5q78 0 142 63t100.5 171t37.5 236q1 96 -17 182t-59 161t-100.5 129t-148 85t-195.5 31q-293 -1 -470.5 -223t-177.5 -597 q0 -157 44 -278t125 -197t190 -115t244 -39q160 0 337 51l36 -144q-209 -60 -392 -60q-132 0 -246.5 29.5t-210.5 91.5t-164 152t-106.5 217.5t-38.5 283.5zM703 519q0 -88 34.5 -140t97.5 -40q48 8 87.5 57t55.5 139l65 434q-25 10 -51 10q-75 0 -141.5 -61.5t-107 -168.5 t-40.5 -230z" />
<glyph unicode="A" horiz-adv-x="916" d="M35 0l322 1509h203l322 -1509h-200l-70 380h-306l-72 -380h-199zM333 531h252l-126 681z" />
<glyph unicode="B" horiz-adv-x="976" d="M118 0v1509h345q206 0 305 -92t99 -286q0 -288 -216 -318q133 -33 194.5 -126.5t61.5 -255.5q0 -203 -95.5 -317t-291.5 -114h-402zM329 151h141q137 0 187 64t50 216q0 145 -59.5 216.5t-194.5 71.5h-124v-568zM329 879h123q130 0 180.5 58t50.5 194q0 45 -6 78 t-16 56.5t-30.5 39.5t-41.5 25.5t-57 14.5t-69 6.5t-85 1.5h-49v-474z" />
<glyph unicode="C" horiz-adv-x="959" d="M90 485v533q0 96 11.5 170.5t39.5 139t73.5 106.5t116 65.5t164.5 23.5q204 0 292 -110t88 -324v-120h-199v107q0 34 -0.5 53.5t-2 49t-5 45.5t-9.5 38t-15 34.5t-22.5 26.5t-31 20.5t-41 11.5t-52.5 5q-44 0 -76.5 -10t-53.5 -30.5t-34.5 -45t-19.5 -63t-8.5 -74.5 t-2.5 -89v-597q0 -170 43 -236.5t152 -66.5q42 0 72.5 9.5t50 30t31 43.5t17 61.5t7 71.5t1.5 86v111h199v-112q0 -87 -10.5 -155t-37 -128t-69.5 -99t-109.5 -61t-153.5 -22q-94 0 -165 25.5t-116 69t-73.5 108.5t-39.5 137t-11 161z" />
<glyph unicode="D" horiz-adv-x="981" d="M118 0v1509h328q245 0 345.5 -111t100.5 -350v-555q0 -248 -99.5 -370.5t-331.5 -122.5h-343zM329 151h118q48 0 85 9.5t61.5 23t41.5 42.5t25.5 53.5t13 72.5t5.5 82.5t1 98.5v491q0 54 -2 91.5t-7.5 75t-16.5 61t-28 45t-42.5 32.5t-60 17.5t-81.5 6.5h-113v-1202z" />
<glyph unicode="E" horiz-adv-x="758" d="M118 0v1509h585v-156h-374v-499h303v-150h-303v-553h378v-151h-589z" />
<glyph unicode="F" horiz-adv-x="728" d="M118 0v1509h583v-151h-372v-502h288v-150h-288v-706h-211z" />
<glyph unicode="G" horiz-adv-x="997" d="M90 495v505q0 104 11.5 182t39 144.5t73 108.5t115.5 65t165 23q209 0 301 -106.5t92 -334.5v-56h-197v48q0 64 -4 105t-15 78.5t-32.5 58t-56 32.5t-85.5 12q-39 0 -69 -9t-51 -23t-35 -39t-22.5 -49t-13 -62t-5.5 -69t-1 -77v-559q0 -174 42 -249.5t160.5 -75.5t162 82 t43.5 263v106h-191v149h382v-748h-134l-20 174q-68 -192 -267 -192q-206 0 -297 129.5t-91 383.5z" />
<glyph unicode="H" horiz-adv-x="1044" d="M118 0v1509h211v-652h387v652h210v-1509h-210v707h-387v-707h-211z" />
<glyph unicode="I" horiz-adv-x="461" d="M128 0v1509h207v-1509h-207z" />
<glyph unicode="J" horiz-adv-x="561" d="M13 -35v151q72 0 112 8.5t65.5 35t33.5 68t8 116.5v1165h210v-1169q0 -101 -15 -168t-51.5 -115.5t-101 -70t-161.5 -21.5h-100z" />
<glyph unicode="K" horiz-adv-x="922" d="M118 0v1509h211v-711l345 711h196l-299 -665l347 -844h-205l-303 748l-81 -154v-594h-211z" />
<glyph unicode="L" horiz-adv-x="739" d="M118 0v1509h211v-1358h384v-151h-595z" />
<glyph unicode="M" horiz-adv-x="1230" d="M114 0l28 1509h206l266 -1224l269 1224h205l29 -1509h-171l-16 1097l-256 -1097h-118l-254 1097l-16 -1097h-172z" />
<glyph unicode="N" horiz-adv-x="983" d="M118 0v1509h143l429 -1002v1002h175v-1509h-134l-435 1031v-1031h-178z" />
<glyph unicode="O" horiz-adv-x="1004" d="M90 473v572q0 235 96 356.5t316 121.5t316.5 -122t96.5 -356v-573q0 -235 -97 -361.5t-316 -126.5q-113 0 -193.5 33.5t-127.5 99t-69 153t-22 203.5zM302 428q0 -69 8 -116t28.5 -86t61 -58.5t102.5 -19.5t102.5 19.5t61.5 58.5t29 86t8 116v660q0 69 -8 114.5t-29 83.5 t-61.5 56t-102.5 18t-102.5 -18t-61 -56t-28.5 -83.5t-8 -114.5v-660z" />
<glyph unicode="P" horiz-adv-x="894" d="M118 0v1509h374q197 0 285 -106t88 -311q0 -184 -95 -286.5t-277 -102.5h-164v-703h-211zM329 854h95q138 0 190 49t52 188q0 57 -2.5 94t-12 70t-25 50.5t-43.5 30.5t-65 17.5t-91 4.5h-98v-504z" />
<glyph unicode="Q" horiz-adv-x="1007" d="M90 473v572q0 234 96.5 356t316.5 122t316.5 -122t96.5 -356v-573q0 -361 -221 -454q94 -120 149 -157l-33 -166q-118 59 -272 290q-6 0 -17.5 -0.5t-18.5 -0.5q-220 0 -316.5 126t-96.5 363zM302 428q0 -69 8 -116t29 -86t61.5 -58.5t102.5 -19.5t102.5 19.5t62 58.5 t29 86t7.5 116v660q0 69 -7.5 115t-29 83.5t-62 55.5t-102.5 18t-102.5 -18t-61.5 -55.5t-29 -83.5t-8 -115v-660z" />
<glyph unicode="R" horiz-adv-x="967" d="M118 0v1509h303q230 0 336.5 -94t106.5 -306q0 -291 -186 -352l216 -757h-204l-199 708h-162v-708h-211zM329 859h79q137 0 195.5 54t58.5 196q0 138 -50.5 193.5t-190.5 55.5h-92v-499z" />
<glyph unicode="S" horiz-adv-x="881" d="M72 422l187 51q20 -324 214 -324q81 0 123.5 45t42.5 133q0 48 -11.5 88t-37.5 76.5t-49 60.5t-66 64l-253 225q-76 69 -111 146t-35 188q0 164 95 255.5t259 92.5q6 0 11 1q174 0 261 -94q90 -96 108 -297l-178 -49q-3 49 -9.5 87t-21 77t-35.5 63q-22 24 -56 38 q-28 12 -64 12q-8 0 -16 -1q-166 -11 -166 -165q0 -67 22.5 -111.5t76.5 -93.5l255 -225q99 -89 157.5 -191t58.5 -231q0 -166 -100 -262.5t-261 -96.5q-190 0 -289.5 117t-111.5 321z" />
<glyph unicode="T" horiz-adv-x="746" d="M-3 1353v156h752v-156h-266v-1353h-210v1353h-276z" />
<glyph unicode="U" horiz-adv-x="1012" d="M105 509v1000h200v-1010q0 -65 3.5 -112.5t16.5 -95t34 -76.5t58.5 -48t89.5 -19t88.5 19t58 48.5t34.5 76.5t16.5 94.5t3.5 112.5v1010h200v-1000q0 -101 -10 -177t-37 -144t-71.5 -111t-115.5 -68t-167.5 -25t-167.5 25t-116 68t-71.5 111t-36.5 144t-10 177z" />
<glyph unicode="V" horiz-adv-x="941" d="M44 1509h196l239 -1111l227 1111h192l-334 -1509h-184z" />
<glyph unicode="W" horiz-adv-x="1358" d="M66 1509h177l161 -1085l204 1080h149l205 -1084l157 1089h172l-242 -1509h-153l-210 1117l-213 -1117h-160z" />
<glyph unicode="X" horiz-adv-x="898" d="M25 0l314 790l-310 719h196l229 -533l209 533h196l-318 -736l334 -773h-197l-245 568l-214 -568h-194z" />
<glyph unicode="Y" horiz-adv-x="897" d="M23 1509h195l231 -727l227 727h199l-325 -977v-532h-201v532z" />
<glyph unicode="Z" horiz-adv-x="776" d="M71 0v151l443 1207h-416v151h640v-91l-468 -1267h469v-151h-668z" />
<glyph unicode="[" horiz-adv-x="634" d="M118 -343v1852h410v-102h-210v-1648h210v-102h-410z" />
<glyph unicode="\" horiz-adv-x="687" d="M54 1509h172l407 -1509h-173z" />
<glyph unicode="]" horiz-adv-x="576" d="M49 -241h210v1647h-210v103h411v-1852h-411v102z" />
<glyph unicode="^" horiz-adv-x="826" d="M63 908l250 601h201l249 -601h-189l-161 452l-161 -452h-189z" />
<glyph unicode="_" horiz-adv-x="641" d="M0 -99h642v-151h-642v151z" />
<glyph unicode="`" horiz-adv-x="517" d="M106 1509h200l106 -369h-100z" />
<glyph unicode="a" horiz-adv-x="793" d="M77 235q0 76 25 138.5t53.5 100.5t98 79.5t107.5 59t134 56.5q5 3 8 3v78q0 104 -21.5 148.5t-86.5 44.5q-113 0 -113 -153v-54l-197 7q0 17 1 41q10 161 91 234.5t232 73.5q155 0 224.5 -85t69.5 -256v-493q0 -122 18 -258h-182q-19 90 -27 159q-22 -73 -77.5 -123.5 t-140.5 -50.5q-92 0 -154.5 75.5t-62.5 174.5zM278 296q0 -66 24.5 -102.5t70.5 -36.5q38 0 75 30t55 60v304q-104 -59 -138 -87q-87 -71 -87 -168z" />
<glyph unicode="b" horiz-adv-x="833" d="M104 0v1509h199v-517q88 100 205 100q46 0 84 -16t62.5 -41.5t43.5 -62t29 -72t16 -77t8 -72.5t2 -64v-260q0 -442 -267 -442q-97 0 -183 94v-79h-199zM303 189q66 -47 143 -47q24 0 43 9t30.5 30t18.5 43t10 58.5t4 66.5t1 77v261q0 46 -2 78.5t-9 66.5t-19 55.5 t-33.5 34.5t-51.5 13q-65 0 -135 -54v-692z" />
<glyph unicode="c" horiz-adv-x="765" d="M81 413v249q0 109 12.5 182.5t46.5 132.5t96.5 87t158.5 28q86 0 144.5 -21t90.5 -65.5t45.5 -104.5t13.5 -148v-64h-180v65q0 107 -24 149t-87 42q-73 0 -95.5 -50.5t-22.5 -191.5v-339q0 -136 25 -184t94 -48q29 0 49.5 9.5t32 24.5t18 40.5t8.5 50.5t2 62v88h180v-75 q0 -86 -13.5 -147t-46.5 -108t-91 -69.5t-143 -22.5q-78 0 -134 20t-90.5 55.5t-54.5 91t-27.5 116.5t-7.5 145z" />
<glyph unicode="d" horiz-adv-x="823" d="M81 423v209q0 81 6 143.5t23.5 124t46 102t76 65.5t111.5 25q97 0 179 -84v501h200v-1509h-200v69q-78 -84 -172 -84h-3q-138 1 -202 101q-65 102 -65 337zM280 406q0 -51 2.5 -86.5t9.5 -71.5t20 -57.5t35.5 -35t53.5 -13.5q59 0 122 40v706q-65 47 -125 47 q-118 0 -118 -224v-305z" />
<glyph unicode="e" horiz-adv-x="784" d="M81 415v247q0 112 15 188.5t50.5 132.5t98 82.5t154.5 26.5q57 0 101.5 -11t77 -30t55 -51.5t36.5 -68.5t22.5 -87t11 -102t2.5 -120l-1 -87h-424v-144v-12q0 -45 0.5 -67t4 -57t10.5 -52t20 -36.5t33.5 -27t49.5 -7.5q64 0 87.5 44t23.5 133v66h194v-42 q0 -348 -304 -348q-94 0 -157 26.5t-98 83.5t-49 133t-14 187zM280 643h229v98q0 43 -2.5 72t-9.5 56t-18.5 42.5t-32 24.5t-49.5 9q-71 0 -94 -50.5t-23 -192.5v-59z" />
<glyph unicode="f" horiz-adv-x="535" d="M35 929v148h130v56q0 65 4.5 110.5t19 88.5t39.5 68.5t67.5 40.5t102.5 15q49 0 129 -10v-149q-73 9 -74 9q-54 0 -72 -34t-18 -104v-91h165v-148h-165v-929h-198v929h-130z" />
<glyph unicode="g" horiz-adv-x="810" d="M36 -167q0 84 44.5 145t111.5 98q-51 15 -78 46.5t-27 69.5q0 56 28.5 97.5t91.5 97.5q-63 49 -93.5 123t-30.5 199q0 188 76.5 285.5t225.5 97.5q165 0 222 -118q14 19 55.5 54t90.5 57l31 13l49 -129q-37 -8 -103 -32t-80 -36q13 -33 23 -92.5t10 -105.5 q0 -86 -15 -152t-48.5 -117t-92.5 -78t-142 -27q-16 0 -56 6t-46 8q-1 -2 -8 -13.5t-10 -17t-8 -16t-7 -19.5t-2 -17q0 -21 21 -32t69 -15q4 -1 84.5 -8.5t82.5 -7.5q249 -23 249 -262q0 -144 -76.5 -206.5t-241.5 -62.5q-58 0 -102 2t-93 8t-83 17t-63 29.5t-44 46 t-15 64.5zM206 -86q0 -33 15.5 -51.5t66 -29t145.5 -10.5q87 0 128 25.5t41 81.5q0 51 -31 76.5t-116 33.5l-170 14q-27 -22 -53 -60t-26 -80zM256 709q0 -45 2.5 -77.5t11 -64.5t22.5 -52t37 -32.5t56 -12.5q79 0 104 56t25 183q0 50 -2 83.5t-10 66.5t-21.5 52t-37 31 t-55.5 12q-79 0 -105.5 -58.5t-26.5 -186.5z" />
<glyph unicode="h" horiz-adv-x="829" d="M106 0v1509h199v-543q133 126 270 126q46 0 78.5 -19t50 -52.5t24.5 -69.5t7 -79v-872h-199v814q0 61 -18 91t-67 30q-62 0 -146 -71v-864h-199z" />
<glyph unicode="i" horiz-adv-x="425" d="M114 0v1077h199v-1077h-199zM114 1237v209h200v-209h-200z" />
<glyph unicode="j" horiz-adv-x="428" d="M-35 -116q24 -5 52 -5q112 0 112 130v1068h200v-1089q0 -124 -70 -192t-193 -68q-68 0 -101 13v143zM129 1237v209h200v-209h-200z" />
<glyph unicode="k" horiz-adv-x="798" d="M104 3v1509h199v-901l292 466h209l-254 -422l245 -655h-198l-201 552l-93 -139v-410h-199z" />
<glyph unicode="l" horiz-adv-x="426" d="M119 0v1509h200v-1509h-200z" />
<glyph unicode="m" horiz-adv-x="1266" d="M101 0v1077h184v-101q109 121 254 121q136 0 174 -137q113 137 269 137q85 0 138 -62t53 -190v-845h-184v834q0 73 -24 102.5t-69 29.5q-83 0 -168 -88q1 -11 1 -33v-845h-183v834q0 73 -24 102.5t-69 29.5q-83 0 -168 -89v-877h-184z" />
<glyph unicode="n" horiz-adv-x="819" d="M101 0v1077h199v-106q128 121 263 121q46 0 79 -19t50.5 -52.5t24.5 -69.5t7 -79v-872h-199v814q0 61 -18 91t-67 30q-61 0 -140 -66v-869h-199z" />
<glyph unicode="o" horiz-adv-x="789" d="M81 382v312q0 95 16 165.5t51.5 124t97 81t149.5 27.5q170 0 242 -102t72 -296v-312q0 -194 -72 -295.5t-242 -101.5q-88 0 -149.5 27t-97 81t-51.5 124.5t-16 164.5zM280 369q0 -34 0.5 -51.5t2.5 -47.5t6 -46t12.5 -36.5t20.5 -30.5t30.5 -17.5t42.5 -7.5q27 0 47.5 8 t32.5 27.5t19 37t10.5 50.5t4 53.5t0.5 60.5v338q0 35 -0.5 52t-2.5 47t-6 46t-12 37t-20.5 31t-30.5 17.5t-42 7.5t-42.5 -7.5t-30.5 -17.5t-20.5 -31t-12.5 -37t-6 -46t-2.5 -47t-0.5 -52v-338z" />
<glyph unicode="p" horiz-adv-x="831" d="M101 -355v1432h199v-86q86 101 205 101q54 0 96 -20.5t67.5 -56.5t43.5 -76.5t25.5 -90t10.5 -86t3 -75.5v-260q0 -442 -268 -442q-96 0 -183 95v-435h-199zM300 189q66 -47 143 -47q26 0 44 9t30 30t19 43t10.5 58.5t4 66.5t0.5 77v261q0 46 -2 78.5t-9 66.5t-19 55.5 t-33.5 34.5t-51.5 13q-68 0 -136 -55v-691z" />
<glyph unicode="q" horiz-adv-x="825" d="M83 423v209q0 101 11 177t38 143.5t81.5 103.5t133.5 36q95 0 179 -84v69h198v-1432h-198v424q-78 -84 -173 -84h-3q-138 0 -202 101q-65 101 -65 337zM282 406q0 -51 2.5 -86.5t9.5 -71.5t20 -57.5t35.5 -35t53.5 -13.5q59 0 123 40v706q-67 47 -127 47 q-117 0 -117 -224v-305z" />
<glyph unicode="r" d="M106 0v1077h199v-153q55 92 114 129.5t124 37.5q18 0 33 -2v-220q-55 21 -109 21q-50 0 -88 -22.5t-74 -80.5v-787h-199z" />
<glyph unicode="s" horiz-adv-x="696" d="M46 288l167 50q12 -105 46.5 -155.5t99.5 -50.5q53 0 87 35q31 32 31 80v9q-5 80 -88 151l-183 157q-66 56 -100 116q-33 57 -33 138v9q3 127 77 196t201 69q122 0 192.5 -79.5t81.5 -203.5l-135 -50q-11 91 -41 138.5t-90 47.5q-49 1 -79 -31q-29 -30 -29 -76 q0 -64 54 -112l191 -175q72 -62 112.5 -129.5t40.5 -161.5q0 -134 -80.5 -204.5t-218.5 -70.5q-131 0 -211.5 82t-92.5 221z" />
<glyph unicode="t" horiz-adv-x="574" d="M42 945v132h113v314h199v-314h173v-132h-173v-689q0 -65 20.5 -91.5t77.5 -26.5q43 0 74 5v-148q-87 -10 -138 -10q-123 0 -177 64.5t-56 192.5v703h-113z" />
<glyph unicode="u" horiz-adv-x="819" d="M94 206v871h199v-813q0 -62 18 -92t68 -30q60 0 139 66v869h199v-1077h-199v106q-128 -121 -263 -121q-46 0 -79 19.5t-50.5 52.5t-24.5 69.5t-7 79.5z" />
<glyph unicode="v" horiz-adv-x="717" d="M28 1077h200l133 -867l134 867h194l-204 -1077h-244z" />
<glyph unicode="w" horiz-adv-x="1095" d="M53 1077h164l112 -793l143 793h152l143 -790l113 790h163l-178 -1077h-169l-145 760l-146 -760h-180z" />
<glyph unicode="x" horiz-adv-x="724" d="M17 0l241 566l-236 511h191l157 -341l141 341h195l-246 -536l251 -541h-190l-170 366l-145 -366h-189z" />
<glyph unicode="y" horiz-adv-x="729" d="M22 1077h202l145 -805l140 805h202l-259 -1136q-25 -115 -108.5 -162.5t-235.5 -47.5h-24v151q133 0 170 26q24 17 24 59q0 20 -5 45q-26 113 -35 148q-31 137 -107 459t-109 458z" />
<glyph unicode="z" horiz-adv-x="646" d="M59 0v134l330 794h-296v149h510v-108l-330 -819h323v-150h-537z" />
<glyph unicode="{" horiz-adv-x="559" d="M74 515v137q48 0 69.5 17.5t30 65t8.5 152.5v261q0 69 1.5 111.5t7.5 86.5t14.5 67t26.5 46t40.5 33t59.5 19t79.5 10.5t105.5 1.5v-147q-20 0 -33.5 -0.5t-27 -4t-21.5 -5.5t-16 -12t-11.5 -15t-7 -22.5t-5 -28t-2.5 -38.5t-1 -45.5v-56.5v-290q0 -133 -31.5 -196 t-92.5 -78q61 -14 92.5 -77.5t31.5 -196.5v-291v-57t1 -45.5t2.5 -38t5 -28.5t7 -23t11.5 -14.5t16 -11.5t21.5 -5.5t27 -4t33.5 -0.5v-148q-63 0 -105.5 2t-79.5 10.5t-59.5 18.5t-40.5 33.5t-26.5 46.5t-14.5 66.5t-7.5 86.5t-1.5 112v262q0 106 -8.5 153t-30 64t-69.5 17 z" />
<glyph unicode="|" horiz-adv-x="445" d="M129 -277l2 1787h185l-1 -1787h-186z" />
<glyph unicode="}" d="M82 -209q20 0 33.5 0.5t27 4t21.5 5.5t15.5 11.5t11.5 14.5t7.5 23t5 28.5t2.5 38t1 45.5v57v291q0 133 31.5 196.5t92.5 77.5q-61 15 -92.5 78t-31.5 196v290v56.5t-1 45.5t-2.5 38.5t-5 28t-7.5 22.5t-11.5 15t-15.5 12t-21.5 5.5t-27 4t-33.5 0.5v147q63 0 104.5 -1.5 t79.5 -10.5t60 -19t40.5 -33t26.5 -46t14 -67t7.5 -86t1.5 -112v-261q0 -105 8.5 -152.5t30 -65t69.5 -17.5v-137q-48 0 -69.5 -17t-30 -64t-8.5 -153v-262q0 -70 -1.5 -112.5t-7.5 -86t-14 -66.5t-26.5 -46.5t-40.5 -33.5t-60 -18.5t-79.5 -10.5t-104.5 -2v148z" />
<glyph unicode="~" horiz-adv-x="832" d="M66 807q47 49 112 92.5t109 43.5q47 0 141.5 -53t134.5 -53q18 0 42 12t41 24.5t50 38.5l72 -92q-47 -55 -108 -99.5t-108 -44.5q-39 0 -92 27t-103.5 54t-83.5 27q-49 0 -137 -72z" />
<glyph unicode="&#xad;" d="M91 487v151h417v-151h-417z" />
<glyph unicode="&#x400;" horiz-adv-x="758" d="M118 0v1509h585v-156h-374v-499h303v-150h-303v-553h378v-151h-589zM156 2003h200l106 -369h-100z" />
<glyph unicode="&#x401;" horiz-adv-x="758" d="M118 0v1509h585v-156h-374v-499h303v-150h-303v-553h378v-151h-589zM152 1634v206h200v-206h-200zM471 1634v206h201v-206h-201z" />
<glyph unicode="&#x402;" horiz-adv-x="1019" d="M19 1353v156h663v-156h-241v-535q71 64 189 64q57 0 110.5 -18.5t98.5 -53.5t72 -95.5t27 -137.5v-179q0 -206 -87.5 -302t-258.5 -96h-35v151q45 0 78.5 13.5t53 35.5t31.5 55t15.5 66.5t3.5 76.5v173q0 71 -40 120t-115 49q-65 0 -143 -39v-701h-205v1353h-217z" />
<glyph unicode="&#x403;" horiz-adv-x="719" d="M118 0v1509h573v-156h-362v-1353h-211zM354 1634l110 369h199l-208 -369h-101z" />
<glyph unicode="&#x404;" horiz-adv-x="938" d="M90 485v533q0 96 11.5 170.5t39.5 139t73.5 106.5t116 65.5t164.5 23.5q204 0 292 -110t88 -324v-54h-199v41q0 34 -0.5 53.5t-2 49t-5 45.5t-9.5 38t-15 34.5t-22.5 26.5t-31 20.5t-41 11.5t-52.5 5q-44 0 -76.5 -10t-53.5 -30.5t-34.5 -45t-19.5 -63t-8.5 -74.5 t-2.5 -89v-192h373v-146h-373v-259q0 -170 43 -236.5t152 -66.5q42 0 72.5 9.5t50 30t31 43.5t17 61.5t7 71.5t1.5 86v61h199v-62q0 -87 -10.5 -155t-37 -128t-69.5 -99t-109.5 -61t-153.5 -22q-94 0 -165 25.5t-116 69t-73.5 108.5t-39.5 137t-11 161z" />
<glyph unicode="&#x405;" horiz-adv-x="881" d="M72 422l187 51q20 -324 214 -324q81 0 123.5 45t42.5 133q0 48 -11.5 88t-37.5 76.5t-49 60.5t-66 64l-253 225q-76 69 -111 146t-35 188q0 164 95 255.5t259 92.5q182 3 272 -93t108 -297l-178 -49q-3 49 -9.5 87t-21 77t-35.5 63t-55.5 38t-80.5 11q-166 -11 -166 -165 q0 -67 22.5 -111.5t76.5 -93.5l255 -225q99 -89 157.5 -191t58.5 -231q0 -166 -100 -262.5t-261 -96.5q-190 0 -289.5 117t-111.5 321z" />
<glyph unicode="&#x406;" horiz-adv-x="461" d="M128 0v1509h207v-1509h-207z" />
<glyph unicode="&#x407;" horiz-adv-x="461" d="M-28 1634v206h200v-206h-200zM128 0v1509h207v-1509h-207zM291 1634v206h201v-206h-201z" />
<glyph unicode="&#x408;" horiz-adv-x="561" d="M13 -35v151q72 0 112 8.5t65.5 35t33.5 68t8 116.5v1165h210v-1169q0 -101 -15 -168t-51.5 -115.5t-101 -70t-161.5 -21.5h-100z" />
<glyph unicode="&#x409;" horiz-adv-x="1558" d="M25 -1v158q81 -7 127.5 34.5t75 153t41.5 320.5l49 844h666v-628h29q127 0 214 -20t150 -69.5t91.5 -135t28.5 -214.5q0 -232 -114 -337t-359 -105h-250v1353h-272l-40 -688q-8 -143 -24.5 -248t-46 -188t-73.5 -133.5t-106 -75.5t-145 -23zM984 151h40q75 0 122.5 11 t84 42.5t52.5 89.5t16 150q0 156 -61 220.5t-218 64.5h-36v-578z" />
<glyph unicode="&#x40a;" horiz-adv-x="1456" d="M118 0v1511h211v-631h352v631h211v-630h30q127 0 214 -20t150 -69.5t91.5 -135t28.5 -214.5q0 -232 -114 -337t-359 -105h-252v728h-352v-728h-211zM892 151h41q75 0 122.5 11t84 42.5t52.5 89.5t16 150q0 156 -61 220.5t-218 64.5h-37v-578z" />
<glyph unicode="&#x40b;" horiz-adv-x="930" d="M-9 1353v156h669v-156h-244v-535q8 7 27 18t69.5 26t104.5 15q97 0 159 -48.5t62 -128.5v-700h-199v653q0 50 -18.5 74t-69.5 24q-30 0 -63.5 -12t-49 -22t-22.5 -16v-701h-206v1353h-219z" />
<glyph unicode="&#x40c;" horiz-adv-x="946" d="M118 0v1509h211v-670h78l269 670h211l-297 -717l335 -792h-212l-305 736h-79v-736h-211zM471 1634l110 369h200l-209 -369h-101z" />
<glyph unicode="&#x40d;" horiz-adv-x="1015" d="M118 0v1509h185v-1045l442 1045h152v-1509h-184v1063l-439 -1063h-156zM251 2003h200l107 -369h-100z" />
<glyph unicode="&#x40e;" horiz-adv-x="841" d="M35 1509h200l127 -643l77 -477l66 475l114 645h202l-270 -1344q-7 -31 -17 -86q-20 -112 -34 -157t-58 -92t-123.5 -57t-219.5 -1v162q127 -13 182.5 7.5t61.5 77.5t-10 149zM167 1911h116q1 -86 37 -125t108 -39t107.5 39t36.5 125h118q0 -277 -262 -277 q-260 0 -261 277z" />
<glyph unicode="&#x40f;" horiz-adv-x="1019" d="M118 0v1509h211v-1359h362v1359h210v-1509h-295l-14 -275h-157l-14 275h-303z" />
<glyph unicode="&#x410;" horiz-adv-x="916" d="M35 0l322 1509h203l322 -1509h-200l-70 380h-306l-72 -380h-199zM333 531h252l-126 681z" />
<glyph unicode="&#x411;" horiz-adv-x="920" d="M118 0v1509h647v-152h-436v-476h46q127 0 214 -20t150 -69t92 -135t29 -215q0 -232 -114 -337t-360 -105h-268zM329 151h58q74 0 121.5 11t84 42.5t52.5 89.5t16 150q0 156 -61 220.5t-218 64.5h-53v-578z" />
<glyph unicode="&#x412;" horiz-adv-x="976" d="M118 0v1509h345q206 0 305 -92t99 -286q0 -288 -216 -318q133 -33 194.5 -126.5t61.5 -255.5q0 -203 -95.5 -317t-291.5 -114h-402zM329 151h141q137 0 187 64t50 216q0 145 -59.5 216.5t-194.5 71.5h-124v-568zM329 879h123q130 0 180.5 58t50.5 194q0 45 -6 78 t-16 56.5t-30.5 39.5t-41.5 25.5t-57 14.5t-69 6.5t-85 1.5h-49v-474z" />
<glyph unicode="&#x413;" horiz-adv-x="719" d="M118 0v1509h573v-156h-362v-1353h-211z" />
<glyph unicode="&#x414;" horiz-adv-x="1168" d="M20 151h69q37 32 62.5 63t56.5 97.5t51.5 157.5t39 242t28.5 352l22 446h634v-1358h145v-426h-162l-18 275h-749l-16 -275h-163v426zM285 151h488v1202h-244l-14 -340q-4 -110 -11.5 -204t-15.5 -165t-21 -132t-23 -102t-27.5 -79.5t-28.5 -60t-33.5 -47.5t-34 -37 t-35.5 -35z" />
<glyph unicode="&#x415;" horiz-adv-x="758" d="M118 0v1509h585v-156h-374v-499h303v-150h-303v-553h378v-151h-589z" />
<glyph unicode="&#x416;" horiz-adv-x="1260" d="M7 0l352 772l-316 737h203l283 -727h12v727h179v-727h12l283 727h203l-316 -737l352 -772h-207l-314 755h-13v-755h-179v755h-14l-314 -755h-206z" />
<glyph unicode="&#x417;" horiz-adv-x="895" d="M46 1087v51q0 181 101 283t284.5 102t286 -104t102.5 -286q0 -134 -58 -220.5t-158 -115.5q103 -34 159.5 -127.5t56.5 -244.5q0 -441 -373 -441q-181 0 -275.5 101.5t-94.5 285.5v50h200q0 -37 1 -52q3 -107 40 -164t129 -57q53 0 88 19.5t53 58t25 85.5t7 114 q0 62 -12 109t-39.5 85.5t-77.5 61t-121 28.5q-13 1 -56 1v161q40 0 53 1q139 8 196 71.5t57 189.5q0 227 -181 227q-179 0 -192 -225q-1 -15 -1 -48h-200z" />
<glyph unicode="&#x418;" horiz-adv-x="1015" d="M118 0v1509h185v-1045l442 1045h152v-1509h-184v1063l-439 -1063h-156z" />
<glyph unicode="&#x419;" horiz-adv-x="1015" d="M118 0v1509h185v-1045l442 1045h152v-1509h-184v1063l-439 -1063h-156zM246 1911h116q1 -86 37 -125t108 -39t108 39t37 125h117q0 -277 -262 -277q-259 0 -261 277z" />
<glyph unicode="&#x41a;" horiz-adv-x="946" d="M118 0v1509h211v-670h78l269 670h211l-297 -717l335 -792h-212l-305 736h-79v-736h-211z" />
<glyph unicode="&#x41b;" horiz-adv-x="1081" d="M4 -1v158q34 -1 55.5 1.5t47 14t42 34t33.5 62t28.5 99t21.5 143t17 195.5l50 803h665v-1509h-211v1353h-272l-36 -647q-8 -131 -19 -223.5t-31.5 -179.5t-51.5 -142t-77.5 -96t-111.5 -56.5t-150 -9.5z" />
<glyph unicode="&#x41c;" horiz-adv-x="1230" d="M114 0l28 1509h189l283 -1163l285 1163h189l29 -1509h-167l-11 1016l-265 -1016h-118l-264 1016l-11 -1016h-167z" />
<glyph unicode="&#x41d;" horiz-adv-x="1044" d="M118 0v1509h211v-652h387v652h210v-1509h-210v707h-387v-707h-211z" />
<glyph unicode="&#x41e;" horiz-adv-x="1004" d="M90 473v572q0 235 96 356.5t316 121.5t316.5 -122t96.5 -356v-573q0 -235 -97 -361.5t-316 -126.5q-113 0 -193.5 33.5t-127.5 99t-69 153t-22 203.5zM302 428q0 -69 8 -116t28.5 -86t61 -58.5t102.5 -19.5t102.5 19.5t61.5 58.5t29 86t8 116v660q0 69 -8 114.5t-29 83.5 t-61.5 56t-102.5 18t-102.5 -18t-61 -56t-28.5 -83.5t-8 -114.5v-660z" />
<glyph unicode="&#x41f;" horiz-adv-x="1065" d="M118 0v1509h830v-1509h-211v1359h-408v-1359h-211z" />
<glyph unicode="&#x420;" horiz-adv-x="892" d="M118 0v1509h374q197 0 285 -106t88 -311q0 -184 -95 -286.5t-277 -102.5h-164v-703h-211zM329 854h95q138 0 190 49t52 188q0 57 -2.5 94t-12 70t-25 50.5t-43.5 30.5t-65 17.5t-91 4.5h-98v-504z" />
<glyph unicode="&#x421;" horiz-adv-x="959" d="M90 485v533q0 96 11.5 170.5t39.5 139t73.5 106.5t116 65.5t164.5 23.5q204 0 292 -110t88 -324v-120h-199v107q0 34 -0.5 53.5t-2 49t-5 45.5t-9.5 38t-15 34.5t-22.5 26.5t-31 20.5t-41 11.5t-52.5 5q-44 0 -76.5 -10t-53.5 -30.5t-34.5 -45t-19.5 -63t-8.5 -74.5 t-2.5 -89v-597q0 -170 43 -236.5t152 -66.5q42 0 72.5 9.5t50 30t31 43.5t17 61.5t7 71.5t1.5 86v111h199v-112q0 -87 -10.5 -155t-37 -128t-69.5 -99t-109.5 -61t-153.5 -22q-94 0 -165 25.5t-116 69t-73.5 108.5t-39.5 137t-11 161z" />
<glyph unicode="&#x422;" horiz-adv-x="746" d="M-3 1353v156h752v-156h-266v-1353h-210v1353h-276z" />
<glyph unicode="&#x423;" horiz-adv-x="841" d="M35 1509h200l127 -643l77 -477l66 475l114 645h202l-270 -1344q-7 -31 -17 -86q-20 -112 -34 -157t-58 -92t-123.5 -57t-219.5 -1v162q127 -13 182.5 7.5t61.5 77.5t-10 149z" />
<glyph unicode="&#x424;" horiz-adv-x="1233" d="M90 580v376q0 222 89 316t268 84h30q30 -1 32 -1v290h210v-290q2 0 35.5 0.5t35.5 0.5q176 11 265 -83.5t89 -316.5v-376q0 -221 -89 -317t-265 -79q-1 0 -35 1t-36 1v-252h-210v252q-2 0 -33.5 -1t-32.5 -1q-175 -16 -264 79t-89 317zM282 580q0 -70 3.5 -112 t14.5 -77.5t33 -52t56.5 -23.5t87.5 -5q1 0 15.5 0.5t16.5 0.5v917q-2 0 -16 0.5t-15 0.5q-45 3 -76 -1t-53 -17.5t-35 -32.5t-20 -53.5t-9.5 -72t-2.5 -96.5v-376zM719 311q2 0 19.5 -0.5t18.5 -0.5q53 -2 87.5 5t56.5 23.5t33 52t14.5 77.5t3.5 112v376q0 59 -2.5 96.5 t-9.5 72t-20 53.5t-35 32.5t-53 17.5t-76 1q-1 0 -18 -0.5t-19 -0.5v-917z" />
<glyph unicode="&#x425;" horiz-adv-x="898" d="M25 0l314 790l-310 719h196l229 -533l209 533h196l-318 -736l334 -773h-197l-245 568l-214 -568h-194z" />
<glyph unicode="&#x426;" horiz-adv-x="1158" d="M118 0v1509h211v-1359h428v1359h210v-1359h144v-425h-163l-17 275h-813z" />
<glyph unicode="&#x427;" horiz-adv-x="1001" d="M91 1019v490h190v-489q0 -111 49 -162.5t162 -51.5q75 0 181 23v680h212v-1509h-212v696q-123 -27 -222 -27q-360 0 -360 350z" />
<glyph unicode="&#x428;" horiz-adv-x="1397" d="M118 0v1509h211v-1357h272v1357h210v-1357h258v1357h211v-1509h-1162z" />
<glyph unicode="&#x429;" horiz-adv-x="1472" d="M118 0v1509h211v-1359h272v1359h210v-1359h259v1359h211v-1359h144v-425h-163l-17 275h-1127z" />
<glyph unicode="&#x42a;" horiz-adv-x="1057" d="M9 1350v159h455v-628h58q128 0 215 -20t149.5 -69t91.5 -135t29 -215q0 -232 -114 -337t-360 -105h-279v1350h-245zM464 151h70q75 0 122 11t83.5 42.5t52.5 89.5t16 150q0 156 -61 220.5t-217 64.5h-66v-578z" />
<glyph unicode="&#x42b;" horiz-adv-x="1355" d="M118 0v1509h211v-628h58q127 0 214 -20t150 -69.5t91.5 -135t28.5 -214.5q0 -232 -114.5 -337t-358.5 -105h-280zM329 151h69q75 0 122.5 11t84 42.5t52 89.5t15.5 150q0 156 -60.5 220.5t-217.5 64.5h-65v-578zM1027 0v1509h211v-1509h-211z" />
<glyph unicode="&#x42c;" horiz-adv-x="920" d="M118 0v1509h211v-628h58q127 0 214 -20t150 -69.5t91.5 -135t28.5 -214.5q0 -232 -114.5 -337t-358.5 -105h-280zM329 151h69q75 0 122.5 11t84 42.5t52 89.5t15.5 150q0 156 -60.5 220.5t-217.5 64.5h-65v-578z" />
<glyph unicode="&#x42d;" horiz-adv-x="967" d="M92 439v74h199v-60q0 -34 0.5 -54t2 -49t5 -45.5t9.5 -38.5t15 -34.5t22.5 -26t31.5 -21t41.5 -12t52.5 -4.5q52 0 88.5 15.5t57 40t31.5 67t14 84t3 105.5v239h-265v138h265v220q0 170 -42.5 236.5t-151.5 66.5q-35 0 -63 -8t-47 -20t-32 -34.5t-20.5 -44.5t-11.5 -57 t-5 -63.5t-1 -73.5v-64h-199v65q0 87 11 155t37.5 127t69.5 98.5t109.5 61.5t153.5 22q94 0 165 -25.5t116 -69t73 -108t39 -136.5t11 -161v-533q0 -122 -18.5 -210t-63 -157t-124.5 -104t-198 -35q-205 0 -293 110t-88 324z" />
<glyph unicode="&#x42e;" horiz-adv-x="1340" d="M118 0v1509h197v-658h171v188q0 117 19 203.5t63 151t119 97t181.5 32.5t181 -33t118 -98t63 -151t19.5 -202v-561q0 -117 -19.5 -204t-62.5 -154t-118 -101.5t-181.5 -34.5t-182 34t-119 101t-62.5 154t-19 205v214h-171v-692h-197zM675 428q0 -69 8 -116t28 -86 t59 -58.5t98 -19.5t98 19.5t59.5 58.5t28 86t7.5 116v660q0 68 -7.5 114.5t-28 83.5t-59.5 55.5t-98 18.5t-97.5 -18.5t-59 -55.5t-28.5 -83.5t-8 -114.5v-660z" />
<glyph unicode="&#x42f;" horiz-adv-x="1016" d="M24 0l316 679q-102 45 -161 150.5t-59 263.5q0 416 473 416h306v-1509h-211v627h-120q-2 0 -23.5 0.5t-23.5 0.5l-263 -628h-234zM319 1094q0 -164 66.5 -240t224.5 -76h78v580h-84q-144 0 -214.5 -63t-70.5 -201z" />
<glyph unicode="&#x430;" horiz-adv-x="793" d="M77 235q0 76 25 138.5t53.5 100.5t98 79.5t107.5 59t134 56.5q5 3 8 3v78q0 104 -21.5 148.5t-86.5 44.5q-113 0 -113 -153v-54l-197 7q0 17 1 41q10 161 91 234.5t232 73.5q155 0 224.5 -85t69.5 -256v-493q0 -122 18 -258h-182q-19 90 -27 159q-22 -73 -77.5 -123.5 t-140.5 -50.5q-92 0 -154.5 75.5t-62.5 174.5zM278 296q0 -66 24.5 -102.5t70.5 -36.5q38 0 75 30t55 60v304q-104 -59 -138 -87q-87 -71 -87 -168z" />
<glyph unicode="&#x431;" horiz-adv-x="816" d="M97 359v557q0 111 4.5 191.5t17 140t28 96t43 63t55 40t72 26t87 21t106.5 27.5t124 42l49 -162q-58 -26 -115.5 -42.5t-93 -21t-69.5 -13t-51.5 -21.5t-32 -43t-19.5 -79t-5 -129v-126q96 62 193 62q52 0 95 -20t77.5 -63t53.5 -120.5t19 -182.5v-205q0 -99 -16 -172 t-44.5 -119t-72 -73.5t-91.5 -37.5t-111 -10q-143 -1 -223 95t-80 279zM297 352q0 -120 27 -170t95 -50q61 1 88.5 47.5t27.5 156.5v326q0 102 -22 145.5t-73 43.5q-64 0 -143 -55v-444z" />
<glyph unicode="&#x432;" horiz-adv-x="773" d="M101 0v1077h301q79 0 137 -20.5t90.5 -57.5t47.5 -81t16 -98q1 -88 -30 -148t-111 -84q167 -34 167 -274q0 -75 -14.5 -129.5t-48.5 -97.5t-95 -65t-149 -22h-311zM296 150h71q74 0 115 36t41 134q0 41 -4.5 71.5t-15 49.5t-22 31.5t-30.5 18t-35 7.5t-40 2h-80v-350z M296 643h97q61 0 93 35.5t32 116.5q0 74 -37 105t-108 31h-77v-288z" />
<glyph unicode="&#x433;" horiz-adv-x="540" d="M101 0v1077h433v-142h-234v-935h-199z" />
<glyph unicode="&#x434;" horiz-adv-x="924" d="M4 133q60 45 103 102.5t80.5 149t57 229.5t21.5 322l3 141h488v-935h130v-417h-144l-18 275h-558l-18 -275h-145v408zM198 142h367v792h-141l-3 -39q-1 -190 -18.5 -326.5t-51 -219t-68.5 -128t-85 -79.5z" />
<glyph unicode="&#x435;" horiz-adv-x="784" d="M81 415v247q0 112 15 188.5t50.5 132.5t98 82.5t154.5 26.5q57 0 101.5 -11t77 -30t55 -51.5t36.5 -68.5t22.5 -87t11 -102t2.5 -120l-1 -87h-424v-144v-12q0 -45 0.5 -67t4 -57t10.5 -52t20 -36.5t33.5 -27t49.5 -7.5q64 0 87.5 44t23.5 133v66h194v-42 q0 -348 -304 -348q-94 0 -157 26.5t-98 83.5t-49 133t-14 187zM280 643h229v98q0 43 -2.5 72t-9.5 56t-18.5 42.5t-32 24.5t-49.5 9q-71 0 -94 -50.5t-23 -192.5v-59z" />
<glyph unicode="&#x436;" horiz-adv-x="1079" d="M7 0l271 550l-254 527h190l229 -518h15v518h164v-518h15l227 518h191l-253 -527l270 -550h-186l-248 529h-16v-529h-164v529h-16l-250 -529h-185z" />
<glyph unicode="&#x437;" horiz-adv-x="697" d="M54 768q0 173 77 248.5t224 75.5q72 0 128 -24t89 -65.5t49.5 -91.5t16.5 -107q0 -66 -17.5 -114.5t-45.5 -75t-57 -39.5t-62 -15q24 -6 36.5 -9t35 -12.5t35 -20.5t29 -31t25.5 -45.5t15.5 -63.5t6.5 -84q1 -153 -70.5 -232.5t-213.5 -79.5q-148 0 -218 84.5t-70 263.5 h171q0 -108 30 -157t90 -50q35 0 57.5 14t32.5 44t13 60.5t3 80.5q-1 102 -44.5 132.5t-172.5 30.5v141q125 0 170.5 37.5t46.5 130.5q1 76 -32 113.5t-85 37.5q-61 0 -92 -38.5t-31 -138.5h-170z" />
<glyph unicode="&#x438;" horiz-adv-x="850" d="M101 0v1077h167v-724l325 724h157v-1077h-165v731l-323 -731h-161z" />
<glyph unicode="&#x439;" horiz-adv-x="850" d="M101 0v1077h167v-724l325 724h157v-1077h-165v731l-323 -731h-161zM164 1480h116q1 -87 37 -125.5t108 -38.5t108 39t37 125h117q0 -277 -262 -277q-259 0 -261 277z" />
<glyph unicode="&#x43a;" horiz-adv-x="772" d="M101 0v1077h199v-454h57l202 454h205l-226 -521l229 -556h-208l-203 503h-56v-503h-199z" />
<glyph unicode="&#x43b;" horiz-adv-x="903" d="M32 -9v150q28 0 49.5 4.5t39 18t29.5 29t21.5 47t16 61t11.5 83t8 100.5t8 125l24 468h564v-1077h-200v925h-190l-16 -316q-7 -130 -15.5 -218t-25.5 -161t-40.5 -116t-61 -72t-85 -40t-115.5 -11h-22z" />
<glyph unicode="&#x43c;" horiz-adv-x="985" d="M95 0l11 1077h147l239 -661l241 661h146l12 -1077h-168v642l-200 -536h-61l-200 534v-640h-167z" />
<glyph unicode="&#x43d;" horiz-adv-x="855" d="M101 0v1077h199v-452h255v452h199v-1077h-199v479h-255v-479h-199z" />
<glyph unicode="&#x43e;" horiz-adv-x="789" d="M81 382v312q0 95 16 165.5t51.5 124t97 81t149.5 27.5q170 0 242 -102t72 -296v-312q0 -194 -72 -295.5t-242 -101.5q-88 0 -149.5 27t-97 81t-51.5 124.5t-16 164.5zM280 369q0 -34 0.5 -51.5t2.5 -47.5t6 -46t12.5 -36.5t20.5 -30.5t30.5 -17.5t42.5 -7.5q27 0 47.5 8 t32.5 27.5t19 37t10.5 50.5t4 53.5t0.5 60.5v338q0 35 -0.5 52t-2.5 47t-6 46t-12 37t-20.5 31t-30.5 17.5t-42 7.5t-42.5 -7.5t-30.5 -17.5t-20.5 -31t-12.5 -37t-6 -46t-2.5 -47t-0.5 -52v-338z" />
<glyph unicode="&#x43f;" horiz-adv-x="827" d="M101 0v1077h625v-1077h-199v925h-227v-925h-199z" />
<glyph unicode="&#x440;" horiz-adv-x="831" d="M101 -355v1432h199v-86q86 101 205 101q54 0 96 -20.5t67.5 -56.5t43.5 -76.5t25.5 -90t10.5 -86t3 -75.5v-260q0 -442 -268 -442q-96 0 -183 95v-435h-199zM300 189q66 -47 143 -47q26 0 44 9t30 30t19 43t10.5 58.5t4 66.5t0.5 77v261q0 46 -2 78.5t-9 66.5t-19 55.5 t-33.5 34.5t-51.5 13q-68 0 -136 -55v-691z" />
<glyph unicode="&#x441;" horiz-adv-x="765" d="M81 413v249q0 109 12.5 182.5t46.5 132.5t96.5 87t158.5 28q86 0 144.5 -21t90.5 -65.5t45.5 -104.5t13.5 -148v-64h-180v65q0 107 -24 149t-87 42q-73 0 -95.5 -50.5t-22.5 -191.5v-339q0 -136 25 -184t94 -48q29 0 49.5 9.5t32 24.5t18 40.5t8.5 50.5t2 62v88h180v-75 q0 -86 -13.5 -147t-46.5 -108t-91 -69.5t-143 -22.5q-78 0 -134 20t-90.5 55.5t-54.5 91t-27.5 116.5t-7.5 145z" />
<glyph unicode="&#x442;" horiz-adv-x="644" d="M20 928v149h605v-149h-205v-928h-199v928h-201z" />
<glyph unicode="&#x443;" horiz-adv-x="738" d="M29 1077h186l105 -560l56 -340l44 339l89 561h194l-233 -1080q-15 -69 -40.5 -117.5t-57 -78t-78 -46.5t-92.5 -23t-111 -7v165q48 1 79.5 6.5t54.5 18t31.5 35.5t8 56.5t-11.5 82.5z" />
<glyph unicode="&#x444;" horiz-adv-x="1129" d="M81 472v194q0 101 28.5 178t80 123t116 68.5t141.5 22.5h24v451h184v-451h33q159 0 259.5 -97t100.5 -295v-194q0 -412 -366 -412h-27v-415h-184v415h-18q-37 0 -71 4t-73 16.5t-70.5 31.5t-61.5 51t-50.5 73.5t-33 102t-12.5 133.5zM260 474q0 -156 48 -214.5t151 -58.5 h12v726h-18q-95 0 -144 -50t-49 -182v-221zM655 201h12q104 0 153 59t49 214v221q0 68 -13.5 115t-41 72t-61 35t-81.5 10h-17v-726z" />
<glyph unicode="&#x445;" horiz-adv-x="724" d="M17 0l241 566l-236 511h191l157 -341l141 341h195l-246 -536l251 -541h-190l-170 366l-145 -366h-189z" />
<glyph unicode="&#x446;" horiz-adv-x="904" d="M101 0v1077h199v-935h260v935h198v-935h130v-417h-145l-16 275h-626z" />
<glyph unicode="&#x447;" horiz-adv-x="806" d="M69 684v393h199v-395q0 -62 30.5 -93t110.5 -31q42 0 97 8v511h199v-1077h-199v428q-88 -12 -145 -12q-64 0 -114 12t-91.5 41.5t-64 83.5t-22.5 131z" />
<glyph unicode="&#x448;" horiz-adv-x="1163" d="M101 0v1077h192v-935h189v935h192v-935h197v935h193v-1077h-963z" />
<glyph unicode="&#x449;" horiz-adv-x="1249" d="M101 0v1077h192v-935h189v935h193v-935h197v935h193v-935h130v-417h-145l-17 275h-932z" />
<glyph unicode="&#x44a;" horiz-adv-x="895" d="M-7 930v147h422v-445h32q92 -1 156 -10t113.5 -30t78.5 -56.5t43.5 -89t14.5 -128.5q0 -177 -95 -247.5t-331 -70.5h-211v930h-223zM415 117h12q143 0 194.5 41t51.5 160q0 74 -19.5 114.5t-71 60.5t-147.5 21h-20v-397z" />
<glyph unicode="&#x44b;" horiz-adv-x="1160" d="M101 0v1077h199v-445h32q116 -1 188.5 -15t124 -49.5t72.5 -95.5t21 -154q0 -177 -94.5 -247.5t-331.5 -70.5h-211zM300 117h12q143 0 195 41t52 160q0 111 -49 153t-190 43h-20v-397zM861 0v1077h199v-1077h-199z" />
<glyph unicode="&#x44c;" horiz-adv-x="772" d="M101 0v1077h199v-445h32q116 -1 188.5 -15t124 -49.5t72.5 -95.5t21 -154q0 -177 -94.5 -247.5t-331.5 -70.5h-211zM300 117h12q143 0 195 41t52 160q0 111 -49 153t-190 43h-20v-397z" />
<glyph unicode="&#x44d;" horiz-adv-x="768" d="M79 319v30h180v-30q0 -104 24.5 -146t87.5 -42q73 0 95 50.5t22 191.5v109h-258v112h258v118q0 137 -24.5 184t-93.5 47q-29 0 -49.5 -9t-32 -24t-18.5 -40t-9 -49.5t-2 -59.5v-53h-180v40q0 85 13.5 145t47 106t91.5 68.5t143 22.5q78 0 134 -20.5t90.5 -55t54.5 -90.5 t27 -117.5t7 -144.5v-248q0 -86 -7.5 -149t-28 -118.5t-55.5 -89t-90.5 -53t-132.5 -19.5q-87 0 -145 20t-90 65t-45.5 104t-13.5 145z" />
<glyph unicode="&#x44e;" horiz-adv-x="1067" d="M101 0v1077h176v-472h148v89q0 96 13 166t44.5 123.5t86.5 81t135 27.5t135 -27.5t86 -81t45 -123.5t14 -166v-312q0 -95 -14 -165t-45 -124t-86 -81t-135 -27t-135 27t-86.5 81t-44.5 124t-13 165v92h-148v-474h-176zM600 369q0 -34 0.5 -51.5t2 -47.5t5.5 -46 t11.5 -36.5t18.5 -30.5t27.5 -17.5t38.5 -7.5q26 0 44 8t29.5 27.5t18.5 37t9.5 50.5t3 54t0.5 60v338q0 39 -0.5 60.5t-3 54t-9.5 51t-18.5 37.5t-29.5 27t-44 8q-22 0 -38.5 -7.5t-27.5 -17.5t-18.5 -31t-11.5 -37t-5.5 -46t-2 -47t-0.5 -52v-338z" />
<glyph unicode="&#x44f;" horiz-adv-x="804" d="M18 0l204 457q-148 54 -148 296q0 173 95 248.5t325 75.5h209v-1077h-198v425q-52 0 -95 4l-177 -429h-215zM253 753q0 -111 50 -161.5t180 -51.5h22v423h-21q-131 -1 -181 -47.5t-50 -162.5z" />
<glyph unicode="&#x450;" horiz-adv-x="784" d="M81 415v247q0 112 15 188.5t50.5 132.5t98 82.5t154.5 26.5q57 0 101.5 -11t77 -30t55 -51.5t36.5 -68.5t22.5 -87t11 -102t2.5 -120l-1 -87h-424v-144v-12q0 -45 0.5 -67t4 -57t10.5 -52t20 -36.5t33.5 -27t49.5 -7.5q64 0 87.5 44t23.5 133v66h194v-42 q0 -348 -304 -348q-94 0 -157 26.5t-98 83.5t-49 133t-14 187zM136 1572h201l106 -369h-100zM280 643h229v98q0 43 -2.5 72t-9.5 56t-18.5 42.5t-32 24.5t-49.5 9q-71 0 -94 -50.5t-23 -192.5v-59z" />
<glyph unicode="&#x451;" horiz-adv-x="784" d="M81 415v247q0 112 15 188.5t50.5 132.5t98 82.5t154.5 26.5q57 0 101.5 -11t77 -30t55 -51.5t36.5 -68.5t22.5 -87t11 -102t2.5 -120l-1 -87h-424v-144v-12q0 -45 0.5 -67t4 -57t10.5 -52t20 -36.5t33.5 -27t49.5 -7.5q64 0 87.5 44t23.5 133v66h194v-42 q0 -348 -304 -348q-94 0 -157 26.5t-98 83.5t-49 133t-14 187zM133 1203v206h200v-206h-200zM280 643h229v98q0 43 -2.5 72t-9.5 56t-18.5 42.5t-32 24.5t-49.5 9q-71 0 -94 -50.5t-23 -192.5v-59zM452 1203v206h201v-206h-201z" />
<glyph unicode="&#x452;" horiz-adv-x="851" d="M-18 1150v119h136v240h200v-240h263v-119h-263v-307q3 2 14 9.5t34 19.5t50 22t64 17.5t73 7.5q106 0 155 -53.5t49 -129.5v-546q0 -100 -4 -165t-17.5 -121t-36 -87t-61.5 -53.5t-91 -30.5t-127 -8h-63v133h22q41 0 64 2.5t46 13t34 28t20 51.5t12 80t3 116v538 q0 52 -18.5 77t-68.5 25q-29 0 -66 -11.5t-59.5 -22.5t-27.5 -15v-740h-200v1150h-136z" />
<glyph unicode="&#x453;" horiz-adv-x="540" d="M101 0v1077h433v-142h-234v-935h-199zM268 1203l110 369h199l-208 -369h-101z" />
<glyph unicode="&#x454;" horiz-adv-x="739" d="M83 413v249q0 86 7.5 149t28 118.5t55 89.5t90 53.5t132.5 19.5q87 0 145 -20.5t90.5 -65t46 -104t13.5 -148.5v-30h-180v31q0 107 -24 148.5t-88 41.5q-72 0 -95 -50.5t-23 -191.5v-90h266v-131h-266v-118q0 -137 25 -184.5t94 -47.5q30 0 50 9t32 24t18.5 40.5 t8.5 50.5t2 62v51h180v-38q0 -175 -65 -260.5t-229 -85.5q-79 0 -135 20t-90.5 55t-55 91t-27 117t-6.5 145z" />
<glyph unicode="&#x455;" horiz-adv-x="696" d="M46 288l167 50q12 -105 46.5 -155.5t99.5 -50.5q53 0 87 35t31 89q-5 80 -88 151l-183 157q-66 56 -100.5 116.5t-32.5 146.5q3 127 77 196t201 69q122 0 192.5 -79.5t81.5 -203.5l-135 -50q-11 91 -41 138.5t-90 47.5q-49 0 -79 -31.5t-29 -78.5q0 -61 54 -109l191 -175 q72 -62 112.5 -129.5t40.5 -161.5q0 -134 -80.5 -204.5t-218.5 -70.5q-131 0 -211.5 82t-92.5 221z" />
<glyph unicode="&#x456;" horiz-adv-x="431" d="M116 0v1077h199v-1077h-199zM116 1217v208h202v-208h-202z" />
<glyph unicode="&#x457;" horiz-adv-x="417" d="M-46 1203v206h200v-206h-200zM114 0v1077h199v-1077h-199zM273 1203v206h201v-206h-201z" />
<glyph unicode="&#x458;" horiz-adv-x="418" d="M-35 -116q24 -5 52 -5q112 0 112 130v1068h200v-1089q0 -124 -70 -192t-193 -68q-68 0 -101 13v143zM129 1237v209h200v-209h-200z" />
<glyph unicode="&#x459;" horiz-adv-x="1227" d="M10 -9v149q25 0 45 5t36 13t28.5 25t22 35t17 49t12.5 60.5t9 76t6.5 89.5t6.5 108l24 476h564v-454h29q206 0 288 -66t82 -243q0 -171 -87 -240.5t-304 -73.5h-207v925h-191l-19 -354q-6 -130 -18 -222.5t-32.5 -157.5t-45 -104t-63.5 -60.5t-80 -28.5t-103 -7h-20z M781 117h12q119 0 163 42t44 156q0 105 -42.5 147.5t-164.5 42.5h-12v-388z" />
<glyph unicode="&#x45a;" horiz-adv-x="1174" d="M101 0v1077h199v-445h228v445h199v-454h26q110 -1 178.5 -15.5t116.5 -49.5t67.5 -93.5t19.5 -150.5q0 -172 -88 -241.5t-310 -72.5h-209v497h-228v-497h-199zM727 118h19q121 3 165.5 43.5t44.5 153.5q0 104 -42.5 145.5t-165.5 45.5h-21v-388z" />
<glyph unicode="&#x45b;" horiz-adv-x="851" d="M-18 1150v119h136v240h200v-240h263v-119h-263v-307q3 2 14 9.5t34 19.5t50 22t64 17.5t73 7.5q106 0 155 -53.5t49 -129.5v-736h-199v687q0 52 -18.5 77t-68.5 25q-31 0 -87.5 -20.5t-65.5 -28.5v-740h-200v1150h-136z" />
<glyph unicode="&#x45c;" horiz-adv-x="772" d="M101 0v1077h199v-454h57l202 454h205l-226 -521l229 -556h-208l-203 503h-56v-503h-199zM384 1203l110 369h199l-208 -369h-101z" />
<glyph unicode="&#x45d;" horiz-adv-x="850" d="M101 0v1077h167v-724l325 724h157v-1077h-165v731l-323 -731h-161zM168 1572h201l106 -369h-100z" />
<glyph unicode="&#x45e;" horiz-adv-x="738" d="M29 1077h186l105 -560l56 -340l44 339l89 561h194l-233 -1080q-15 -69 -40.5 -117.5t-57 -78t-78 -46.5t-92.5 -23t-111 -7v165q48 1 79.5 6.5t54.5 18t31.5 35.5t8 56.5t-11.5 82.5zM105 1480h116q1 -87 37 -125.5t108 -38.5t108 39t37 125h117q0 -277 -262 -277 q-260 0 -261 277z" />
<glyph unicode="&#x45f;" horiz-adv-x="830" d="M101 0v1077h199v-935h231v935h200v-1077h-232l-10 -275h-135l-17 275h-236z" />
<glyph unicode="&#x490;" horiz-adv-x="702" d="M118 0v1509h443v203h132v-359h-364v-1353h-211z" />
<glyph unicode="&#x491;" horiz-adv-x="552" d="M103 0v1077h323v176h110v-318h-235v-935h-198z" />
<glyph unicode="&#x4af;" horiz-adv-x="722" d="M22 1077h202l145 -713l140 713h202l-259 -1005v-390h-179v384z" />
<glyph unicode="&#x4b0;" horiz-adv-x="897" d="M23 1509h195l138 -376l93 -253l91 253l136 376h199l-307 -805h250v-143h-267v-561h-202v561h-260v143h243z" />
<glyph unicode="&#x4b1;" horiz-adv-x="745" d="M28 1077h202l145 -713l140 713h202l-249 -971h185v-132h-194v-292h-180v292h-197v132h187z" />
<glyph unicode="&#x4c0;" horiz-adv-x="461" d="M128 0v1509h207v-1509h-207z" />
<glyph unicode="&#x4e8;" horiz-adv-x="1004" d="M90 473v572q0 235 96 356.5t316 121.5t316.5 -122t96.5 -356v-573q0 -235 -97 -361.5t-316 -126.5q-113 0 -193.5 33.5t-127.5 99t-69 153t-22 203.5zM195 689h107v-261q0 -69 8 -116t28.5 -86t61 -58.5t102.5 -19.5t102.5 19.5t61.5 58.5t29 86t8 116v261h119v144h-119 v255q0 69 -8 114.5t-29 83.5t-61.5 56t-102.5 18t-102.5 -18t-61 -56t-28.5 -83.5t-8 -114.5v-255h-107v-144zM302 689h401v144h-401v-144z" />
<glyph unicode="&#x4e9;" horiz-adv-x="789" d="M81 382v312q0 95 16 165.5t51.5 124t97 81t149.5 27.5q170 0 242 -102t72 -296v-312q0 -194 -72 -295.5t-242 -101.5q-88 0 -149.5 27t-97 81t-51.5 124.5t-16 164.5zM176 498h104v-129q0 -34 0.5 -51.5t2.5 -47.5t6 -46t12.5 -36.5t20.5 -30.5t30.5 -17.5t42.5 -7.5 q27 0 47.5 8t32.5 27.5t19 37t10.5 50.5t4 53.5t0.5 60.5v129h108v124h-108v85q0 35 -0.5 52t-2.5 47t-6 46t-12 37t-20.5 31t-30.5 17.5t-42 7.5t-42.5 -7.5t-30.5 -17.5t-20.5 -31t-12.5 -37t-6 -46t-2.5 -47t-0.5 -52v-85h-104v-124zM280 498h229v124h-229v-124z" />
<glyph unicode="&#x2000;" horiz-adv-x="1001" />
<glyph unicode="&#x2001;" horiz-adv-x="2003" />
<glyph unicode="&#x2002;" horiz-adv-x="1001" />
<glyph unicode="&#x2003;" horiz-adv-x="2003" />
<glyph unicode="&#x2004;" horiz-adv-x="667" />
<glyph unicode="&#x2005;" horiz-adv-x="500" />
<glyph unicode="&#x2006;" horiz-adv-x="333" />
<glyph unicode="&#x2007;" horiz-adv-x="333" />
<glyph unicode="&#x2008;" horiz-adv-x="250" />
<glyph unicode="&#x2009;" horiz-adv-x="400" />
<glyph unicode="&#x200a;" horiz-adv-x="111" />
<glyph unicode="&#x2010;" d="M91 487v151h417v-151h-417z" />
<glyph unicode="&#x2011;" d="M91 487v151h417v-151h-417z" />
<glyph unicode="&#x2012;" d="M91 487v151h417v-151h-417z" />
<glyph unicode="&#x2013;" horiz-adv-x="1205" d="M91 487v151h1024v-151h-1024z" />
<glyph unicode="&#x2014;" horiz-adv-x="2229" d="M91 487v151h2048v-151h-2048z" />
<glyph unicode="&#x202f;" horiz-adv-x="400" />
<glyph unicode="&#x205f;" horiz-adv-x="500" />
<glyph unicode="&#x25fc;" horiz-adv-x="1078" d="M0 0v1078h1078v-1078h-1078z" />
</font>
</defs>
</svg>
