<?xml version="1.0" standalone="no"?>
<!DOCTYPE svg PUBLIC "-//W3C//DTD SVG 1.1//EN" "http://www.w3.org/Graphics/SVG/1.1/DTD/svg11.dtd" >
<svg xmlns="http://www.w3.org/2000/svg" xmlns:xlink="http://www.w3.org/1999/xlink" version="1.1">
<metadata></metadata>
<defs>
<font id="oswaldlight" horiz-adv-x="742" >
<font-face units-per-em="2048" ascent="1638" descent="-410" />
<missing-glyph horiz-adv-x="380" />
<glyph horiz-adv-x="0" />
<glyph unicode="&#xd;" horiz-adv-x="620" />
<glyph unicode=" "  horiz-adv-x="380" />
<glyph unicode="&#x09;" horiz-adv-x="380" />
<glyph unicode="&#xa0;" horiz-adv-x="380" />
<glyph unicode="!" horiz-adv-x="374" d="M114 0v163h145v-163h-145zM116 1509h145l-50 -1185h-48z" />
<glyph unicode="&#x22;" horiz-adv-x="663" d="M152 1068v441h131l-56 -441h-75zM410 1068v441h131l-57 -441h-74z" />
<glyph unicode="#" horiz-adv-x="867" d="M76 543v101h121l41 264h-138v101h154l77 500h133l-77 -500h184l78 500h133l-78 -500h95v-101h-109l-43 -264h129v-101h-144l-83 -543h-134l84 543h-184l-84 -543h-133l83 543h-105zM329 644h185l42 264h-184z" />
<glyph unicode="$" horiz-adv-x="868" d="M76 391l126 37q6 -60 16 -106t28.5 -90.5t45 -72.5t68 -45.5t95.5 -17.5q213 0 213 219q0 48 -12.5 90.5t-39 83t-56 73t-77.5 79.5l-267 256q-137 131 -137 304q0 149 85.5 233t234.5 90v158h59v-158q150 -8 229.5 -99t93.5 -283l-120 -31q-13 153 -66 229 q-51 73 -164 73h-11q-99 -3 -156 -52t-57 -148q0 -62 24.5 -112.5t82.5 -106.5l266 -252q102 -99 161.5 -199.5t59.5 -217.5q0 -152 -81.5 -240t-219.5 -101v-147h-57v145q-175 3 -264.5 110.5t-102.5 298.5z" />
<glyph unicode="%" horiz-adv-x="1364" d="M75 1042v209q0 139 53.5 212.5t174.5 73.5t174.5 -72t53.5 -208v-218q0 -286 -228 -286t-228 289zM199 1036q0 -85 23.5 -132t80.5 -47q58 0 81.5 47t23.5 132v223q0 82 -23 127t-82 45t-81.5 -45.5t-22.5 -128.5v-221zM384 0l478 1522h121l-477 -1522h-122zM833 279v210 q0 138 53.5 211.5t174.5 73.5q120 0 174 -71.5t54 -208.5v-218q0 -287 -228 -287t-228 290zM957 273q0 -86 23 -132.5t81 -46.5t81 47t23 133v221q0 84 -23 129t-81 45q-59 0 -81.5 -45.5t-22.5 -129.5v-221z" />
<glyph unicode="&#x26;" horiz-adv-x="1124" d="M106 325q0 115 58 221t184 228q-7 10 -19 30q-85 145 -121.5 228.5t-36.5 174.5q0 149 86 233.5t233 84.5q142 0 226 -72.5t84 -196.5q0 -118 -83.5 -238t-231.5 -255l290 -458q48 67 80.5 173t38.5 192h131q0 -103 -48 -232.5t-121 -219.5q76 -96 172 -96v-135 q-18 0 -35 3q-108 7 -218 139q-56 -65 -138.5 -106.5t-182.5 -41.5q-166 0 -257 97.5t-91 246.5zM244 325q0 -44 11 -83t34.5 -72.5t66 -53.5t99.5 -20q129 0 242 122l-294 458q-85 -93 -122 -178t-37 -173zM307 1208q0 -81 30.5 -162t97.5 -203q230 228 230 416 q0 72 -47 112.5t-129 40.5q-90 0 -136 -57.5t-46 -146.5z" />
<glyph unicode="'" horiz-adv-x="533" d="M152 1068v441h131l-56 -441h-75z" />
<glyph unicode="(" horiz-adv-x="517" d="M147 606q0 114 0.5 180.5t4.5 165t13 157t23 132t37.5 116.5t56 83.5t77.5 59.5t102 21v-96q-44 -4 -76.5 -33t-51.5 -93t-31 -121t-16.5 -167.5t-5.5 -179t-1 -207.5v-18v-25q0 -138 1 -206t5.5 -178.5t16.5 -166t31 -119t51.5 -91.5t76.5 -33v-95q-57 4 -102 23.5 t-77.5 61t-56 84t-37.5 116t-23 131.5t-13 155.5t-4.5 163.5t-0.5 179z" />
<glyph unicode=")" horiz-adv-x="478" d="M56 -213q45 5 77.5 33.5t52 92.5t31 121.5t16.5 168.5t5.5 179.5t0.5 207.5v18v6.5v5.5v6q0 139 -0.5 208t-5.5 179.5t-16.5 167t-31 120.5t-52 92t-77.5 33v95q58 -2 103.5 -21t77.5 -59.5t56 -83t38 -116t23 -132t12.5 -157t4.5 -164.5t1 -180q0 -130 -1 -204.5 t-7 -183.5t-18 -172t-35 -138t-56 -115t-83.5 -69.5t-115.5 -33.5v95z" />
<glyph unicode="*" horiz-adv-x="693" d="M66 1263l34 87l225 -111l-16 269h106l-17 -269l223 111l33 -87l-232 -93l163 -219l-84 -50l-141 237l-141 -237l-83 52l162 217z" />
<glyph unicode="+" horiz-adv-x="714" d="M44 723v103h258v292h105v-292h264v-103h-264v-294h-105v294h-258z" />
<glyph unicode="," horiz-adv-x="336" d="M92 -157q48 27 68.5 63.5t20.5 93.5h-82v203h153v-188q0 -91 -30 -143.5t-102 -88.5z" />
<glyph unicode="-" horiz-adv-x="555" d="M79 554v108h397v-108h-397z" />
<glyph unicode="." horiz-adv-x="338" d="M111 0v205h145v-205h-145z" />
<glyph unicode="/" horiz-adv-x="641" d="M46 0l429 1509h120l-429 -1509h-120z" />
<glyph unicode="0" horiz-adv-x="917" d="M99 427v655q0 443 360 443t360 -443v-655q0 -446 -360 -446t-360 446zM238 415q0 -324 221 -324t221 324v678q0 73 -10.5 128.5t-34.5 101.5t-69 70t-107.5 24t-106.5 -24t-69 -69.5t-35 -101.5t-10 -129v-678z" />
<glyph unicode="1" horiz-adv-x="796" d="M164 1228v111q65 17 140 62t121 108h110v-1509h-136v1328q-30 -43 -235 -100z" />
<glyph unicode="2" horiz-adv-x="903" d="M92 0v100l406 623q6 11 29 45t30 45t25.5 41.5t25.5 45.5t20.5 43t18.5 48.5t12.5 48t10 55t2.5 56.5q0 123 -51 191.5t-151 68.5q-68 0 -115 -23.5t-71.5 -68.5t-35 -98t-10.5 -124v-35h-135v38q0 212 87 318.5t274 106.5q168 0 256 -100t88 -283q0 -54 -11 -106.5 t-24.5 -91.5t-42 -91.5t-47 -81t-55.5 -84.5l-377 -571h524v-116h-683z" />
<glyph unicode="3" horiz-adv-x="891" d="M107 349v36h133v-30q2 -128 49 -194.5t155 -66.5q109 0 164 74.5t55 241.5q0 313 -224 321q-2 0 -19.5 0.5t-19.5 0.5v128h37q122 2 174 69t52 219q0 127 -46.5 196.5t-158.5 69.5q-114 0 -165 -63t-53 -199v-25h-133v34q0 174 85 269t266 95q171 0 258 -102t87 -275 q0 -153 -59 -242t-157 -112q93 -25 154.5 -119.5t61.5 -262.5q0 -202 -87 -316.5t-272 -114.5q-170 0 -253.5 97t-83.5 271z" />
<glyph unicode="4" horiz-adv-x="917" d="M94 439v142l426 929h165v-943h171v-128h-171v-439h-137v439h-454zM234 567h314v758z" />
<glyph unicode="5" horiz-adv-x="901" d="M126 389h137q0 -146 46.5 -221.5t158.5 -75.5q122 0 166 92t44 293q0 207 -46.5 292t-161.5 85q-121 0 -195 -127h-115v782h588l-3 -128h-464l-7 -523q80 100 231 100q162 0 235 -118.5t73 -346.5q0 -254 -82 -382t-268 -128q-177 0 -257 102t-80 304z" />
<glyph unicode="6" horiz-adv-x="915" d="M123 454v603q0 468 348 468q170 0 253.5 -87.5t85.5 -262.5q0 -1 0.5 -14.5t0.5 -14.5h-135q0 143 -46 204.5t-155 61.5q-216 0 -216 -325v-284q39 36 104.5 62.5t139.5 26.5q181 0 253.5 -105t72.5 -346q0 -460 -358 -460q-348 0 -348 473zM259 438q0 -180 51 -261 t161 -81q113 0 166 75.5t53 243.5q0 68 -3 114t-10.5 91.5t-22 73.5t-38.5 50t-59.5 31.5t-85.5 9.5q-60 0 -119.5 -27t-92.5 -59v-261z" />
<glyph unicode="7" horiz-adv-x="807" d="M107 1400v109h596v-67l-300 -1442h-133l294 1400h-457z" />
<glyph unicode="8" horiz-adv-x="903" d="M97 405q0 75 14 136t33 99t51 70t57 48t62 35q-201 82 -201 354q0 175 81.5 276.5t257.5 101.5t258 -102.5t82 -279.5q0 -268 -202 -350q37 -19 62 -35t57.5 -48.5t51.5 -70t32.5 -98.5t13.5 -136q0 -424 -355 -424t-355 424zM230 405q0 -161 55 -237.5t167 -76.5 t166.5 77t54.5 237q0 305 -221 323q-222 -18 -222 -323zM248 1148q0 -285 204 -294q205 9 205 294q0 267 -204.5 267t-204.5 -267z" />
<glyph unicode="9" horiz-adv-x="915" d="M102 1066q0 459 359 459q347 0 347 -472v-603q0 -469 -343 -469q-340 0 -345 353v27h135q0 -145 47 -205.5t165 -60.5q101 0 152.5 74.5t51.5 250.5v284q-32 -36 -94.5 -62t-148.5 -26q-182 0 -254 104.5t-72 345.5zM241 1092q0 -68 3 -114t10.5 -91.5t22 -73.5t38.5 -50 t59.5 -31.5t85.5 -9.5q132 0 211 87v260q0 181 -50 261.5t-160 80.5q-112 0 -166 -78t-54 -241z" />
<glyph unicode=":" horiz-adv-x="360" d="M129 156v199h145v-199h-145zM129 789v199h145v-199h-145z" />
<glyph unicode=";" horiz-adv-x="387" d="M119 8q52 22 70.5 52t18.5 87h-80v192h151v-177q0 -95 -29 -144t-103 -70zM128 822v204h144v-204h-144z" />
<glyph unicode="&#x3c;" horiz-adv-x="677" d="M54 495v135l517 391v-142l-412 -317l412 -307v-140z" />
<glyph unicode="=" horiz-adv-x="746" d="M95 531v109h557v-109h-557zM95 844v109h557v-109h-557z" />
<glyph unicode="&#x3e;" horiz-adv-x="677" d="M107 115v141l412 317l-412 307v141l517 -381v-135z" />
<glyph unicode="?" horiz-adv-x="883" d="M106 1252q0 108 68 178q94 98 265 98q160 0 258 -101.5t98 -291.5q0 -90 -23.5 -167.5t-72.5 -146.5t-108.5 -126.5t-146.5 -126.5v-193h-121v230q173 125 256.5 252.5t83.5 280.5q0 129 -64.5 200t-160.5 71q-107 0 -161 -60q-39 -43 -39 -108q0 -26 6 -55l13 -67 l-125 -26l-15 66q-11 49 -11 93zM318 1v161h135v-161h-135z" />
<glyph unicode="@" horiz-adv-x="1570" d="M109 584q0 186 38.5 338.5t106 259.5t162.5 181t207 109t241 36h5q161 -1 283 -52q124 -53 200 -151t111 -237q31 -119 31 -267q0 -23 -1 -46q-3 -111 -28.5 -202.5t-64.5 -152t-89 -101.5t-102 -59.5t-105 -18.5q-68 0 -118 47q-45 42 -45 115v11q-26 -76 -77.5 -126 t-127.5 -52h-15q-109 0 -175 82q-71 90 -71 244q0 157 59.5 292.5t159 214t211.5 78.5q71 0 131 -47l17 36h101l-94 -647q-5 -58 -5 -88q0 -33 15 -52q17 -21 53 -21q35 0 69 15t68 48.5t61 83t45 124.5t21 166q1 30 1 59q-1 290 -125 437q-136 160 -399 160h-7 q-134 -1 -248 -56.5t-197 -157.5t-129.5 -256t-46.5 -343q0 -161 35.5 -285t92.5 -199.5t140 -123t167.5 -65.5t183.5 -18q166 0 343 48l29 -100q-219 -54 -383 -54q-124 0 -230.5 25t-201 83t-160.5 148t-104.5 226.5t-38.5 310.5zM605 541q0 -117 43 -172q37 -49 93 -49 q8 0 16 1q60 4 109.5 57.5t78.5 150.5l67 470q-40 25 -87 25q-60 0 -117 -35.5t-102 -97t-73 -153.5t-28 -197z" />
<glyph unicode="A" horiz-adv-x="889" d="M51 0l318 1509h150l320 -1509h-139l-75 403h-360l-77 -403h-137zM285 507h321l-161 813z" />
<glyph unicode="B" horiz-adv-x="934" d="M131 0v1509h324q197 0 283.5 -97.5t86.5 -278.5q0 -78 -16 -141.5t-61 -113.5t-115 -64q64 -18 110 -56t71 -90.5t36 -109t11 -121.5q0 -77 -9.5 -138.5t-34 -118.5t-64.5 -95.5t-102.5 -61.5t-145.5 -23h-374zM274 106h205q141 0 192.5 76.5t51.5 253.5q0 313 -243 313 h-206v-643zM274 859h206q121 0 169 70t48 204q0 143 -61.5 205t-225.5 62h-136v-541z" />
<glyph unicode="C" horiz-adv-x="929" d="M101 454v600q0 87 10.5 156t37.5 129.5t69.5 100.5t109.5 62.5t155 22.5q99 0 169.5 -29.5t111 -87t59 -134t18.5 -177.5v-93h-135v88q0 80 -8 133.5t-31.5 99t-68.5 66.5t-114 21q-74 0 -123 -23.5t-73.5 -71.5t-33.5 -105t-9 -140v-641q0 -175 52 -255t187 -80 q56 0 96 15.5t64 42t38 70t19 89.5t5 109v99h135v-89q0 -83 -10 -149t-35 -124t-65 -96t-102.5 -60t-145.5 -22q-89 0 -157 24.5t-110 65.5t-68.5 103t-36.5 129t-10 151z" />
<glyph unicode="D" horiz-adv-x="970" d="M131 0v1509h330q92 0 162.5 -21t117 -58.5t75.5 -94t41.5 -122t12.5 -147.5v-600q0 -110 -20 -193t-65.5 -145.5t-123.5 -95t-189 -32.5h-341zM274 106h190q70 0 119 20t76.5 50.5t43 83t19.5 103t4 125.5v563q0 73 -6 124t-22.5 96t-46 72t-77.5 42t-114 15h-186v-1294z " />
<glyph unicode="E" d="M131 0v1509h545v-109h-402v-566h329v-105h-329v-623h407v-106h-550z" />
<glyph unicode="F" horiz-adv-x="718" d="M131 0v1509h544v-107h-401v-567h334v-105h-334v-730h-143z" />
<glyph unicode="G" horiz-adv-x="968" d="M101 460v589q0 115 17.5 198t59.5 148t118 97.5t186 32.5q196 0 280.5 -108.5t84.5 -325.5v-54h-134v54q0 169 -48 245t-181 76q-61 0 -104.5 -17.5t-69.5 -46t-41 -75.5t-20 -95.5t-5 -114.5v-620q0 -87 10.5 -147.5t37 -107.5t75 -69.5t120.5 -22.5q133 0 184.5 86 t51.5 265v178h-223v105h354v-730h-91l-18 171q-63 -191 -272 -191q-104 0 -178 33.5t-116 98.5t-60 150t-18 198z" />
<glyph unicode="H" horiz-adv-x="1022" d="M131 0v1509h143v-669h475v669h143v-1509h-143v735h-475v-735h-143z" />
<glyph unicode="I" horiz-adv-x="413" d="M137 0v1509h141v-1509h-141z" />
<glyph unicode="J" horiz-adv-x="519" d="M15 41q53 0 88 3.5t62.5 16t42 29t23.5 48.5t11.5 69t2.5 97v1205h143v-1214q0 -79 -7.5 -133t-26 -100.5t-52.5 -72.5t-87.5 -40.5t-129.5 -14.5h-70v107z" />
<glyph unicode="K" horiz-adv-x="881" d="M131 0v1509h143v-796l403 796h137l-313 -648l379 -861h-141l-343 786l-122 -225v-561h-143z" />
<glyph unicode="L" horiz-adv-x="712" d="M131 0v1509h143v-1403h429v-106h-572z" />
<glyph unicode="M" horiz-adv-x="1197" d="M118 0l39 1509h140l300 -1310l302 1310h143l37 -1509h-118l-29 1203l-289 -1203h-91l-284 1200l-30 -1200h-120z" />
<glyph unicode="N" horiz-adv-x="969" d="M131 0v1509h105l480 -1171v1171h122v-1509h-100l-484 1185v-1185h-123z" />
<glyph unicode="O" horiz-adv-x="977" d="M101 446v626q0 106 19.5 186.5t63.5 141.5t120.5 93t184 32t184 -32t120.5 -93.5t63.5 -141.5t19.5 -186v-628q0 -85 -11 -153t-39 -127t-71.5 -99t-111 -62t-154.5 -22q-110 0 -186.5 33t-120 97.5t-62.5 146t-19 188.5zM245 415q0 -76 10.5 -131t36.5 -99.5t75 -66.5 t121.5 -22t122 22t75.5 66.5t36.5 99.5t10.5 131v682q0 77 -10.5 131t-36.5 98t-75.5 65t-122 21t-121.5 -21t-75 -65t-36.5 -98t-10.5 -131v-682z" />
<glyph unicode="P" horiz-adv-x="900" d="M131 0v1509h362q99 0 170 -28.5t112 -82.5t59.5 -125t18.5 -164q0 -83 -19.5 -153t-61 -125t-112 -86t-165.5 -31h-221v-714h-143zM274 820h181q139 0 198.5 64t59.5 224q0 174 -52.5 234.5t-203.5 60.5h-183v-583z" />
<glyph unicode="Q" horiz-adv-x="987" d="M101 446v626q0 106 20.5 187t65.5 141.5t122 92.5t184.5 32t184 -32t121.5 -93t65.5 -141.5t20.5 -186.5v-628q0 -85 -12 -153t-39 -126t-74 -98.5t-111 -61.5q40 -51 90 -106t84 -76l-19 -119q-103 50 -263 280q-24 -3 -48 -3q-109 0 -187 33t-122 97.5t-63.5 146 t-19.5 188.5zM245 415q0 -76 11 -131.5t38 -99.5t76.5 -66t122.5 -22t122.5 22t77 66t38.5 99.5t11 131.5v682q0 77 -11 131t-38.5 98t-77 65t-122.5 21t-122.5 -21t-76.5 -65t-38 -98t-11 -131v-682z" />
<glyph unicode="R" horiz-adv-x="954" d="M131 0v1509h343q201 0 287.5 -97t86.5 -285q0 -312 -210 -355l234 -772h-140l-221 742h-237v-742h-143zM274 846h192q136 0 190 67t54 214q0 146 -51 210.5t-189 64.5h-196v-556z" />
<glyph unicode="S" horiz-adv-x="857" d="M76 391l126 37q6 -60 16 -106t28.5 -90.5t45 -72.5t68 -45.5t95.5 -17.5q213 0 213 219q0 48 -12.5 90.5t-39 83t-56 73t-77.5 79.5l-267 256q-137 131 -137 304q0 154 91.5 238.5t248.5 85.5h6q165 0 252 -89q89 -91 104 -294l-120 -31q-13 153 -66 229q-51 73 -164 73 h-11q-99 -3 -156 -52t-57 -148q0 -62 24.5 -112.5t82.5 -106.5l266 -252q102 -99 161.5 -199.5t59.5 -217.5q0 -165 -95 -254t-252 -89q-179 0 -271.5 107.5t-106.5 301.5z" />
<glyph unicode="T" horiz-adv-x="723" d="M-9 1400v109h742v-109h-296v-1400h-143v1400h-303z" />
<glyph unicode="U" horiz-adv-x="1001" d="M116 412v1097h137v-1101q0 -57 6.5 -101.5t22.5 -85t43.5 -67.5t72 -42.5t103.5 -15.5q71 0 121 23t76.5 67t38.5 98t12 124v1101h136v-1097q0 -79 -10.5 -142t-38 -118.5t-70.5 -92t-110 -57.5t-155 -21q-90 0 -158 21t-111 57.5t-69.5 92t-36.5 118t-10 142.5z" />
<glyph unicode="V" horiz-adv-x="912" d="M46 1509h135l285 -1249l268 1249h134l-340 -1509h-129z" />
<glyph unicode="W" horiz-adv-x="1332" d="M65 1508l122 1l198 -1225l228 1202h118l232 -1204l185 1227h120l-244 -1509h-111l-240 1246l-237 -1246h-115z" />
<glyph unicode="X" horiz-adv-x="863" d="M26 0l326 786l-322 724h131l271 -603l260 603h136l-335 -741l344 -769h-134l-286 637l-254 -637h-137z" />
<glyph unicode="Y" horiz-adv-x="874" d="M32 1509h139l271 -838l261 838h140l-332 -1008v-501h-139v501z" />
<glyph unicode="Z" horiz-adv-x="758" d="M63 0v107l506 1295h-465v107h617v-74l-518 -1329h520v-106h-660z" />
<glyph unicode="[" horiz-adv-x="563" d="M131 -298v1807h325v-76h-188v-1654h188v-77h-325z" />
<glyph unicode="\" horiz-adv-x="641" d="M46 1509h120l429 -1509h-120z" />
<glyph unicode="]" horiz-adv-x="531" d="M76 -221h187v1653h-187v77h324v-1806h-324v76z" />
<glyph unicode="^" horiz-adv-x="735" d="M54 953l243 556h143l242 -556h-123l-191 461l-191 -461h-123z" />
<glyph unicode="_" horiz-adv-x="619" d="M0 -91h620v-107h-620v107z" />
<glyph unicode="`" horiz-adv-x="438" d="M98 1509h138l103 -364h-70z" />
<glyph unicode="a" horiz-adv-x="739" d="M74 225q0 53 9 95.5t34 80t54.5 66t84 61t109.5 59.5t143 66v78q0 148 -28.5 204t-105.5 56q-149 0 -149 -185v-39l-135 5q0 26 1 32q6 152 79 221t211 69q143 0 203 -84.5t60 -271.5v-524q0 -130 10 -214h-121l-20 149q-24 -71 -83 -118.5t-140 -47.5q-94 0 -155 69.5 t-61 172.5zM210 257q0 -80 35.5 -118.5t89.5 -38.5t100 38t73 90v335q-6 -2 -18 -9q-44 -23 -67.5 -36t-57 -32t-50 -32t-37.5 -31t-30.5 -34t-20 -37t-14 -44t-3.5 -51z" />
<glyph unicode="b" horiz-adv-x="775" d="M106 0v1509h136v-521q86 106 206 106q60 0 105 -24.5t71 -64t42 -97.5t21 -115t5 -129v-227q0 -86 -7.5 -153t-25.5 -125t-47.5 -96t-74 -59t-103.5 -21q-106 0 -192 103v-86h-136zM242 169q75 -78 169 -78q87 0 115.5 80.5t28.5 263.5v229q0 173 -28.5 247.5 t-116.5 74.5q-83 0 -168 -82v-735z" />
<glyph unicode="c" horiz-adv-x="724" d="M84 409v251q0 117 12.5 195t45 133.5t88.5 80.5t141 25q68 0 117 -16.5t79.5 -45t48 -73t24.5 -94.5t7 -116v-51h-126v51q0 138 -33 190.5t-115 52.5q-93 0 -123 -66t-30 -244v-302q0 -165 32.5 -229.5t121.5 -64.5q38 0 64.5 10.5t42.5 30t25 53t12 71t3 95.5v59h126 v-53q0 -71 -6 -123t-23.5 -100.5t-47 -79t-80 -48.5t-118.5 -18q-74 0 -126.5 21.5t-83.5 56.5t-48.5 92.5t-23.5 116.5t-6 139z" />
<glyph unicode="d" horiz-adv-x="768" d="M84 435v199q0 89 6 156.5t23.5 126.5t45.5 96.5t73 59t106 21.5q106 -1 190 -94v509h136v-1509h-136v76q-82 -92 -184 -93q-139 0 -199.5 104.5t-60.5 347.5zM220 424q0 -176 31 -254.5t120 -78.5q79 0 157 71v748q-82 76 -160 76q-87 0 -117.5 -72t-30.5 -236v-254z" />
<glyph unicode="e" horiz-adv-x="736" d="M84 405v272q0 157 32 249.5t94.5 130t165.5 37.5q68 0 116.5 -18t80 -50.5t50.5 -88.5t26 -124t7 -163l-1 -98h-435v-161q0 -167 32.5 -236t121.5 -69q71 0 109 45t38 163v75h134v-61q0 -156 -65.5 -240.5t-214.5 -84.5q-155 0 -223 95.5t-68 326.5zM220 631h301v89 q0 56 -2.5 93.5t-11 74.5t-24 57.5t-43 33.5t-65.5 13q-87 0 -121 -60t-34 -229v-72z" />
<glyph unicode="f" horiz-adv-x="499" d="M33 978v99h140v112q0 45 2 77t9 65.5t20 55.5t34.5 40.5t54.5 27t76 8.5q50 0 111 -12v-102q-65 10 -77 10q-58 0 -76.5 -35t-18.5 -120v-127h175v-99h-175v-978h-135v978h-140z" />
<glyph unicode="g" horiz-adv-x="803" d="M31 -172q0 78 52 143t126 105q-49 13 -84.5 39t-35.5 56q0 86 128 218q-134 98 -134 329q0 78 18 145t54 119.5t94.5 82t133.5 29.5q163 0 232 -134q17 30 58 65t88 55l28 12l36 -96q-44 -10 -99 -38.5t-78 -54.5q14 -33 24 -91.5t10 -97.5q0 -173 -71 -274.5 t-226 -101.5q-25 0 -60.5 5.5t-48.5 11.5q-3 -5 -20.5 -31t-26.5 -40.5t-18 -35t-9 -33.5q0 -27 90 -41q19 -6 91 -16.5t82 -12.5q133 -24 201 -83t68 -166q0 -128 -90 -189t-245 -61q-85 0 -150 9t-115 30t-76.5 57t-26.5 86zM148 -127q0 -62 58.5 -90t191.5 -28 q105 0 166.5 34t61.5 104q0 59 -42 91.5t-161 54.5l-138 18q-137 -84 -137 -184zM205 718q0 -282 180 -282q45 0 79 17t52 43.5t29 66t14 74.5t3 81q0 278 -176 278q-43 0 -76 -17.5t-52.5 -45t-32 -65.5t-16.5 -74t-4 -76z" />
<glyph unicode="h" horiz-adv-x="768" d="M106 0v1509h137v-545q121 130 261 130q81 0 124 -59.5t43 -170.5v-864h-138v835q0 82 -24.5 116.5t-77.5 34.5q-88 0 -188 -100v-886h-137z" />
<glyph unicode="i" horiz-adv-x="380" d="M119 0v1077h137v-1077h-137zM119 1226v185h138v-185h-138z" />
<glyph unicode="j" horiz-adv-x="396" d="M-31 -172q9 -3 46 -3q33 0 57 8.5t37.5 21.5t21 33.5t10 40t2.5 46.5v1102h136v-1114q0 -125 -61.5 -185t-175.5 -60q-57 0 -73 6v104zM143 1226v185h137v-185h-137z" />
<glyph unicode="k" horiz-adv-x="746" d="M106 2v1509h136v-960l360 526h145l-272 -415l258 -662h-136l-227 586l-128 -178v-406h-136z" />
<glyph unicode="l" horiz-adv-x="376" d="M123 0v1509h137v-1509h-137z" />
<glyph unicode="m" horiz-adv-x="1200" d="M104 0v1077h128v-109q108 129 254 129q135 0 169 -142q113 142 266 142q80 0 131.5 -58t51.5 -189v-850h-129v846q0 89 -27.5 123.5t-78.5 34.5q-103 -2 -203 -112q2 -28 2 -42v-850h-127v846q0 89 -28.5 123.5t-79.5 34.5q-103 -2 -201 -112v-892h-128z" />
<glyph unicode="n" horiz-adv-x="762" d="M104 0v1077h136v-111q119 128 260 128q80 0 122.5 -59.5t42.5 -170.5v-864h-136v835q0 82 -25 116.5t-78 34.5q-88 0 -186 -99v-887h-136z" />
<glyph unicode="o" d="M84 389v299q0 206 63.5 306t223.5 100q161 0 224.5 -99.5t63.5 -306.5v-299q0 -101 -13.5 -173.5t-46 -126.5t-89 -80t-139.5 -26t-139 26t-88.5 80t-46 126.5t-13.5 173.5zM220 382q0 -50 2 -83t6.5 -70.5t14.5 -60.5t26.5 -43.5t42 -29.5t59.5 -9q41 0 69.5 15t44 37.5 t24 64.5t10.5 80t2 99v313q0 61 -2 99.5t-10.5 80t-24 64.5t-44 38t-69.5 15q-34 0 -59.5 -9t-42 -29.5t-26.5 -44t-15 -60.5t-6.5 -70.5t-1.5 -83.5v-313z" />
<glyph unicode="p" horiz-adv-x="778" d="M105 -355v1432h136v-90q87 107 207 107q60 0 105 -24.5t71 -64t42 -97.5t21 -115t5 -129v-227q0 -86 -7.5 -153t-25.5 -125t-48 -96t-74.5 -59t-103.5 -21q-104 0 -192 103v-441h-136zM241 169q75 -78 170 -78q37 0 62.5 15t41.5 41t25 70.5t12 95t3 122.5v229 q0 173 -29 247.5t-117 74.5q-83 0 -168 -82v-735z" />
<glyph unicode="q" horiz-adv-x="771" d="M87 435v199q0 89 6.5 156.5t24 126.5t45.5 96.5t72.5 59t105.5 21.5q109 -1 190 -95v78h137v-1432h-137v432q-81 -93 -183 -94q-140 0 -200.5 104.5t-60.5 347.5zM224 424q0 -176 31 -254.5t120 -78.5q81 0 156 72v747q-82 76 -160 76q-86 0 -116.5 -72t-30.5 -236v-254z " />
<glyph unicode="r" horiz-adv-x="555" d="M115 0v1077h136v-148q49 82 115 121t134 39q16 0 23 -1v-147q-29 12 -65 12q-131 0 -207 -126v-827h-136z" />
<glyph unicode="s" horiz-adv-x="676" d="M57 289l115 35q11 -123 56.5 -180.5t127.5 -57.5q71 0 112 41q39 40 39 108v6q-3 108 -131 215l-147 125q-77 64 -113 126q-34 60 -34 140q0 119 71 183q69 64 186 64q120 0 184 -76.5t71 -206.5l-96 -32q-7 108 -44.5 160.5t-108.5 52.5q-64 0 -102 -36q-37 -34 -37 -92 q0 -53 19 -91t70 -81l152 -137q41 -35 67 -62t55 -66.5t43 -85.5t15 -99q0 -124 -74.5 -191.5t-202.5 -67.5t-205 82.5t-88 223.5z" />
<glyph unicode="t" horiz-adv-x="521" d="M35 986v91h130v333h136v-333h179v-91h-179v-749q0 -82 19 -112.5t78 -30.5q37 0 76 7v-103q-61 -12 -115 -12q-110 0 -151.5 60.5t-42.5 177.5v762h-130z" />
<glyph unicode="u" horiz-adv-x="767" d="M96 214v863h137v-835q0 -82 24.5 -116.5t77.5 -34.5q92 0 191 106v880h136v-1077h-136v119q-120 -135 -264 -135q-81 0 -123.5 60t-42.5 170z" />
<glyph unicode="v" horiz-adv-x="685" d="M33 1077h138l176 -920l173 920h132l-223 -1077h-161z" />
<glyph unicode="w" horiz-adv-x="1071" d="M58 1077h117l134 -900l170 900h117l171 -896l130 896h116l-174 -1077h-128l-171 876l-169 -876h-137z" />
<glyph unicode="x" horiz-adv-x="707" d="M30 0l255 563l-243 514h135l185 -395l177 395h137l-252 -529l257 -548h-130l-202 424l-187 -424h-132z" />
<glyph unicode="y" horiz-adv-x="709" d="M36 1077h137l187 -916l181 916h137l-261 -1154q-24 -103 -96.5 -147t-210.5 -44h-35v106q98 0 147 15.5t62 43.5q8 18 9 47q0 16 -3 35q-4 34 -32 149q-21 90 -118.5 509t-103.5 440z" />
<glyph unicode="z" horiz-adv-x="621" d="M60 0v96l367 878h-329v103h473v-81l-365 -892h357v-104h-503z" />
<glyph unicode="{" horiz-adv-x="480" d="M71 560v105q35 0 55.5 10t32.5 39.5t16 75t4 125.5v233q0 70 1 111t5 86t11 67.5t21 46.5t32 33.5t47.5 18.5t63.5 10.5t84 1.5v-102q-92 0 -108.5 -39t-16.5 -234v-262q0 -92 -12 -149t-35.5 -85.5t-62.5 -39.5q39 -10 62.5 -38.5t35.5 -85.5t12 -149v-270 q0 -196 16.5 -235t108.5 -39v-103q-50 0 -84 2t-63.5 11t-47.5 18t-32 33.5t-21 46.5t-11 67t-5 86.5t-1 112.5v240q0 80 -4 125.5t-16 75.5t-32.5 40t-55.5 10z" />
<glyph unicode="|" horiz-adv-x="404" d="M138 -268l1 1778l128 -1l-1 -1777h-128z" />
<glyph unicode="}" horiz-adv-x="502" d="M58 -205q92 0 108.5 39t16.5 235v270q0 92 12 149t35.5 85.5t62.5 38.5q-39 11 -62.5 39.5t-35.5 85.5t-12 149v262q0 195 -16.5 234t-108.5 39v102q40 0 69 -1t55.5 -6t44 -10.5t33.5 -19.5t25 -26t16.5 -37t11.5 -47.5t6 -62t2.5 -74.5t0.5 -91v-233q0 -80 4 -125.5 t16.5 -75t32.5 -39.5t55 -10v-105q-35 0 -55 -10t-32.5 -40t-16.5 -75.5t-4 -125.5v-240q0 -56 -0.5 -91.5t-2.5 -75t-6 -62t-11.5 -47.5t-16.5 -37.5t-25 -26t-33.5 -19t-44 -10.5t-55.5 -6.5t-69 -1.5v103z" />
<glyph unicode="~" horiz-adv-x="758" d="M72 791q45 50 96 83.5t90 33.5q40 0 131.5 -51t122.5 -51q18 0 38.5 9.5t36.5 21.5t50 38l49 -62q-109 -115 -179 -115q-42 0 -134 52t-124 52q-45 0 -128 -75z" />
<glyph unicode="&#xad;" horiz-adv-x="555" d="M79 554v108h397v-108h-397z" />
<glyph unicode="&#x400;" d="M131 0v1509h545v-109h-402v-566h329v-105h-329v-623h407v-106h-550zM199 2000h139l103 -364h-70z" />
<glyph unicode="&#x401;" d="M131 0v1509h545v-109h-402v-566h329v-105h-329v-623h407v-106h-550zM183 1636v165h140v-165h-140zM489 1636v165h140v-165h-140z" />
<glyph unicode="&#x402;" horiz-adv-x="946" d="M-24 1400v109h667v-109h-273v-584q34 33 88.5 52t114.5 19q55 0 105 -16.5t92.5 -50.5t67.5 -91.5t25 -133.5v-231q0 -187 -85.5 -275.5t-256.5 -88.5h-24v106q128 0 178.5 65.5t50.5 193.5v230q0 88 -49 140t-131 52q-89 0 -176 -57v-730h-140v1400h-254z" />
<glyph unicode="&#x403;" horiz-adv-x="699" d="M131 0v1509h536v-109h-393v-1400h-143zM364 1636l116 364h137l-183 -364h-70z" />
<glyph unicode="&#x404;" horiz-adv-x="914" d="M101 454v600q0 87 10.5 156t37.5 129.5t69.5 100.5t109.5 62.5t155 22.5q99 0 169.5 -29.5t111 -87t59 -134t18.5 -177.5v-57h-135v52q0 80 -8 133.5t-31.5 99t-68.5 66.5t-114 21q-74 0 -123 -23.5t-73.5 -71.5t-33.5 -105t-9 -140v-228h383v-103h-383v-310 q0 -175 52 -255t187 -80q56 0 96 15.5t64 42t38 70t19 89.5t5 109v71h135v-61q0 -83 -10 -149t-35 -124t-65 -96t-102.5 -60t-145.5 -22q-89 0 -157 24.5t-110 65.5t-68.5 103t-36.5 129t-10 151z" />
<glyph unicode="&#x405;" horiz-adv-x="857" d="M76 391l126 37q6 -60 16 -106t28.5 -90.5t45 -72.5t68 -45.5t95.5 -17.5q213 0 213 219q0 48 -12.5 90.5t-39 83t-56 73t-77.5 79.5l-267 256q-137 131 -137 304q0 154 91.5 238.5t248.5 85.5h6q165 0 252 -89q89 -91 104 -294l-120 -31q-13 153 -66 229q-51 73 -164 73 h-11q-99 -3 -156 -52t-57 -148q0 -62 24.5 -112.5t82.5 -106.5l266 -252q102 -99 161.5 -199.5t59.5 -217.5q0 -165 -95 -254t-252 -89q-179 0 -271.5 107.5t-106.5 301.5z" />
<glyph unicode="&#x406;" horiz-adv-x="413" d="M137 0v1509h141v-1509h-141z" />
<glyph unicode="&#x407;" horiz-adv-x="413" d="M-15 1636v165h140v-165h-140zM137 0v1509h141v-1509h-141zM290 1636v165h140v-165h-140z" />
<glyph unicode="&#x408;" horiz-adv-x="519" d="M15 41q53 0 88 3.5t62.5 16t42 29t23.5 48.5t11.5 69t2.5 97v1205h143v-1214q0 -79 -7.5 -133t-26 -100.5t-52.5 -72.5t-87.5 -40.5t-129.5 -14.5h-70v107z" />
<glyph unicode="&#x409;" horiz-adv-x="1527" d="M35 -4v110h16q36 0 64 7q32 8 57.5 34.5t41.5 62.5t29 104t21 144t17 197l59 854h587v-633h111q225 0 329.5 -104.5t104.5 -338.5q0 -212 -102.5 -322.5t-324.5 -110.5h-261v1401h-315l-55 -746q-8 -109 -16.5 -186.5t-21.5 -152t-30.5 -122.5t-42.5 -89.5t-59 -64.5 q-35 -22 -78 -34q-41 -11 -93 -11h-8zM927 109h119q156 0 222 75t66 251q0 169 -65.5 250.5t-223.5 81.5h-118v-658z" />
<glyph unicode="&#x40a;" horiz-adv-x="1418" d="M131 1v1510h143v-638h408v638h143v-635h111q225 0 329.5 -104.5t104.5 -338.5q0 -212 -102.5 -322.5t-324.5 -110.5l-261 1v766h-408v-766h-143zM825 109h120q155 0 221 75t66 251q0 169 -65.5 250.5t-223.5 81.5h-118v-658z" />
<glyph unicode="&#x40b;" horiz-adv-x="859" d="M-69 1400v109h695v-109h-283v-585q28 26 83.5 48.5t126.5 22.5q89 0 149.5 -46t60.5 -140v-700h-137v677q0 123 -111 123q-94 0 -172 -72v-728h-140v1400h-272z" />
<glyph unicode="&#x40c;" horiz-adv-x="900" d="M131 0v1509h143v-693h107l308 693h145l-328 -726l378 -783h-144l-358 740h-108v-740h-143zM472 1636l117 364h136l-183 -364h-70z" />
<glyph unicode="&#x40d;" horiz-adv-x="986" d="M131 0v1509h127v-1196l488 1196h109v-1509h-126v1202l-486 -1202h-112zM287 2000h138l104 -364h-70z" />
<glyph unicode="&#x40e;" horiz-adv-x="842" d="M52 1509h137l156 -677l100 -485l88 487l138 675h139l-289 -1325q-3 -17 -10 -51q-14 -71 -25 -116t-28.5 -86.5t-42.5 -64t-66 -38.5t-99 -21q-32 -3 -72 -3q-32 0 -70 2l1 111q37 -2 66 -2q22 0 40 1q42 3 72.5 17.5t46 30.5t25 54t12 72.5t3.5 99.5zM197 1869h87 q4 -151 145.5 -151t148.5 151h87q-3 -112 -62.5 -172.5t-172.5 -60.5q-112 0 -171 60.5t-62 172.5z" />
<glyph unicode="&#x40f;" horiz-adv-x="977" d="M131 0v1509h143v-1404h429v1404h143v-1509h-281l-11 -259h-108l-12 259h-303z" />
<glyph unicode="&#x410;" horiz-adv-x="889" d="M51 0l318 1509h150l320 -1509h-139l-75 403h-360l-77 -403h-137zM285 507h321l-161 813z" />
<glyph unicode="&#x411;" horiz-adv-x="892" d="M131 0v1509h605v-106h-462v-527h121q224 0 329 -104.5t105 -338.5q0 -212 -103 -322.5t-325 -110.5h-270zM274 109h129q155 0 221 75t66 251q0 170 -65.5 251t-224.5 81h-126v-658z" />
<glyph unicode="&#x412;" horiz-adv-x="934" d="M131 0v1509h324q197 0 283.5 -97.5t86.5 -278.5q0 -78 -16 -141.5t-61 -113.5t-115 -64q64 -18 110 -56t71 -90.5t36 -109t11 -121.5q0 -77 -9.5 -138.5t-34 -118.5t-64.5 -95.5t-102.5 -61.5t-145.5 -23h-374zM274 106h205q141 0 192.5 76.5t51.5 253.5q0 313 -243 313 h-206v-643zM274 859h206q121 0 169 70t48 204q0 143 -61.5 205t-225.5 62h-136v-541z" />
<glyph unicode="&#x413;" horiz-adv-x="699" d="M131 0v1509h536v-109h-393v-1400h-143z" />
<glyph unicode="&#x414;" horiz-adv-x="1095" d="M18 106h59q31 22 49 37t42.5 46.5t39 70.5t33 105t31 154.5t25.5 214t24 287.5l33 488h569v-1403h123v-365h-111l-14 259h-778l-13 -259h-112v365zM222 106h558v1295h-300l-29 -411q-20 -311 -49 -493q-36 -232 -102 -318q-22 -30 -78 -73z" />
<glyph unicode="&#x415;" d="M131 0v1509h545v-109h-402v-566h329v-105h-329v-623h407v-106h-550z" />
<glyph unicode="&#x416;" horiz-adv-x="1188" d="M27 0l375 782l-339 727h137l319 -719h12v719h126v-719h13l318 719h138l-340 -727l375 -782h-140l-347 763h-17v-763h-126v763h-17l-347 -763h-140z" />
<glyph unicode="&#x417;" horiz-adv-x="871" d="M89 1127v34q0 172 88 268t270 96q173 0 265 -103t92 -275q0 -153 -60.5 -243.5t-158.5 -113.5q44 -12 81 -39.5t69 -71.5t50.5 -112.5t18.5 -155.5q0 -98 -20.5 -175.5t-62.5 -135t-111.5 -88.5t-164.5 -31q-170 0 -253.5 97t-83.5 271v36h133q0 -33 1 -42 q2 -122 49.5 -185.5t153.5 -63.5q109 0 164 74t55 242q0 312 -257 323h-80v108h78q141 4 200 78.5t59 228.5q0 266 -213 266q-113 0 -168.5 -61.5t-59.5 -191.5q-1 -8 -1 -34h-133z" />
<glyph unicode="&#x418;" horiz-adv-x="986" d="M131 0v1509h127v-1196l488 1196h109v-1509h-126v1202l-486 -1202h-112z" />
<glyph unicode="&#x419;" horiz-adv-x="986" d="M131 0v1509h127v-1196l488 1196h109v-1509h-126v1202l-486 -1202h-112zM259 1869h87q3 -151 145 -151t149 151h87q-3 -112 -62.5 -172.5t-173.5 -60.5q-112 0 -170.5 60.5t-61.5 172.5z" />
<glyph unicode="&#x41a;" horiz-adv-x="900" d="M131 0v1509h143v-693h107l308 693h145l-328 -726l378 -783h-144l-358 740h-108v-740h-143z" />
<glyph unicode="&#x41b;" horiz-adv-x="1054" d="M31 -4v110q32 1 49 3t40 8.5t35 16t28 30.5t24.5 47t19.5 69.5t18 94.5t16 125.5t16 158.5t16 198l45 652h587v-1509h-143v1401h-317l-36 -545q-12 -154 -20.5 -243t-21.5 -191t-25.5 -153.5t-34 -109.5t-46 -82t-62.5 -47t-83 -28q-38 -6 -89 -6h-16z" />
<glyph unicode="&#x41c;" horiz-adv-x="1197" d="M118 0l39 1509h131l309 -1276l311 1276h134l37 -1509h-116l-27 1158l-293 -1158h-91l-290 1156l-26 -1156h-118z" />
<glyph unicode="&#x41d;" horiz-adv-x="1022" d="M131 0v1509h143v-669h475v669h143v-1509h-143v735h-475v-735h-143z" />
<glyph unicode="&#x41e;" horiz-adv-x="977" d="M101 446v626q0 106 19.5 186.5t63.5 141.5t120.5 93t184 32t184 -32t120.5 -93.5t63.5 -141.5t19.5 -186v-628q0 -85 -11 -153t-39 -127t-71.5 -99t-111 -62t-154.5 -22q-110 0 -186.5 33t-120 97.5t-62.5 146t-19 188.5zM245 415q0 -76 10.5 -131t36.5 -99.5t75 -66.5 t121.5 -22t122 22t75.5 66.5t36.5 99.5t10.5 131v682q0 77 -10.5 131t-36.5 98t-75.5 65t-122 21t-121.5 -21t-75 -65t-36.5 -98t-10.5 -131v-682z" />
<glyph unicode="&#x41f;" horiz-adv-x="1034" d="M131 0v1509h773v-1509h-143v1404h-487v-1404h-143z" />
<glyph unicode="&#x420;" horiz-adv-x="890" d="M131 0v1509h362q99 0 170 -28.5t112 -82.5t59.5 -125t18.5 -164q0 -83 -19.5 -153t-61 -125t-112 -86t-165.5 -31h-221v-714h-143zM274 820h181q139 0 198.5 64t59.5 224q0 174 -52.5 234.5t-203.5 60.5h-183v-583z" />
<glyph unicode="&#x421;" horiz-adv-x="929" d="M101 454v600q0 87 10.5 156t37.5 129.5t69.5 100.5t109.5 62.5t155 22.5q99 0 169.5 -29.5t111 -87t59 -134t18.5 -177.5v-93h-135v88q0 80 -8 133.5t-31.5 99t-68.5 66.5t-114 21q-74 0 -123 -23.5t-73.5 -71.5t-33.5 -105t-9 -140v-641q0 -175 52 -255t187 -80 q56 0 96 15.5t64 42t38 70t19 89.5t5 109v99h135v-89q0 -83 -10 -149t-35 -124t-65 -96t-102.5 -60t-145.5 -22q-89 0 -157 24.5t-110 65.5t-68.5 103t-36.5 129t-10 151z" />
<glyph unicode="&#x422;" horiz-adv-x="723" d="M-9 1400v109h742v-109h-296v-1400h-143v1400h-303z" />
<glyph unicode="&#x423;" horiz-adv-x="842" d="M52 1509h137l156 -677l100 -485l88 487l138 675h139l-289 -1325q-3 -17 -10 -51q-14 -71 -25 -116t-28.5 -86.5t-42.5 -64t-66 -38.5t-99 -21q-32 -3 -72 -3q-32 0 -70 2l1 111q37 -2 66 -2q22 0 40 1q42 3 72.5 17.5t46 30.5t25 54t12 72.5t3.5 99.5z" />
<glyph unicode="&#x424;" horiz-adv-x="1153" d="M101 556v417q0 206 84 305q79 92 232 92h17q42 0 69 -1v276h143v-276q24 2 80 2h17q151 0 228 -92q82 -99 82 -306v-417q-1 -204 -81 -298q-74 -88 -216 -88q-13 0 -25 1q-50 0 -85 4v-265h-143v265q-34 -4 -81 -4q-12 -1 -25 -1q-140 -1 -215 87q-80 94 -81 299z M234 556q1 -165 44 -231q42 -63 154 -63h13q34 0 58 3v1013q-22 2 -53 2h-12q-114 0 -158 -68q-45 -72 -46 -239v-417zM646 265q25 -3 64 -3h13q111 0 153 63q45 66 45 231v417q0 167 -46 239q-43 68 -159 68h-12q-14 0 -58 -2v-1013z" />
<glyph unicode="&#x425;" horiz-adv-x="863" d="M26 0l326 786l-322 724h131l271 -603l260 603h136l-335 -741l344 -769h-134l-286 637l-254 -637h-137z" />
<glyph unicode="&#x426;" horiz-adv-x="1081" d="M131 0v1509h143v-1404h496v1404h143v-1404h119v-364h-113l-14 259h-774z" />
<glyph unicode="&#x427;" horiz-adv-x="963" d="M98 1003v506h132v-505q0 -130 67 -183.5t195 -53.5q101 0 198 29v713h143v-1509h-143v699q-122 -30 -222 -30q-370 0 -370 334z" />
<glyph unicode="&#x428;" horiz-adv-x="1341" d="M131 0v1509h143v-1403h332v1403h143v-1403h318v1403h143v-1509h-1079z" />
<glyph unicode="&#x429;" horiz-adv-x="1381" d="M131 0v1509h143v-1404h332v1404h143v-1404h319v1404h143v-1404h121v-364h-113l-13 259h-1075z" />
<glyph unicode="&#x42a;" horiz-adv-x="1027" d="M11 1399v110h408v-633h127q225 0 329.5 -104.5t104.5 -338.5q0 -212 -103 -322.5t-325 -110.5h-276v1399h-265zM419 109h135q156 0 222 75t66 251q0 169 -65.5 250.5t-224.5 81.5h-133v-658z" />
<glyph unicode="&#x42b;" horiz-adv-x="1288" d="M131 0v1509h143v-633h127q224 0 329 -104.5t105 -338.5q0 -212 -102.5 -322.5t-324.5 -110.5h-277zM274 109h136q154 0 220 75t66 251q0 170 -65.5 251t-223.5 81h-133v-658zM1015 0v1509h143v-1509h-143z" />
<glyph unicode="&#x42c;" horiz-adv-x="882" d="M131 0v1509h143v-633h127q225 0 329.5 -104.5t104.5 -338.5q0 -212 -102.5 -322.5t-324.5 -110.5h-277zM274 109h136q155 0 221 75t66 251q0 169 -65.5 250.5t-223.5 81.5h-134v-658z" />
<glyph unicode="&#x42d;" horiz-adv-x="942" d="M102 421v69h136v-64q0 -64 4.5 -109.5t18.5 -87.5t38 -67.5t64 -40.5t97 -15q60 0 103 16.5t69 44.5t41 72.5t20 92t5 114.5v287h-322v99h322v255q0 175 -52.5 255t-185.5 80q-70 0 -115 -22t-68 -68.5t-31 -100.5t-8 -135v-72h-136v62q0 82 10 148t35 124.5t65 96.5 t103 60t145 22q90 0 157.5 -24t110 -65.5t68.5 -103t36 -129t10 -150.5v-600q0 -87 -10.5 -156t-37 -130t-69.5 -101t-109.5 -62.5t-155.5 -22.5q-99 0 -169.5 29.5t-111.5 87t-59 133.5t-18 178z" />
<glyph unicode="&#x42e;" horiz-adv-x="1281" d="M131 0v1509h136v-688h163v247q0 108 19.5 188.5t61.5 142.5t116 94t178 32t178 -32.5t116.5 -95t61.5 -143.5t19 -187v-620q0 -108 -18 -189t-60 -145.5t-116.5 -98t-180.5 -33.5q-85 0 -150 22.5t-107.5 62.5t-69 100t-37.5 128.5t-11 154.5v261h-163v-710h-136z M561 415q0 -76 11 -131.5t38 -99.5t76 -66t121 -22q71 0 119.5 22t74.5 66t37 99.5t11 131.5v682q0 76 -11 130.5t-37.5 98t-75.5 65t-120 21.5t-119.5 -21.5t-75.5 -65t-38 -98t-11 -130.5v-682z" />
<glyph unicode="&#x42f;" horiz-adv-x="994" d="M36 0l306 684q-106 42 -161 151t-55 266q0 88 20.5 159t67.5 128.5t131 89t199 31.5h320v-1509h-142v646h-191q-35 0 -64 4l-272 -650h-159zM263 1101q0 -179 67.5 -264t223.5 -85h168v651h-171q-144 0 -216 -72t-72 -230z" />
<glyph unicode="&#x430;" horiz-adv-x="739" d="M74 225q0 53 9 95.5t34 80t54.5 66t84 61t109.5 59.5t143 66v78q0 148 -28.5 204t-105.5 56q-149 0 -149 -185v-39l-135 5q0 26 1 32q6 152 79 221t211 69q143 0 203 -84.5t60 -271.5v-524q0 -130 10 -214h-121l-20 149q-24 -71 -83 -118.5t-140 -47.5q-94 0 -155 69.5 t-61 172.5zM210 257q0 -80 35.5 -118.5t89.5 -38.5t100 38t73 90v335q-6 -2 -18 -9q-44 -23 -67.5 -36t-57 -32t-50 -32t-37.5 -31t-30.5 -34t-20 -37t-14 -44t-3.5 -51z" />
<glyph unicode="&#x431;" horiz-adv-x="818" d="M108 341v635q0 111 9 190t24 130.5t42 85t56.5 51t75.5 30.5t89.5 21t108 25.5t122.5 41.5l27 -117q-55 -23 -114 -38t-97 -20.5t-75.5 -15.5t-59 -26t-39.5 -50t-25 -90t-7 -143v-134q37 33 105 59t128 27q124 0 189 -95t65 -316v-190q0 -122 -22 -205t-65.5 -128.5 t-99 -64.5t-132.5 -21h-5q-130 1 -213 90q-86 91 -87 268zM245 338q1 -131 48 -192q46 -60 126 -60h4q90 1 130.5 62t40.5 219v258q0 158 -32 219.5t-112 61.5q-47 0 -107.5 -26t-97.5 -57v-485z" />
<glyph unicode="&#x432;" horiz-adv-x="727" d="M104 0v1077h262q75 0 130 -21t85.5 -58.5t44.5 -81.5t15 -98v-4q0 -180 -137 -230q161 -43 161 -271q0 -75 -12.5 -128.5t-43 -97t-88 -65.5t-141.5 -22h-276zM238 105h119q91 0 132.5 52t41.5 160q0 118 -42 161.5t-123 43.5h-128v-417zM238 623h136q66 0 105 47t39 134 q0 83 -42.5 126t-124.5 43h-113v-350z" />
<glyph unicode="&#x433;" horiz-adv-x="527" d="M104 0v1077h397v-101h-261v-976h-136z" />
<glyph unicode="&#x434;" horiz-adv-x="877" d="M18 94q69 43 112 116t73.5 224t40.5 391l17 252h450v-979h108v-357h-104l-12 259h-570l-12 -259h-103v353zM160 98h418v878h-208l-16 -178q-9 -234 -33.5 -376t-61.5 -212.5t-99 -111.5z" />
<glyph unicode="&#x435;" horiz-adv-x="736" d="M84 405v272q0 157 32 249.5t94.5 130t165.5 37.5q68 0 116.5 -18t80 -50.5t50.5 -88.5t26 -124t7 -163l-1 -98h-435v-161q0 -167 32.5 -236t121.5 -69q71 0 109 45t38 163v75h134v-61q0 -156 -65.5 -240.5t-214.5 -84.5q-155 0 -223 95.5t-68 326.5zM220 631h301v89 q0 56 -2.5 93.5t-11 74.5t-24 57.5t-43 33.5t-65.5 13q-87 0 -121 -60t-34 -229v-72z" />
<glyph unicode="&#x436;" horiz-adv-x="994" d="M7 0l305 551l-288 526h130l271 -516h16v516h114v-516h16l270 516h130l-288 -526l304 -551h-128l-287 534h-17v-534h-114v534h-18l-287 -534h-129z" />
<glyph unicode="&#x437;" horiz-adv-x="678" d="M66 795q0 299 280 299q68 0 121 -24t84 -65.5t47 -92.5q14 -48 14 -105v-6q-1 -110 -53 -169t-129 -71q40 -10 69 -26t57 -45.5t43 -79.5t16 -119v-7q0 -143 -69 -222q-70 -80 -201 -80h-3q-269 1 -269 321h121q0 -221 150 -222h3q78 0 112 57q32 56 32 158v11 q-1 105 -52 153.5t-173 48.5v101q123 0 172 44.5t52 139.5v14q0 78 -37 129q-40 55 -111 55q-156 0 -156 -197h-120z" />
<glyph unicode="&#x438;" horiz-adv-x="793" d="M104 0v1077h116v-829l360 829h110v-1077h-115v827l-358 -827h-113z" />
<glyph unicode="&#x439;" horiz-adv-x="793" d="M104 0v1077h116v-829l360 829h110v-1077h-115v827l-358 -827h-113zM163 1438h86q4 -151 146 -151t148 151h88q-3 -112 -62.5 -172.5t-173.5 -60.5q-112 0 -170.5 60.5t-61.5 172.5z" />
<glyph unicode="&#x43a;" horiz-adv-x="723" d="M104 0v1077h136v-474h78l244 474h142l-262 -519l271 -558h-143l-252 518h-78v-518h-136z" />
<glyph unicode="&#x43b;" horiz-adv-x="854" d="M21 -9v104q45 1 74 14.5t51 43t36.5 90.5t24.5 141.5t19 210.5l33 482h492v-1077h-137v972h-235l-28 -377q-8 -125 -18.5 -212t-27 -158t-38 -113.5t-55 -70.5t-74.5 -39t-98 -11h-19z" />
<glyph unicode="&#x43c;" horiz-adv-x="923" d="M96 0l10 1077h103l252 -740l252 740h105l9 -1077h-116l-3 757l-226 -646h-42l-224 643l-3 -754h-117z" />
<glyph unicode="&#x43d;" horiz-adv-x="817" d="M104 0v1077h136v-468h337v468h136v-1077h-136v506h-337v-506h-136z" />
<glyph unicode="&#x43e;" d="M84 389v299q0 206 63.5 306t223.5 100q161 0 224.5 -99.5t63.5 -306.5v-299q0 -101 -13.5 -173.5t-46 -126.5t-89 -80t-139.5 -26t-139 26t-88.5 80t-46 126.5t-13.5 173.5zM220 382q0 -50 1.5 -83t6.5 -70.5t15 -60.5t26.5 -43.5t42 -29.5t59.5 -9q41 0 69.5 15t44 37.5 t24 64.5t10.5 80t2 99v313q0 61 -2 99.5t-10.5 80t-24 64.5t-44 38t-69.5 15q-34 0 -59.5 -9t-42 -29.5t-26.5 -44t-15 -60.5t-6.5 -70.5t-1.5 -83.5v-313z" />
<glyph unicode="&#x43f;" horiz-adv-x="783" d="M104 0v1077h576v-1077h-137v971h-303v-971h-136z" />
<glyph unicode="&#x440;" horiz-adv-x="778" d="M105 -355v1432h136v-90q87 107 207 107q60 0 105 -24.5t71 -64t42 -97.5t21 -115t5 -129v-227q0 -86 -7.5 -153t-25.5 -125t-48 -96t-74.5 -59t-103.5 -21q-104 0 -192 103v-441h-136zM241 169q75 -78 170 -78q37 0 62.5 15t41.5 41t25 70.5t12 95t3 122.5v229 q0 173 -29 247.5t-117 74.5q-83 0 -168 -82v-735z" />
<glyph unicode="&#x441;" horiz-adv-x="724" d="M84 409v251q0 117 12.5 195t45 133.5t88.5 80.5t141 25q68 0 117 -16.5t79.5 -45t48 -73t24.5 -94.5t7 -116v-51h-126v51q0 138 -33 190.5t-115 52.5q-93 0 -123 -66t-30 -244v-302q0 -165 32.5 -229.5t121.5 -64.5q38 0 64.5 10.5t42.5 30t25 53t12 71t3 95.5v59h126 v-53q0 -71 -6 -123t-23.5 -100.5t-47 -79t-80 -48.5t-118.5 -18q-74 0 -126.5 21.5t-83.5 56.5t-48.5 92.5t-23.5 116.5t-6 139z" />
<glyph unicode="&#x442;" horiz-adv-x="624" d="M13 974v103h599v-103h-230v-974h-136v974h-233z" />
<glyph unicode="&#x443;" horiz-adv-x="711" d="M46 1077h130l117 -566l74 -372l65 368l108 570h132l-247 -1111q-16 -72 -44.5 -119t-75 -72t-97 -34.5t-129.5 -13.5v114q99 1 150 30t59 83q1 15 1 33q0 43 -11 97z" />
<glyph unicode="&#x444;" horiz-adv-x="1044" d="M84 467v194q0 109 23.5 186t68.5 119.5t101 61t129 18.5h53v463h125v-463h58q72 0 127.5 -18.5t100 -61t68 -119.5t23.5 -186v-194q0 -99 -19.5 -172t-50 -115t-76 -66.5t-89 -32t-97.5 -7.5h-45v-429h-125v429h-40q-39 0 -70.5 3.5t-66.5 14.5t-63 28.5t-54.5 47.5 t-43 70.5t-27 99t-10.5 129.5zM207 466q0 -76 10.5 -129.5t27.5 -85.5t45.5 -50t58.5 -24t73 -6h37v784h-49q-41 0 -70 -6t-55.5 -23t-42.5 -47.5t-25.5 -80.5t-9.5 -121v-211zM584 171h38q42 0 72 6t59.5 24t47 50t28 85.5t10.5 129.5v211q0 87 -13.5 144t-43 85.5 t-63 38.5t-85.5 10h-50v-784z" />
<glyph unicode="&#x445;" horiz-adv-x="707" d="M30 0l255 563l-243 514h135l185 -395l177 395h137l-252 -529l257 -548h-130l-202 424l-187 -424h-132z" />
<glyph unicode="&#x446;" horiz-adv-x="817" d="M104 0v1077h136v-981h311v981h136v-981h107v-355h-101l-11 259h-578z" />
<glyph unicode="&#x447;" horiz-adv-x="740" d="M74 679v398h136v-401q0 -74 39 -110t120 -36q60 0 130 16v531h136v-1077h-136v450q-103 -20 -159 -20q-123 0 -194.5 59t-71.5 190z" />
<glyph unicode="&#x448;" horiz-adv-x="1078" d="M104 0v1077h133v-981h236v981h133v-981h236v981h133v-1077h-871z" />
<glyph unicode="&#x449;" horiz-adv-x="1137" d="M104 0v1077h132v-981h241v981h132v-981h239v981h132v-981h108v-355h-100l-13 259h-871z" />
<glyph unicode="&#x44a;" horiz-adv-x="849" d="M-5 976v101h367v-437h67q85 0 149 -15.5t105 -42.5t66 -68.5t35 -88.5t10 -108q0 -74 -16.5 -128.5t-57.5 -98.5t-116.5 -67t-185.5 -23h-192v976h-231zM362 86h56q75 0 125 15.5t77.5 47t38 71.5t10.5 98q0 43 -5.5 76t-21.5 64t-43 51t-71.5 32t-105.5 12h-60v-467z " />
<glyph unicode="&#x44b;" horiz-adv-x="1049" d="M104 0v1077h136v-437h67q106 -1 179.5 -23.5t113 -67t56 -100t16.5 -132.5q0 -74 -16.5 -128.5t-57.5 -98.5t-116.5 -67t-185.5 -23h-192zM240 86h56q75 0 125 15.5t77.5 47t38 71.5t10.5 98q0 43 -5.5 76t-21.5 64t-43 51t-71.5 32t-105.5 12h-60v-467zM809 0v1077h136 v-1077h-136z" />
<glyph unicode="&#x44c;" horiz-adv-x="724" d="M104 0v1077h136v-437h67q106 -1 179.5 -23.5t113 -67t56 -100t16.5 -132.5q0 -74 -16.5 -128.5t-57.5 -98.5t-116.5 -67t-185.5 -23h-192zM240 86h56q75 0 125 15.5t77.5 47t38 71.5t10.5 98q0 43 -5.5 76t-21.5 64t-43 51t-71.5 32t-105.5 12h-60v-467z" />
<glyph unicode="&#x44d;" horiz-adv-x="738" d="M92 310v24h125v-24q0 -126 35.5 -175t116.5 -49q93 0 121 65.5t28 243.5v105h-284v83h284v105q0 173 -29.5 234t-120 61t-121 -55.5t-30.5 -177.5v-37h-125v30q0 63 6.5 110.5t24.5 93t48 74.5t80.5 46.5t118.5 17.5q53 0 95 -11t71.5 -29.5t51 -48.5t34 -63t20.5 -79.5 t10 -90.5t2 -103v-242q0 -119 -12.5 -196.5t-44.5 -133.5t-88 -80.5t-141 -24.5q-68 0 -117 15.5t-79.5 42t-48 69.5t-24.5 90.5t-7 109.5z" />
<glyph unicode="&#x44e;" horiz-adv-x="998" d="M104 0v1077h124v-496h149v107q0 102 12 173.5t42 125.5t83 80.5t131 26.5q151 0 209.5 -99.5t58.5 -306.5v-299q0 -207 -58.5 -306.5t-209.5 -99.5q-152 0 -210 99.5t-58 306.5v100h-149v-489h-124zM500 382q0 -61 2 -99t10 -79.5t23.5 -64.5t42.5 -38t67 -15 q39 0 66.5 15t43 38t23 64.5t10 79.5t2.5 99v313q0 61 -2.5 99.5t-10 79.5t-23 64.5t-43 38.5t-66.5 15q-40 0 -67 -15t-42.5 -38.5t-23.5 -64.5t-10 -79.5t-2 -99.5v-313z" />
<glyph unicode="&#x44f;" horiz-adv-x="750" d="M29 0l213 467q-81 32 -117.5 111.5t-36.5 183.5q0 72 16 126t55 98.5t113.5 67.5t183.5 23h191v-1077h-136v436q-96 0 -142 5l-192 -441h-148zM214 761q0 -125 56.5 -182.5t191.5 -57.5h49v472h-61q-72 0 -120.5 -16t-73 -49t-33.5 -71.5t-9 -95.5z" />
<glyph unicode="&#x450;" horiz-adv-x="736" d="M84 405v272q0 157 32 249.5t94.5 130t165.5 37.5q68 0 116.5 -18t80 -50.5t50.5 -88.5t26 -124t7 -163l-1 -98h-435v-161q0 -167 32.5 -236t121.5 -69q71 0 109 45t38 163v75h134v-61q0 -156 -65.5 -240.5t-214.5 -84.5q-155 0 -223 95.5t-68 326.5zM163 1569h138 l104 -364h-70zM220 631h301v89q0 56 -2.5 93.5t-11 74.5t-24 57.5t-43 33.5t-65.5 13q-87 0 -121 -60t-34 -229v-72z" />
<glyph unicode="&#x451;" horiz-adv-x="736" d="M84 405v272q0 157 32 249.5t94.5 130t165.5 37.5q68 0 116.5 -18t80 -50.5t50.5 -88.5t26 -124t7 -163l-1 -98h-435v-161q0 -167 32.5 -236t121.5 -69q71 0 109 45t38 163v75h134v-61q0 -156 -65.5 -240.5t-214.5 -84.5q-155 0 -223 95.5t-68 326.5zM147 1205v165h141 v-165h-141zM220 631h301v89q0 56 -2.5 93.5t-11 74.5t-24 57.5t-43 33.5t-65.5 13q-87 0 -121 -60t-34 -229v-72zM453 1205v165h140v-165h-140z" />
<glyph unicode="&#x452;" horiz-adv-x="792" d="M-12 1160v85h135v264h136v-264h244v-85h-244v-330q33 28 97 54t140 26q93 0 146 -50t53 -141v-531q0 -72 -2 -121t-9 -99t-19.5 -80t-34 -58t-53 -43t-74.5 -23t-102 -8h-51v96h29q41 0 69 5t49 20.5t32.5 36t18.5 59t9 81.5t2 112v528q0 67 -27.5 96.5t-81 29.5 t-108 -21.5t-83.5 -48.5v-750h-136v1160h-135z" />
<glyph unicode="&#x453;" horiz-adv-x="527" d="M104 0v1077h397v-101h-261v-976h-136zM268 1205l116 364h137l-183 -364h-70z" />
<glyph unicode="&#x454;" horiz-adv-x="716" d="M85 409v251q0 117 12.5 195t45 133.5t88.5 80.5t141 25q84 0 139.5 -23.5t84.5 -70t40.5 -104.5t11.5 -142v-28h-127v28q0 139 -32.5 188.5t-114.5 49.5q-93 0 -123 -66t-30 -244v-88h277v-94h-277v-120q0 -165 32.5 -229.5t121.5 -64.5q91 0 118.5 56.5t27.5 198.5v35 h127v-28q0 -71 -6 -122.5t-23.5 -100t-47.5 -78t-80 -47t-118 -17.5q-74 0 -126.5 21.5t-83.5 56.5t-49 92.5t-23.5 116.5t-5.5 139z" />
<glyph unicode="&#x455;" horiz-adv-x="676" d="M57 289l115 35q11 -123 56.5 -180.5t127.5 -57.5q71 0 112 41q39 40 39 108v6q-3 108 -131 215l-147 125q-77 64 -113 126q-34 60 -34 140q0 119 71 183q69 64 186 64q120 0 184 -76.5t71 -206.5l-96 -32q-7 108 -44.5 160.5t-108.5 52.5q-64 0 -102 -36q-37 -34 -37 -92 q0 -53 19 -91t70 -81l152 -137q41 -35 67 -62t55 -66.5t43 -85.5t15 -99q0 -124 -74.5 -191.5t-202.5 -67.5t-205 82.5t-88 223.5z" />
<glyph unicode="&#x456;" horiz-adv-x="431" d="M144 1214v181h151v-181h-151zM149 0v1077h137v-1077h-137z" />
<glyph unicode="&#x457;" horiz-adv-x="368" d="M-36 1205v165h140v-165h-140zM118 0v1077h137v-1077h-137zM269 1205v165h141v-165h-141z" />
<glyph unicode="&#x458;" horiz-adv-x="391" d="M-31 -172q9 -3 46 -3q33 0 57 8.5t37.5 21.5t21 33.5t10 40t2.5 46.5v1102h136v-1114q0 -125 -61.5 -185t-175.5 -60q-57 0 -73 6v104zM143 1226v185h137v-185h-137z" />
<glyph unicode="&#x459;" horiz-adv-x="1166" d="M8 -9v104q44 0 73.5 13.5t51.5 42.5t36.5 85t23.5 129t17 186l38 526h491v-476h51q82 0 141 -14t96.5 -38t58.5 -63t29.5 -83t8.5 -105q0 -57 -8.5 -99.5t-31 -81.5t-60.5 -63t-99.5 -38.5t-146.5 -15.5h-176v972h-235l-33 -439q-7 -104 -18.5 -184.5t-25 -138t-34.5 -97 t-42.5 -64t-53.5 -37.5t-63 -17t-74 -4h-15zM739 86h41q70 0 114 13.5t66.5 43t30 65t7.5 91.5q0 44 -3.5 73t-16 58.5t-36.5 46t-64.5 27t-97.5 10.5h-41v-428z" />
<glyph unicode="&#x45a;" horiz-adv-x="1115" d="M104 0v1077h136v-471h295v471h137v-476h61q103 -1 171.5 -21t105 -61t50 -92.5t13.5 -128.5q0 -58 -8 -100.5t-31 -81.5t-61.5 -63t-101 -38t-148.5 -15h-188v510h-295v-510h-136zM672 86h56q70 1 114.5 14.5t67 42.5t30 64.5t7.5 91.5q0 55 -6.5 89t-28.5 65t-67 45.5 t-116 15.5h-57v-428z" />
<glyph unicode="&#x45b;" horiz-adv-x="792" d="M-12 1160v85h135v264h136v-264h244v-85h-244v-330q33 28 97 54t140 26q93 0 146 -50t53 -141v-719h-136v694q0 67 -27.5 96.5t-81.5 29.5q-48 0 -105.5 -22t-85.5 -48v-750h-136v1160h-135z" />
<glyph unicode="&#x45c;" horiz-adv-x="723" d="M104 0v1077h136v-474h78l244 474h142l-262 -519l271 -558h-143l-252 518h-78v-518h-136zM373 1205l117 364h136l-183 -364h-70z" />
<glyph unicode="&#x45d;" horiz-adv-x="793" d="M104 0v1077h116v-829l360 829h110v-1077h-115v827l-358 -827h-113zM190 1569h139l103 -364h-70z" />
<glyph unicode="&#x45e;" horiz-adv-x="711" d="M46 1077h130l117 -566l74 -372l65 368l108 570h132l-247 -1111q-16 -72 -44.5 -119t-75 -72t-97 -34.5t-129.5 -13.5v114q99 1 150 30t59 83q1 15 1 33q0 43 -11 97zM125 1438h86q4 -151 146 -151t148 151h87q-2 -112 -62 -172.5t-173 -60.5q-112 0 -171 60.5t-61 172.5z " />
<glyph unicode="&#x45f;" horiz-adv-x="781" d="M104 0v1077h136v-977h301v977h137v-1077h-227l-9 -259h-93l-13 259h-232z" />
<glyph unicode="&#x490;" horiz-adv-x="697" d="M131 0v1509h450v178h92v-286h-399v-1401h-143z" />
<glyph unicode="&#x491;" horiz-adv-x="543" d="M112 0v1077h318v151h80v-252h-262v-976h-136z" />
<glyph unicode="&#x4af;" horiz-adv-x="706" d="M36 1077h137l185 -819l183 819h137l-261 -1031v-342h-127v340z" />
<glyph unicode="&#x4b0;" horiz-adv-x="829" d="M9 1509h139l173 -448l99 -256l93 255l168 449h139l-320 -826h280v-101h-290v-582h-139v582h-287v101h275z" />
<glyph unicode="&#x4b1;" horiz-adv-x="707" d="M33 1077h136l185 -819l183 819h137l-253 -999h192v-93h-200v-281h-126v281h-200v93h191z" />
<glyph unicode="&#x4c0;" horiz-adv-x="413" d="M137 0v1509h141v-1509h-141z" />
<glyph unicode="&#x4e8;" horiz-adv-x="977" d="M101 446v626q0 106 19.5 186.5t63.5 141.5t120.5 93t184 32t184 -32t120.5 -93.5t63.5 -141.5t19.5 -186v-628q0 -85 -11 -153t-39 -127t-71.5 -99t-111 -62t-154.5 -22q-110 0 -186.5 33t-120 97.5t-62.5 146t-19 188.5zM171 715h74v-300q0 -76 10.5 -131t36.5 -99.5 t75 -66.5t121.5 -22t122 22t75.5 66.5t36.5 99.5t10.5 131v300h86v101h-86v281q0 77 -10.5 131t-36.5 98t-75.5 65t-122 21t-121.5 -21t-75 -65t-36.5 -98t-10.5 -131v-281h-74v-101zM245 715h488v101h-488v-101z" />
<glyph unicode="&#x4e9;" d="M84 389v299q0 206 63.5 306t223.5 100q161 0 224.5 -99.5t63.5 -306.5v-299q0 -101 -13.5 -173.5t-46 -126.5t-89 -80t-139.5 -26t-139 26t-88.5 80t-46 126.5t-13.5 173.5zM148 516h72v-134q0 -50 1.5 -83t6.5 -70.5t15 -60.5t26.5 -43.5t42 -29.5t59.5 -9q41 0 69.5 15 t44 37.5t24 64.5t10.5 80t2 99v134h72v90h-72v89q0 61 -2 99.5t-10.5 80t-24 64.5t-44 38t-69.5 15q-34 0 -59.5 -9t-42 -29.5t-26.5 -44t-15 -60.5t-6.5 -70.5t-1.5 -83.5v-89h-72v-90zM220 516h301v90h-301v-90z" />
<glyph unicode="&#x2000;" horiz-adv-x="1000" />
<glyph unicode="&#x2001;" horiz-adv-x="2000" />
<glyph unicode="&#x2002;" horiz-adv-x="1000" />
<glyph unicode="&#x2003;" horiz-adv-x="2000" />
<glyph unicode="&#x2004;" horiz-adv-x="666" />
<glyph unicode="&#x2005;" horiz-adv-x="500" />
<glyph unicode="&#x2006;" horiz-adv-x="333" />
<glyph unicode="&#x2007;" horiz-adv-x="333" />
<glyph unicode="&#x2008;" horiz-adv-x="250" />
<glyph unicode="&#x2009;" horiz-adv-x="400" />
<glyph unicode="&#x200a;" horiz-adv-x="111" />
<glyph unicode="&#x2010;" horiz-adv-x="555" d="M79 554v108h397v-108h-397z" />
<glyph unicode="&#x2011;" horiz-adv-x="555" d="M79 554v108h397v-108h-397z" />
<glyph unicode="&#x2012;" horiz-adv-x="555" d="M79 554v108h397v-108h-397z" />
<glyph unicode="&#x2013;" horiz-adv-x="1182" d="M79 554v108h1024v-108h-1024z" />
<glyph unicode="&#x2014;" horiz-adv-x="2206" d="M79 554v108h2048v-108h-2048z" />
<glyph unicode="&#x202f;" horiz-adv-x="400" />
<glyph unicode="&#x205f;" horiz-adv-x="500" />
<glyph unicode="&#x25fc;" horiz-adv-x="1078" d="M0 0v1078h1078v-1078h-1078z" />
</font>
</defs>
</svg>
