<?xml version="1.0" standalone="no"?>
<!DOCTYPE svg PUBLIC "-//W3C//DTD SVG 1.1//EN" "http://www.w3.org/Graphics/SVG/1.1/DTD/svg11.dtd" >
<svg xmlns="http://www.w3.org/2000/svg" xmlns:xlink="http://www.w3.org/1999/xlink" version="1.1">
<metadata></metadata>
<defs>
<font id="oswaldmedium" horiz-adv-x="657" >
<font-face units-per-em="2048" ascent="1638" descent="-410" />
<missing-glyph horiz-adv-x="455" />
<glyph horiz-adv-x="0" />
<glyph unicode="&#xd;" horiz-adv-x="620" />
<glyph unicode=" "  horiz-adv-x="455" />
<glyph unicode="&#x09;" horiz-adv-x="455" />
<glyph unicode="&#xa0;" horiz-adv-x="455" />
<glyph unicode="!" horiz-adv-x="428" d="M86 0v246h247v-246h-247zM88 1507h254l-87 -1158h-89z" />
<glyph unicode="&#x22;" horiz-adv-x="694" d="M113 1001v508h221l-95 -508h-126zM424 1001v508h222l-95 -508h-127z" />
<glyph unicode="#" horiz-adv-x="950" d="M68 522l2 174h110l23 184h-132l2 177h158l59 452h210l-60 -452h153l60 452h208l-60 -452h82l-2 -177h-107l-24 -184h130l-2 -174h-153l-68 -522h-208l68 522h-154l-69 -522h-207l68 522h-87zM387 696h155l24 184h-155z" />
<glyph unicode="$" horiz-adv-x="918" d="M57 442l241 50q8 -299 171 -299q62 0 92.5 38t30.5 103q0 48 -11 87t-35.5 74t-49 60.5t-66.5 61.5l-197 172q-87 76 -130 158.5t-43 206.5q0 167 96 264t263 107v140h79v-140q89 -6 152 -40t99.5 -92.5t54.5 -124t24 -150.5l-236 -46q-1 45 -5.5 79t-14.5 68.5t-25.5 56 t-41.5 34t-63 10.5q-61 -4 -93 -41t-32 -99q0 -73 28 -119t89 -101l197 -171q49 -45 85.5 -86.5t70 -95.5t50.5 -118.5t17 -136.5q0 -151 -89 -251t-237 -116v-151h-78v149q-373 12 -393 459z" />
<glyph unicode="%" horiz-adv-x="1801" d="M74 1059v80q0 193 76 284.5t252.5 91.5t253.5 -89t77 -279v-92q0 -190 -78.5 -284t-252.5 -94q-172 0 -250 96.5t-78 285.5zM294 1058q0 -49 3.5 -81.5t14.5 -63t33.5 -45t56.5 -14.5q28 0 48.5 10.5t32 27.5t18.5 45.5t8.5 56t1.5 66.5v82q0 41 -1.5 67t-7.5 52.5 t-18 41.5t-32.5 24t-49.5 9t-49.5 -9.5t-32 -24t-17 -42t-7.5 -53t-2 -66.5v-83zM599 0l426 1509h179l-426 -1509h-179zM1070 376v80q0 193 76 284.5t252.5 91.5t253.5 -89t77 -279v-93q0 -189 -78.5 -283t-251.5 -94q-172 0 -250.5 96.5t-78.5 285.5zM1290 376 q0 -49 4 -82.5t15 -63.5t33 -44.5t57 -14.5q29 0 49 11t31.5 28t18 45t8.5 55.5t2 66.5v82q0 41 -2 66.5t-8 52.5t-17 41.5t-31.5 24t-50.5 9.5q-29 0 -49.5 -9.5t-32 -24.5t-17.5 -42t-8 -52.5t-2 -66.5v-82z" />
<glyph unicode="&#x26;" horiz-adv-x="1101" d="M93 327q0 132 60 246.5t154 201.5q-14 29 -49.5 94.5t-54 105t-36 99.5t-17.5 114q0 149 88 244t234 95q142 0 236 -81.5t94 -218.5q0 -70 -23 -138t-65.5 -129t-78 -102t-85.5 -93q-9 -9 -14 -13l195 -331q40 81 59 298h213q0 -231 -129 -447q21 -25 57.5 -45.5 t74.5 -21.5v-222q-20 -5 -36 -5q-25 0 -50.5 8t-42.5 15t-44 27.5t-35 27.5t-36.5 34.5t-30.5 29.5q-51 -65 -130 -102t-176 -37q-151 0 -241.5 95.5t-90.5 250.5zM320 336q0 -72 28.5 -118.5t79.5 -46.5q97 0 167 90q-187 321 -194 338q-37 -55 -59 -125t-22 -138z M380 1195q0 -17 1.5 -35t5 -38t7 -36.5t10 -38t10 -35t11 -36.5t11 -31.5t11.5 -31t9 -26.5q44 65 82 164.5t38 181.5q0 46 -27.5 73t-70.5 27q-47 0 -72.5 -40t-25.5 -98z" />
<glyph unicode="'" horiz-adv-x="594" d="M126 1001v508h216l-86 -508h-130z" />
<glyph unicode="(" horiz-adv-x="593" d="M126 579q0 122 2 204.5t10.5 190t25 179.5t46.5 148.5t73 121t106.5 73t144.5 28.5v-174q-29 0 -52.5 -15t-41 -48t-30 -71t-21 -97.5t-13.5 -114t-7 -132.5t-3 -141t-1 -152t1 -154t3.5 -141t7.5 -130.5t13.5 -111.5t21.5 -95t30 -69.5t40 -46.5t52 -15v-174 q-81 0 -144.5 29t-106.5 74t-73 121.5t-46.5 148t-25 177.5t-10.5 187.5t-2 199.5z" />
<glyph unicode=")" horiz-adv-x="539" d="M59 -184q23 0 42.5 10t35 30.5t28 46.5t21.5 64t16 76.5t11.5 90.5t7.5 99.5t5 109.5t2 116v122v123t-1.5 116.5t-4.5 111t-7.5 99.5t-11 91t-16 77t-21.5 64.5t-27.5 46t-35.5 30.5t-44 10v174q81 0 145 -28.5t106.5 -72.5t72.5 -120.5t46.5 -148t25 -179t11 -190 t2.5 -204.5q0 -118 -2.5 -199t-11 -188t-25 -178.5t-46.5 -148t-72.5 -122t-106.5 -74.5t-145 -29v174z" />
<glyph unicode="*" horiz-adv-x="768" d="M83 1221l58 156l196 -106l-24 237h190l-23 -238l195 107l59 -157l-210 -81l142 -195l-153 -90l-105 218l-106 -218l-150 90l140 197z" />
<glyph unicode="+" horiz-adv-x="809" d="M48 690v169h264v300h179v-300h272v-169h-272v-304h-179v304h-264z" />
<glyph unicode="," horiz-adv-x="391" d="M74 0v247h250v-230q0 -231 -211 -273l-27 96q53 13 87 54.5t34 105.5h-133z" />
<glyph unicode="-" d="M105 506v176h449v-176h-449z" />
<glyph unicode="." horiz-adv-x="398" d="M86 0v252h247v-252h-247z" />
<glyph unicode="/" horiz-adv-x="738" d="M66 0l427 1509h178l-427 -1509h-178z" />
<glyph unicode="0" horiz-adv-x="950" d="M84 420v663q0 206 97.5 325t294.5 119q195 0 293.5 -119t98.5 -325v-663q0 -201 -101 -321t-291 -120t-291 120t-101 321zM345 423q0 -222 131 -222t131 222v655q0 29 -2 53.5t-6 51.5t-13.5 47.5t-23 38.5t-36 27t-50.5 9q-34 0 -59 -14t-38.5 -35t-21.5 -53.5t-10 -60 t-2 -64.5v-655z" />
<glyph unicode="1" horiz-adv-x="932" d="M161 1152v193q232 77 304 164h197v-1509h-258v1217z" />
<glyph unicode="2" horiz-adv-x="932" d="M85 0v182l368 577q8 14 44.5 68t48.5 75.5t33.5 65.5t29 82.5t7.5 82.5q0 89 -31.5 135.5t-96.5 42.5q-139 -6 -139 -242v-63h-254v65q0 104 21.5 185.5t67 143t122.5 94.5t181 33q191 0 289 -103.5t98 -292.5q0 -64 -12 -121.5t-38.5 -112t-49 -92t-62.5 -96.5 q-5 -6 -7 -10t-6 -9t-6 -9l-311 -473h452v-208h-749z" />
<glyph unicode="3" horiz-adv-x="916" d="M76 407v53h258v-41q2 -115 30.5 -169.5t107.5 -54.5q35 0 60 11.5t39.5 30.5t22.5 51t10.5 65t2.5 80q0 120 -39 183t-137 68q-3 0 -19.5 0.5t-19.5 0.5v217q29 0 35 1q100 2 140 52t40 163q0 100 -30.5 150.5t-107.5 50.5q-33 0 -57 -11t-38.5 -29.5t-23.5 -47 t-12 -58.5t-4 -70v-51h-258v70q0 193 102 299t291 106q190 0 292.5 -103.5t102.5 -296.5q0 -128 -55.5 -213.5t-147.5 -111.5q97 -34 150 -125.5t53 -239.5q0 -216 -95 -337t-299 -121q-202 0 -298 112t-96 316z" />
<glyph unicode="4" horiz-adv-x="950" d="M66 369v238l384 903h303v-927h157v-214h-157v-369h-243v369h-444zM290 583h220v640z" />
<glyph unicode="5" horiz-adv-x="929" d="M90 436h254q0 -62 4.5 -103t18 -79.5t43 -57.5t73.5 -19q28 0 49.5 10t35.5 23t24 40.5t15 49t7.5 64t3 69.5t0.5 80q0 58 -2.5 96t-10.5 78t-22.5 63t-41 37.5t-63.5 14.5q-54 0 -91 -36.5t-52 -94.5h-222l12 838h685v-236h-464l-16 -356q30 33 83.5 53.5t117.5 22.5 q89 3 154.5 -27.5t105 -92.5t58.5 -146.5t19 -192.5q0 -100 -9.5 -178t-35.5 -151.5t-69 -121t-114 -76t-167 -28.5q-111 0 -187.5 31.5t-118 94t-59.5 142t-18 189.5z" />
<glyph unicode="6" horiz-adv-x="948" d="M95 480v509q0 94 10.5 170.5t38 146t71.5 117.5t113.5 75.5t160.5 27.5q374 0 381 -379v-22h-250q0 103 -26.5 150.5t-103.5 47.5q-74 0 -105 -72.5t-31 -240.5v-179q26 45 79 71t124 27q325 4 325 -432q0 -114 -21 -204.5t-65.5 -162t-122.5 -110t-184 -38.5 q-82 0 -148 25.5t-111.5 70t-76 107.5t-44.5 137t-14 158zM354 418q0 -235 136 -235q40 0 67 19.5t41 57.5t19.5 82t5.5 103q0 43 -0.5 65t-2.5 58t-7 55t-15 44t-23.5 37t-35 20.5t-49.5 8.5q-89 0 -136 -88v-227z" />
<glyph unicode="7" horiz-adv-x="800" d="M74 1310v199h652v-152l-297 -1357h-251l294 1310h-398z" />
<glyph unicode="8" horiz-adv-x="932" d="M73 439q1 256 177 356q-152 115 -154 332q-2 190 92.5 294.5t278.5 104.5t276.5 -105t90.5 -294q-2 -221 -152 -332q176 -104 177 -356q5 -458 -392 -458q-396 0 -394 458zM323 426q0 -40 3 -72t12 -66.5t24 -57.5t41.5 -38t63 -15t63 15.5t41.5 38.5t23.5 58t11 66 t2.5 71q0 249 -141 249q-144 0 -144 -249zM343 1139q0 -239 124 -239q120 0 120 238q0 86 -29 139t-91 53q-65 0 -94.5 -52.5t-29.5 -138.5z" />
<glyph unicode="9" horiz-adv-x="948" d="M78 1019q0 113 22 203t67.5 159.5t122.5 107t181 37.5q102 0 179 -37.5t123.5 -104.5t69 -154.5t22.5 -194.5v-516q0 -94 -10.5 -170.5t-38.5 -146t-71.5 -117.5t-113.5 -75.5t-161 -27.5q-374 0 -380 383v18h250q0 -103 27 -150.5t105 -47.5q73 0 102.5 72t29.5 242v178 q-56 -96 -201 -97q-72 -1 -128.5 21t-92.5 61t-60 95.5t-34 121t-10 140.5zM339 1012.5q0 -16.5 1.5 -47t4 -45.5t7 -39t11 -36.5t16.5 -28t23.5 -23t31 -13t39.5 -5.5q85 0 131 88v227q0 236 -133 236q-39 0 -65.5 -20t-41 -58t-20 -82t-5.5 -103v-50.5z" />
<glyph unicode=":" horiz-adv-x="433" d="M115 151v245h245v-245h-245zM115 767v246h245v-246h-245z" />
<glyph unicode=";" horiz-adv-x="459" d="M113 814v251h246v-251h-246zM114 83v246h250v-229q0 -248 -212 -248l-27 95q122 9 122 136h-133z" />
<glyph unicode="&#x3c;" horiz-adv-x="717" d="M56 498v225l556 390v-238l-369 -263l369 -264v-238z" />
<glyph unicode="=" horiz-adv-x="799" d="M108 493v172h584v-172h-584zM108 835v173h584v-173h-584z" />
<glyph unicode="&#x3e;" horiz-adv-x="717" d="M105 110v238l369 264l-369 263v238l557 -390v-225z" />
<glyph unicode="?" horiz-adv-x="909" d="M88 1143q-24 174 70.5 281t284.5 107q191 0 294 -101t103 -284q0 -87 -27 -168.5t-78.5 -155t-105 -131.5t-128.5 -125v-179h-229v235q69 62 120 117t100 123t74 142t23 151q-2 72 -41.5 113t-101.5 41q-63 0 -95 -39.5t-24 -103.5q0 -41 13 -80l-234 -48q-18 79 -18 105 zM263 0v248h251v-248h-251z" />
<glyph unicode="@" horiz-adv-x="1741" d="M108 571q8 225 74.5 403t182 295t274.5 178.5t353 61.5q142 0 258.5 -40.5t195.5 -110t132.5 -165.5t74.5 -205t16 -228q-3 -86 -22.5 -168t-58.5 -157.5t-93 -132t-130 -90.5t-164 -34q-83 0 -142 41.5t-71 115.5q-18 -58 -61.5 -99.5t-111.5 -48.5q-96 -9 -166.5 40.5 t-103.5 132t-30 184.5q1 76 18.5 156t54.5 157.5t87 138.5t122 99t153 38q63 0 127 -83l19 68h193l-96 -658q-12 -87 -2 -114q8 -24 31 -27q69 -5 129.5 53t97.5 158t41 215q4 97 -10.5 183t-53 161t-98 129t-150.5 85.5t-203 31.5q-151 0 -273.5 -56t-204.5 -157 t-128.5 -240t-52.5 -305q-18 -312 133 -482.5t457 -170.5q171 0 351 57l36 -170q-226 -61 -411 -61q-376 0 -584.5 215t-189.5 606zM743 543q-1 -80 30 -131.5t96 -42.5q35 8 69 39.5t47 93.5l61 430q-11 14 -47 14q-72 0 -131.5 -58t-92 -150t-32.5 -195z" />
<glyph unicode="A" horiz-adv-x="969" d="M35 0l306 1509h287l306 -1509h-256l-61 350h-261l-62 -350h-259zM385 530h202l-101 619z" />
<glyph unicode="B" horiz-adv-x="1034" d="M113 0v1509h369q105 0 183 -19t138.5 -62t91 -119.5t30.5 -184.5q-1 -280 -222 -312q133 -26 199 -118q67 -93 67 -260q1 -212 -107 -322q-108 -112 -316 -112h-433zM388 194h101q123 0 170 57t47 189q0 137 -53 198.5t-179 61.5h-86v-506zM388 894h85q121 0 166.5 51.5 t45.5 174.5q0 64 -15 103.5t-50.5 59.5t-78.5 26.5t-115 6.5h-38v-422z" />
<glyph unicode="C" horiz-adv-x="1002" d="M88 489v526q0 98 13 174t43 141t78.5 107t123 65.5t172.5 23.5q113 0 193 -30t126.5 -88t67 -136t20.5 -182v-129h-264v128q0 113 -12 152q-24 77 -116 82h-14q-35 0 -61 -8t-42.5 -26t-26.5 -38t-15 -52t-6 -59.5t-1 -69.5v-639q0 -133 33 -189t119 -56q29 0 51 6.5 t37 17t25.5 30t16 36.5t8.5 47t3.5 51t0.5 57v135h264v-124q0 -84 -11.5 -151.5t-40.5 -126.5t-74.5 -98.5t-116 -61.5t-164.5 -22q-98 0 -172.5 24.5t-123 68t-79 108.5t-43 139t-12.5 167z" />
<glyph unicode="D" horiz-adv-x="1031" d="M113 0v1509h351q137 0 228.5 -27.5t147 -86.5t79 -145t23.5 -212v-544q0 -129 -23.5 -219t-78 -153t-144.5 -92.5t-221 -29.5h-362zM388 193h78q41 0 72 7t52 17.5t35 33t21 41.5t11 58t4.5 66t0.5 81v551q0 54 -1.5 87t-8.5 66t-20 51t-35 33t-54.5 21t-79.5 6h-75 v-1119z" />
<glyph unicode="E" horiz-adv-x="794" d="M113 0v1509h631v-194h-356v-433h282v-194h-282v-498h361v-190h-636z" />
<glyph unicode="F" horiz-adv-x="764" d="M113 0v1509h620v-190h-345v-439h275v-194h-275v-686h-275z" />
<glyph unicode="G" horiz-adv-x="1039" d="M88 503v492q0 130 20.5 224t69 165t133 106.5t207.5 35.5q224 0 321 -109.5t97 -332.5v-74h-263v78q0 50 -2 82t-10.5 64.5t-25 49.5t-45 28t-69.5 11q-31 0 -55 -7.5t-40 -19t-27.5 -32.5t-17.5 -40.5t-9 -50.5t-4 -54.5t-1 -61.5v-608q0 -137 33.5 -200t128.5 -63 q49 0 82 18.5t52 56t26.5 86.5t7.5 118v124h-163v177h411v-766h-179l-20 153q-68 -173 -256 -173q-213 0 -307.5 134t-94.5 389z" />
<glyph unicode="H" horiz-adv-x="1087" d="M116 0v1509h274v-631h307v631h275v-1509h-275v682h-307v-682h-274z" />
<glyph unicode="I" horiz-adv-x="511" d="M121 0v1509h271v-1509h-271z" />
<glyph unicode="J" horiz-adv-x="606" d="M17 -32v193h6q116 0 155 37q40 37 40 153v1158h275l-1 -1164q-1 -99 -16.5 -167t-54.5 -116.5t-106 -71t-166 -22.5h-132z" />
<glyph unicode="K" horiz-adv-x="987" d="M113 0v1509h275v-655l296 655h262l-288 -675l318 -834h-273l-261 710l-54 -98v-612h-275z" />
<glyph unicode="L" horiz-adv-x="781" d="M113 0v1509h275v-1319h361v-190h-636z" />
<glyph unicode="M" horiz-adv-x="1271" d="M110 0l25 1509h282l218 -1060l225 1060h276l25 -1509h-207l-19 1039l-217 -1039h-161l-220 1043l-17 -1043h-210z" />
<glyph unicode="N" horiz-adv-x="1011" d="M113 0v1509h189l370 -855v855h227v-1509h-180l-373 898v-898h-233z" />
<glyph unicode="O" horiz-adv-x="1046" d="M88 479v557q0 120 23 208t73.5 152.5t135 97t203.5 32.5q232 0 333.5 -124.5t101.5 -365.5v-557q0 -119 -23 -208.5t-73.5 -155.5t-135 -99.5t-203.5 -33.5q-233 0 -334 126.5t-101 370.5zM368 414q0 -43 3 -74t12.5 -61.5t26 -50t45 -31t68.5 -11.5t68.5 11.5t45 31 t26 50t13 61.5t3.5 74v685q0 55 -5.5 91.5t-21.5 68.5t-48 48t-81 16t-81 -16t-47.5 -48t-21 -68.5t-5.5 -91.5v-685z" />
<glyph unicode="P" horiz-adv-x="966" d="M113 0v1509h434q386 0 386 -429q0 -210 -105.5 -308t-297.5 -98h-142v-674h-275zM388 867h88q116 0 157 46t41 169q0 70 -5.5 108t-25.5 69.5t-59.5 43.5t-106.5 12h-89v-448z" />
<glyph unicode="Q" horiz-adv-x="1046" d="M88 479v557q0 120 23 208t73.5 152.5t135 97t203.5 32.5q232 0 333.5 -124.5t101.5 -365.5v-557q0 -352 -209 -453q90 -107 146 -142l-51 -186q-68 32 -150 114.5t-140 170.5q-10 -1 -31 -1q-233 0 -334 126.5t-101 370.5zM368 414q0 -43 3 -74t12.5 -61.5t26 -50t45 -31 t68.5 -11.5t68.5 11.5t45 31t26 50t13 61.5t3.5 74v685q0 55 -5.5 91.5t-21.5 68.5t-48 48t-81 16t-81 -16t-47.5 -48t-21 -68.5t-5.5 -91.5v-685z" />
<glyph unicode="R" horiz-adv-x="1033" d="M113 0v1509h346q119 0 204.5 -19.5t148.5 -65.5t94.5 -125t31.5 -192q0 -142 -42 -232.5t-140 -131.5l210 -743h-276l-180 689h-122v-689h-275zM388 864h66q122 0 173.5 52t51.5 178q0 121 -44.5 173.5t-164.5 52.5h-82v-456z" />
<glyph unicode="S" horiz-adv-x="919" d="M75 442l239 50q9 -299 171 -299q63 0 93.5 38t30.5 103q0 63 -23 115t-53 85.5t-85 82.5l-199 172q-87 76 -130 158.5t-43 206.5q0 176 103.5 273t283.5 99h7q78 0 140 -20q64 -22 105 -58t69 -89.5t41.5 -111.5t18.5 -129l-234 -46q-2 45 -6 79t-14 68.5t-26 56t-43 34 t-62 10.5q-61 -4 -93.5 -41t-32.5 -99q0 -73 28.5 -119.5t89.5 -100.5l197 -171q49 -45 85.5 -86.5t69.5 -95.5t50.5 -118.5t17.5 -136.5q0 -165 -104.5 -267.5t-273.5 -102.5q-398 0 -418 460z" />
<glyph unicode="T" horiz-adv-x="787" d="M7 1306v203h773v-203h-245v-1306h-275v1306h-253z" />
<glyph unicode="U" horiz-adv-x="1050" d="M101 507v1002h267v-1030q0 -53 2.5 -90.5t11.5 -78.5t26 -65.5t46.5 -41t71.5 -16.5t71.5 16.5t45.5 41t25.5 65.5t11.5 78t2 91v1030h267v-1002q0 -103 -11.5 -181t-40 -144.5t-76 -109.5t-121.5 -66.5t-174 -23.5q-101 0 -175 23.5t-122 66.5t-76.5 109.5t-40 144.5 t-11.5 181z" />
<glyph unicode="V" horiz-adv-x="963" d="M43 1509h244l198 -1050l187 1050h250l-308 -1509h-265z" />
<glyph unicode="W" horiz-adv-x="1337" d="M61 1509h231l124 -973l161 973h185l164 -974l124 974h227l-216 -1509h-219l-170 1007l-170 -1007h-225z" />
<glyph unicode="X" horiz-adv-x="930" d="M19 0l303 801l-295 708h258l195 -468l169 468h241l-291 -756l313 -753h-257l-211 506l-186 -506h-239z" />
<glyph unicode="Y" horiz-adv-x="910" d="M17 1509h257l186 -601l179 601h254l-306 -935v-574h-262v574z" />
<glyph unicode="Z" horiz-adv-x="791" d="M66 0v180l400 1139h-380v190h661v-136l-419 -1183h420v-190h-682z" />
<glyph unicode="[" horiz-adv-x="639" d="M106 -351l1 1860h449v-113h-223l-1 -1634h223v-113h-449z" />
<glyph unicode="\" horiz-adv-x="738" d="M66 1509h178l427 -1509h-177z" />
<glyph unicode="]" horiz-adv-x="596" d="M41 -238h223l-1 1634h-222v113h449v-1860h-449v113z" />
<glyph unicode="^" horiz-adv-x="867" d="M62 891l257 618h228l259 -618h-229l-144 413l-143 -413h-228z" />
<glyph unicode="_" horiz-adv-x="664" d="M0 -104h664v-181h-664v181z" />
<glyph unicode="`" horiz-adv-x="555" d="M94 1509h258l110 -372h-144z" />
<glyph unicode="a" horiz-adv-x="843" d="M73 240q0 94 31 164t101.5 120t117 73t142.5 60q27 11 41 16v90q0 73 -17 107t-69 34q-84 0 -86 -119l-4 -67l-244 9q0 6 0.5 20.5t0.5 18.5q12 169 101 248.5t253 79.5q160 0 236.5 -86.5t76.5 -244.5v-493q0 -123 20 -270h-230q-21 106 -26 158q-23 -74 -76 -124.5 t-137 -50.5q-102 1 -167 79.5t-65 177.5zM317 306q0 -58 22 -92t63 -34q29 0 58 22t46 45v296q-189 -104 -189 -237z" />
<glyph unicode="b" horiz-adv-x="889" d="M100 0v1509h255v-513q98 98 215 98h2q58 -1 102 -26.5t69 -63.5t41 -89t21.5 -95.5t5.5 -89.5v-353q0 -82 -13.5 -151t-43 -124.5t-80 -87t-118.5 -31.5q-101 0 -201 96v-79h-255zM355 199q52 -33 113 -33q28 0 46.5 15.5t27.5 46t11.5 62.5t2.5 79v371q0 38 -3.5 67 t-13.5 56t-29.5 41t-48.5 13q-51 -1 -106 -42v-676z" />
<glyph unicode="c" horiz-adv-x="818" d="M77 383v312q0 195 80.5 297t262.5 102q172 0 250 -81t78 -251v-88h-237v92q0 82 -20 114.5t-68 32.5q-54 0 -72.5 -38.5t-18.5 -141.5v-394q0 -102 20.5 -138t70.5 -36q51 0 69.5 35t18.5 106v115h237v-102q0 -167 -79.5 -251.5t-248.5 -84.5q-182 0 -262.5 102.5 t-80.5 297.5z" />
<glyph unicode="d" horiz-adv-x="881" d="M79 374v313q0 87 13.5 157t42 128t80.5 90t124 32q101 0 191 -83v498h254v-1509h-254v74q-87 -90 -188 -91q-132 0 -197.5 93.5t-65.5 297.5zM335 355q0 -58 6.5 -96.5t28.5 -66t61 -27.5q47 0 99 29v688q-52 33 -100 33q-51 0 -73 -46.5t-22 -118.5v-395z" />
<glyph unicode="e" horiz-adv-x="832" d="M77 386v305q0 199 82 301t264 102q97 0 163 -28.5t102.5 -85.5t52 -132t15.5 -181v-141h-426v-162q0 -34 0.5 -52.5t3.5 -45t9 -41t16 -29.5t26 -21.5t38 -6.5q51 0 71 36t20 104v62h241v-42q0 -168 -83 -256.5t-248 -88.5q-185 0 -266 102t-81 301zM330 653h184v103 q0 82 -20.5 117.5t-72.5 35.5t-71.5 -40t-19.5 -146v-70z" />
<glyph unicode="f" horiz-adv-x="567" d="M34 896v181h116v58q0 66 5.5 111.5t21.5 89.5t45 69.5t77.5 41t116.5 15.5q52 0 139 -10v-189q-6 1 -31.5 5t-37.5 4q-46 0 -64 -28.5t-18 -83.5v-83h151v-181h-151v-896h-254v896h-116z" />
<glyph unicode="g" horiz-adv-x="864" d="M41 -144q0 136 152 229q-109 37 -116 121v14q0 49 25 86q29 43 99 100q-60 45 -90 113.5t-30 183.5q0 198 86 294.5t249 96.5q167 0 231 -106q20 25 60.5 58.5t85.5 55.5l35 16l60 -142q-32 -8 -96.5 -32.5t-86.5 -38.5q18 -31 30.5 -89t12.5 -116q0 -370 -323 -370 q-26 0 -72 8t-60 13q-29 -43 -29 -68q0 -39 95 -48q10 -2 96 -10.5t100 -10.5q136 -15 198.5 -79t62.5 -183q0 -143 -80 -211t-266 -68q-49 0 -85 1t-83 5t-81 12t-70 21.5t-58.5 32t-37 47.5t-14.5 64zM268 -66q0 -30 14.5 -46t58.5 -25.5t127 -9.5q78 0 114 20t37 64v9 q0 41 -25 62q-27 22 -99 28l-171 17q-56 -65 -56 -119zM318 710q0 -44 1.5 -74.5t8 -58.5t17.5 -45t29 -27t45 -10q63 0 82.5 47.5t19.5 167.5q0 124 -18.5 172t-82.5 48t-83 -48.5t-19 -171.5z" />
<glyph unicode="h" horiz-adv-x="891" d="M102 0v1509h254v-536q127 121 268 121q38 0 68.5 -13.5t50.5 -35.5t33 -52.5t18.5 -63t5.5 -68.5v-861h-254v804q0 51 -15 76q-14 24 -54 24h-3q-50 -1 -118 -53v-851h-254z" />
<glyph unicode="i" horiz-adv-x="463" d="M106 0v1077h254v-1077h-254zM106 1248v214h255v-214h-255z" />
<glyph unicode="j" horiz-adv-x="471" d="M-27 -97q33 -7 53 -7q97 0 97 110v1071h254v-1100q0 -127 -71.5 -201t-200.5 -74q-79 0 -132 19v182zM122 1248v214h257v-214h-257z" />
<glyph unicode="k" horiz-adv-x="897" d="M100 2v1509h253v-864l269 430h276l-264 -431l260 -646h-267l-192 530l-82 -117v-411h-253z" />
<glyph unicode="l" horiz-adv-x="471" d="M114 0v1509h255v-1509h-255z" />
<glyph unicode="m" horiz-adv-x="1336" d="M97 0v1077h242v-94q109 114 256 114q135 0 179 -132q114 132 272 132q91 0 145.5 -65.5t54.5 -190.5v-841h-242v819q0 59 -20 83q-19 24 -55 24h-3q-66 -1 -133 -62q0 -4 0.5 -11.5t0.5 -11.5v-841h-242v819q0 59 -20 83q-19 24 -55 24h-3q-64 -1 -135 -63v-863h-242z " />
<glyph unicode="n" horiz-adv-x="882" d="M97 0v1077h255v-105q130 122 263 122q92 0 134.5 -67.5t42.5 -165.5v-861h-255v804q-1 51 -15 76q-14 24 -53 24h-3q-47 -1 -114 -50v-854h-255z" />
<glyph unicode="o" horiz-adv-x="845" d="M77 360v356q0 182 85.5 280t258.5 98q175 0 261 -98t86 -280v-356q0 -182 -86 -279.5t-261 -97.5q-173 0 -258.5 97.5t-85.5 279.5zM329 343q0 -34 1.5 -56t6.5 -48t15 -41t27.5 -25.5t42.5 -10.5q31 0 50.5 13.5t28.5 42.5t11.5 55.5t2.5 69.5v390q0 34 -1.5 56.5 t-6.5 48.5t-15 41.5t-27 25.5t-43 10q-31 0 -50.5 -14t-28 -42.5t-11.5 -55.5t-3 -70v-390z" />
<glyph unicode="p" horiz-adv-x="888" d="M97 -355v1432h255v-82q99 99 216 99h2q57 -1 101 -26.5t69 -63.5t41 -89t21.5 -95.5t5.5 -89.5v-353q0 -82 -13.5 -151t-42.5 -124.5t-79.5 -87t-119.5 -31.5q-100 0 -201 97v-435h-255zM352 199q55 -33 112 -33q28 0 47.5 15.5t28 46t11.5 63t3 78.5v371q0 37 -4 66.5 t-14 56.5t-30 41t-48 13q-50 -1 -106 -42v-676z" />
<glyph unicode="q" horiz-adv-x="883" d="M80 374v313q0 69 8 127t26.5 110.5t47.5 89.5t74 58.5t103 21.5q103 0 193 -86v69h255v-1432h-255v431q-88 -92 -189 -93q-133 0 -198 93.5t-65 297.5zM335 355q0 -57 7 -96t29.5 -66.5t61.5 -27.5q45 0 99 30v686q-52 34 -100 34q-52 0 -74.5 -46.5t-22.5 -118.5v-395z " />
<glyph unicode="r" horiz-adv-x="646" d="M101 0v1077h255v-165q54 95 109 137t117 42q20 0 39 -4v-253q-43 17 -89 17q-54 -2 -95.5 -27.5t-80.5 -84.5v-739h-255z" />
<glyph unicode="s" horiz-adv-x="738" d="M40 272l193 70q21 -89 57 -135q35 -44 86 -44h4q40 1 66 29q24 26 24 61v6q-3 59 -106 147l-145 124q-153 131 -153 275v6q3 129 88 206t217 77q127 0 206 -76.5t103 -204.5l-168 -70q-34 167 -129 168h-3q-38 -1 -61 -25q-24 -26 -24 -62q0 -49 90 -127l147 -134 q38 -32 62.5 -58t51 -63.5t40 -80.5t13.5 -92q0 -136 -90.5 -211t-231.5 -75q-134 0 -219.5 74.5t-117.5 214.5z" />
<glyph unicode="t" horiz-adv-x="618" d="M35 909v168h106v317h256v-317h164v-168h-164v-621q0 -53 23 -76.5t74 -24.5q36 0 77 6v-195q-101 -13 -164 -13h-9q-74 1 -125.5 25t-79 68t-40 98.5t-12.5 127.5v605h-106z" />
<glyph unicode="u" horiz-adv-x="879" d="M90 217v860h254v-809q0 -50 16 -74q15 -24 54 -24h3q44 0 109 46v861h254v-1077h-254v101q-128 -117 -259 -117q-92 0 -134.5 67t-42.5 166z" />
<glyph unicode="v" horiz-adv-x="751" d="M24 1077h249l106 -781l106 781h246l-209 -1077h-288z" />
<glyph unicode="w" horiz-adv-x="1107" d="M46 1077h211l92 -698l115 698h187l108 -702l100 702h202l-171 -1077h-216l-118 674l-124 -674h-220z" />
<glyph unicode="x" horiz-adv-x="769" d="M16 0l234 577l-227 500h249l136 -297l117 297h221l-230 -535l247 -542h-251l-149 326l-122 -326h-225z" />
<glyph unicode="y" horiz-adv-x="778" d="M12 1077h249l134 -708l117 708h249l-256 -1133q-28 -128 -123 -180q-92 -52 -242 -52h-6h-31v183q116 0 153 23q27 16 27 60q0 15 -3 34q-12 64 -37 158q-26 108 -117 459t-114 448z" />
<glyph unicode="z" horiz-adv-x="686" d="M62 0v167l310 722h-282v188h551v-146l-311 -742h308v-189h-576z" />
<glyph unicode="{" horiz-adv-x="632" d="M81 493v179q27 0 44 2.5t30.5 13t20.5 25.5t11.5 47t6 69t1.5 99v218q0 65 1.5 107.5t8.5 85t18 68t31.5 50t47.5 36.5t68 22t91.5 13.5t119.5 3.5v-180q-33 0 -53.5 -1.5t-37.5 -11.5t-24 -21.5t-12 -40t-6 -57t-1 -82.5v-242q0 -147 -34.5 -221.5t-109.5 -92.5 q75 -17 109.5 -91.5t34.5 -222.5v-242q0 -53 1 -82t6 -57t12 -39.5t24 -21.5t37.5 -11.5t53.5 -1.5v-180q-69 0 -119.5 3.5t-91.5 13.5t-68 22t-47.5 36t-31.5 49.5t-18 68.5t-8.5 85.5t-1.5 107.5v218q0 61 -1.5 98.5t-6 69.5t-11.5 47t-20.5 25.5t-30.5 13t-44 2.5z" />
<glyph unicode="|" horiz-adv-x="471" d="M124 -303l2 1813l221 -1l-1 -1812h-222z" />
<glyph unicode="}" horiz-adv-x="661" d="M80 -187q34 0 54.5 1.5t37 11.5t24 21.5t12.5 39.5t6 57t1 82v242q0 148 34.5 222.5t109.5 91.5q-75 18 -109.5 92.5t-34.5 221.5v242q0 54 -1 82.5t-6 57t-12.5 40t-24 21.5t-37 11.5t-54.5 1.5v180q69 0 119.5 -3.5t92 -13.5t68.5 -22t47.5 -36.5t31.5 -50t17.5 -68 t8.5 -85t2 -107.5v-218q0 -62 1.5 -99t6 -69t11 -47t20.5 -25.5t30.5 -13t44.5 -2.5v-179q-28 0 -44.5 -2.5t-30.5 -13t-20.5 -25.5t-11 -47t-6 -69.5t-1.5 -98.5v-218q0 -65 -2 -107.5t-8.5 -85.5t-17.5 -68.5t-31.5 -49.5t-47.5 -36t-68.5 -22t-92 -13.5t-119.5 -3.5v180z " />
<glyph unicode="~" horiz-adv-x="872" d="M68 793q44 56 110.5 105.5t116.5 49.5q42 0 99 -26.5t110 -53.5t85 -27q41 0 131 81l90 -104q-39 -63 -105 -116.5t-121 -53.5q-43 0 -100 27.5t-111 54.5t-85 27q-25 0 -63.5 -22.5t-70.5 -56.5z" />
<glyph unicode="&#xad;" d="M105 506v176h449v-176h-449z" />
<glyph unicode="&#x400;" horiz-adv-x="794" d="M113 0v1509h631v-194h-356v-433h282v-194h-282v-498h361v-190h-636zM134 2009h258l110 -372h-143z" />
<glyph unicode="&#x401;" horiz-adv-x="794" d="M113 0v1509h631v-194h-356v-433h282v-194h-282v-498h361v-190h-636zM137 1637v242h229v-242h-229zM495 1637v242h229v-242h-229z" />
<glyph unicode="&#x402;" horiz-adv-x="1097" d="M12 1312v197h723v-197h-245v-488q89 71 214 71q60 0 115.5 -19t101 -53.5t72.5 -92t27 -128.5v-212q0 -207 -89 -298.5t-282 -91.5h-52v176q95 0 132 56t37 159v193q0 56 -34.5 98.5t-99.5 42.5q-61 0 -142 -43v-682h-269v1312h-209z" />
<glyph unicode="&#x403;" horiz-adv-x="784" d="M116 0v1509h632v-203h-358v-1306h-274zM359 1637l111 372h258l-224 -372h-145z" />
<glyph unicode="&#x404;" horiz-adv-x="982" d="M88 489v526q0 98 13 174t43 141t78.5 107t123 65.5t172.5 23.5q113 0 193 -30t126.5 -88t67 -136t20.5 -182v-70h-264v69q0 113 -12 152q-24 77 -116 82h-14q-35 0 -61 -8t-42.5 -26t-26.5 -38t-15 -52t-6 -59.5t-1 -69.5v-214h314v-168h-314v-257q0 -133 33 -189 t119 -56q29 0 51 6.5t37 17t25.5 30t16 36.5t8.5 47t3.5 51t0.5 57v79h264v-68q0 -84 -11.5 -151.5t-40.5 -126.5t-74.5 -98.5t-116 -61.5t-164.5 -22q-98 0 -172.5 24.5t-123 68t-79 108.5t-43 139t-12.5 167z" />
<glyph unicode="&#x405;" horiz-adv-x="919" d="M75 442l239 50q9 -299 171 -299q63 0 93.5 38t30.5 103q0 63 -23 115t-53 85.5t-85 82.5l-199 172q-87 76 -130 158.5t-43 206.5q0 176 103.5 273t283.5 99q83 1 146.5 -20.5t105 -57.5t69.5 -89.5t41.5 -111.5t18.5 -129l-234 -46q-2 45 -6 79t-14 68.5t-26 56t-43 34 t-62 10.5q-61 -4 -93.5 -41t-32.5 -99q0 -73 28.5 -119.5t89.5 -100.5l197 -171q49 -45 85.5 -86.5t69.5 -95.5t50.5 -118.5t17.5 -136.5q0 -165 -104.5 -267.5t-273.5 -102.5q-398 0 -418 460z" />
<glyph unicode="&#x406;" horiz-adv-x="493" d="M115 0v1509h271v-1509h-271z" />
<glyph unicode="&#x407;" horiz-adv-x="493" d="M-43 1637v242h229v-242h-229zM115 0v1509h271v-1509h-271zM315 1637v242h229v-242h-229z" />
<glyph unicode="&#x408;" horiz-adv-x="587" d="M11 -32v193q120 -1 160 36.5t40 153.5v1158h275v-1164q-1 -99 -17.5 -167t-55 -116.5t-105.5 -71t-166 -22.5h-131z" />
<glyph unicode="&#x409;" horiz-adv-x="1605" d="M21 0v198q80 -4 124.5 27.5t71 122.5t38.5 265l55 896h737v-632h29q122 0 208 -21.5t147.5 -71.5t91 -134.5t29.5 -208.5q0 -125 -31.5 -212t-96 -136.5t-150.5 -71t-204 -21.5h-297v1303h-219l-40 -692q-19 -335 -112.5 -476.5t-303.5 -135.5zM1047 187h24 q83 0 130 20.5t71.5 77.5t23.5 160q-1 127 -51 183.5t-178 56.5h-20v-498z" />
<glyph unicode="&#x40a;" horiz-adv-x="1506" d="M116 1v1510h274v-625h283v625h275v-634h28q121 0 207 -21.5t147.5 -71.5t91 -134.5t29.5 -208.5q0 -125 -31.5 -212t-96 -136.5t-150.5 -71t-204 -21.5l-296 1v682h-283v-682h-274zM948 187h22q62 0 102.5 11t69.5 39.5t42 79t12 128.5q-1 127 -51 183.5t-179 56.5h-18 v-498z" />
<glyph unicode="&#x40b;" horiz-adv-x="1016" d="M8 1306v203h700v-203h-224v-476q10 6 28.5 15t73.5 24t109 15q103 0 165 -52.5t62 -136.5v-695h-255v650q0 40 -14.5 60t-56.5 19q-13 0 -26.5 -3t-23.5 -6t-22 -8.5t-18 -8.5t-15 -8l-7 -4v-691h-271v1306h-205z" />
<glyph unicode="&#x40c;" horiz-adv-x="1006" d="M116 0v1509h274v-635h54l244 635h273l-283 -712l306 -797h-279l-260 703h-55v-703h-274zM477 1637l111 372h257l-223 -372h-145z" />
<glyph unicode="&#x40d;" horiz-adv-x="1056" d="M116 0v1509h228v-943l409 943h188v-1509h-231v961l-411 -961h-183zM232 2009h258l111 -372h-144z" />
<glyph unicode="&#x40e;" horiz-adv-x="923" d="M35 1509h257l124 -627l65 -445l55 443l107 629h262l-286 -1373q-30 -143 -51.5 -205.5t-76 -119.5t-144.5 -69.5t-250 -5.5v195q176 -14 229 37.5t21 189.5zM203 1901h128q0 -75 34 -108.5t105 -33.5t104.5 33.5t33.5 108.5h129q0 -122 -65 -193t-202 -71t-202 71 t-65 193z" />
<glyph unicode="&#x40f;" horiz-adv-x="1067" d="M113 0v1509h275v-1307h292v1307h275v-1509h-303l-14 -299h-202l-13 299h-310z" />
<glyph unicode="&#x410;" horiz-adv-x="969" d="M35 0l306 1509h287l306 -1509h-256l-61 350h-261l-62 -350h-259zM385 530h202l-101 619z" />
<glyph unicode="&#x411;" horiz-adv-x="973" d="M116 0v1509h698v-204h-424v-428h45q122 0 208 -21.5t148 -71.5t91.5 -134.5t29.5 -208.5q0 -101 -21.5 -177t-61 -126t-100 -81t-133.5 -44t-166 -13h-314zM390 187h40q61 0 101.5 11t70 39.5t42 79t11.5 128.5q-1 127 -51 183.5t-178 56.5h-36v-498z" />
<glyph unicode="&#x412;" horiz-adv-x="1035" d="M116 0v1509h369q105 0 183 -19t138.5 -62t91 -119.5t29.5 -184.5q-1 -280 -221 -312q265 -50 266 -374q1 -215 -107.5 -326.5t-315.5 -111.5h-433zM390 194h101q124 0 171 57t47 189q0 137 -53.5 198.5t-178.5 61.5h-87v-506zM390 894h86q122 0 167.5 51.5t45.5 174.5 q0 64 -15 103.5t-50.5 59.5t-79 26.5t-114.5 6.5h-40v-422z" />
<glyph unicode="&#x413;" horiz-adv-x="784" d="M116 0v1509h632v-203h-358v-1306h-274z" />
<glyph unicode="&#x414;" horiz-adv-x="1233" d="M25 196h61q49 29 85.5 78t71.5 141t58 246.5t35 373.5l29 474h673v-1313h160v-495h-196l-18 299h-739l-18 -299h-202v495zM340 196h434v1114h-190l-13 -321q-6 -125 -16.5 -228t-22 -174t-31.5 -131.5t-34 -94.5t-41 -70t-41.5 -51t-44.5 -44z" />
<glyph unicode="&#x415;" horiz-adv-x="794" d="M113 0v1509h631v-194h-356v-433h282v-194h-282v-498h361v-190h-636z" />
<glyph unicode="&#x416;" horiz-adv-x="1367" d="M5 0l334 764l-310 745h260l269 -719h13v719h224v-719h14l268 719h262l-310 -745l333 -764h-256l-296 744h-15v-744h-224v744h-14l-295 -744h-257z" />
<glyph unicode="&#x417;" horiz-adv-x="935" d="M46 1052v70q0 191 109 298t298 107q192 0 300.5 -105t108.5 -296q0 -129 -55.5 -216.5t-146.5 -114.5q202 -70 202 -360q0 -216 -95 -336t-298 -120q-202 0 -298.5 112t-96.5 316v53h258q0 -44 1 -57q3 -107 32 -157.5t105 -50.5q35 0 60 11t39.5 30.5t22.5 51t10.5 64 t2.5 79.5q0 121 -47 184.5t-168 71.5q-11 1 -64 1v188q49 0 59 1q124 6 172 64t48 176q0 99 -34.5 150.5t-112.5 51.5q-142 0 -151 -202q-1 -11 -1 -65h-260z" />
<glyph unicode="&#x418;" horiz-adv-x="1056" d="M116 0v1509h228v-943l409 943h188v-1509h-231v961l-411 -961h-183z" />
<glyph unicode="&#x419;" horiz-adv-x="1056" d="M116 0v1509h228v-943l409 943h188v-1509h-231v961l-411 -961h-183zM261 1901h128q0 -75 34 -108.5t105 -33.5t104.5 33.5t33.5 108.5h129q0 -122 -65 -193t-202 -71t-202 71t-65 193z" />
<glyph unicode="&#x41a;" horiz-adv-x="1006" d="M116 0v1509h274v-635h54l244 635h273l-283 -712l306 -797h-279l-260 703h-55v-703h-274z" />
<glyph unicode="&#x41b;" horiz-adv-x="1146" d="M4 0v198q45 -1 72 3t54 22.5t42 51.5t30 95.5t25 149.5t18 217l50 772h736v-1509h-275v1303h-219l-33 -594q-5 -93 -11 -159t-15.5 -137.5t-23 -119t-33 -97t-45.5 -80t-61.5 -57.5t-81 -40t-102.5 -18.5t-127 -0.5z" />
<glyph unicode="&#x41c;" horiz-adv-x="1271" d="M110 0l25 1509h270l230 -1015l237 1015h264l25 -1509h-205l-14 979l-232 -979h-145l-236 982l-12 -982h-207z" />
<glyph unicode="&#x41d;" horiz-adv-x="1087" d="M116 0v1509h274v-631h307v631h275v-1509h-275v682h-307v-682h-274z" />
<glyph unicode="&#x41e;" horiz-adv-x="1046" d="M88 479v557q0 120 23 208t73.5 152.5t135 97t203.5 32.5q232 0 333.5 -124.5t101.5 -365.5v-557q0 -119 -23 -208.5t-73.5 -155.5t-135 -99.5t-203.5 -33.5q-233 0 -334 126.5t-101 370.5zM368 414q0 -43 3 -74t12.5 -61.5t26 -50t45 -31t68.5 -11.5t68.5 11.5t45 31 t26 50t13 61.5t3.5 74v685q0 55 -5.5 91.5t-21.5 68.5t-48 48t-81 16t-81 -16t-47.5 -48t-21 -68.5t-5.5 -91.5v-685z" />
<glyph unicode="&#x41f;" horiz-adv-x="1097" d="M113 0v1509h872v-1509h-272v1313h-328v-1313h-272z" />
<glyph unicode="&#x420;" horiz-adv-x="963" d="M113 0v1509h434q386 0 386 -429q0 -210 -105.5 -308t-297.5 -98h-142v-674h-275zM388 867h88q116 0 157 46t41 169q0 70 -5.5 108t-25.5 69.5t-59.5 43.5t-106.5 12h-89v-448z" />
<glyph unicode="&#x421;" horiz-adv-x="1002" d="M88 489v526q0 98 13 174t43 141t78.5 107t123 65.5t172.5 23.5q113 0 193 -30t126.5 -88t67 -136t20.5 -182v-129h-264v128q0 113 -12 152q-24 77 -116 82h-14q-35 0 -61 -8t-42.5 -26t-26.5 -38t-15 -52t-6 -59.5t-1 -69.5v-639q0 -133 33 -189t119 -56q29 0 51 6.5 t37 17t25.5 30t16 36.5t8.5 47t3.5 51t0.5 57v135h264v-124q0 -84 -11.5 -151.5t-40.5 -126.5t-74.5 -98.5t-116 -61.5t-164.5 -22q-98 0 -172.5 24.5t-123 68t-79 108.5t-43 139t-12.5 167z" />
<glyph unicode="&#x422;" horiz-adv-x="787" d="M7 1306v203h773v-203h-245v-1306h-275v1306h-253z" />
<glyph unicode="&#x423;" horiz-adv-x="923" d="M35 1509h257l124 -627l65 -445l55 443l107 629h262l-286 -1373q-30 -143 -51.5 -205.5t-76 -119.5t-144.5 -69.5t-250 -5.5v195q176 -14 229 37.5t21 189.5z" />
<glyph unicode="&#x424;" horiz-adv-x="1324" d="M87 565v404q0 202 105 300.5t292 85.5l53 -1v271h247v-271l52 1q190 13 296 -85.5t106 -301.5v-403q0 -204 -106 -303.5t-291 -83.5l-57 2v-237h-247v237l-48 -2q-191 -16 -296.5 83t-105.5 304zM332 563q0 -128 34 -175.5t145 -41.5q1 0 12.5 0.5t13.5 0.5v844 q-2 0 -14 0.5t-13 0.5q-57 3 -92 -8t-54 -40t-25.5 -68.5t-6.5 -104.5v-408zM784 347l15 -0.5l15 -0.5q58 -3 93 7t54 38.5t25.5 67.5t6.5 104v407q0 65 -6.5 104t-25.5 68.5t-54.5 40.5t-92.5 9q-2 0 -16 -0.5l-14 -0.5v-844z" />
<glyph unicode="&#x425;" horiz-adv-x="930" d="M19 0l303 801l-295 708h258l195 -468l169 468h241l-291 -756l313 -753h-257l-211 506l-186 -506h-239z" />
<glyph unicode="&#x426;" horiz-adv-x="1222" d="M116 0v1509h274v-1319h343v1319h273v-1319h175v-489h-205l-30 299h-830z" />
<glyph unicode="&#x427;" horiz-adv-x="1063" d="M86 1001v508h259v-507q0 -47 7.5 -79t27 -57.5t58 -38t96.5 -12.5q62 0 139 16v678h274v-1509h-274v663q-110 -21 -202 -21q-179 0 -282 93t-103 266z" />
<glyph unicode="&#x428;" horiz-adv-x="1467" d="M116 0v1509h266v-1312h224v1312h266v-1312h214v1312h266v-1509h-1236z" />
<glyph unicode="&#x429;" horiz-adv-x="1588" d="M116 0v1509h266v-1319h224v1319h266v-1319h215v1319h266v-1319h175v-489h-207l-27 299h-1178z" />
<glyph unicode="&#x42a;" horiz-adv-x="1113" d="M-5 1311v198h528v-632h58q122 0 208 -21.5t148 -71.5t91.5 -134.5t29.5 -208.5q0 -101 -21 -177t-61 -126t-100.5 -81t-133 -44t-166.5 -13h-328v1311h-253zM523 187h53q62 0 102.5 11t69.5 39.5t42 79t12 128.5q-1 127 -51 183.5t-179 56.5h-49v-498z" />
<glyph unicode="&#x42b;" horiz-adv-x="1449" d="M116 0v1509h274v-632h54q122 0 207.5 -21.5t147.5 -71.5t91.5 -134.5t29.5 -208.5q0 -125 -32 -212t-96.5 -136.5t-150 -71t-203.5 -21.5h-322zM390 187h49q61 0 101.5 11t70 39.5t42 79t11.5 128.5q-1 127 -51 183.5t-178 56.5h-45v-498zM1059 0v1509h275v-1509h-275z " />
<glyph unicode="&#x42c;" horiz-adv-x="977" d="M116 0v1509h274v-632h53q122 0 208 -21.5t148 -71.5t91.5 -134.5t29.5 -208.5q0 -125 -32 -212t-97 -136.5t-150.5 -71t-203.5 -21.5h-321zM390 187h48q62 0 102.5 11t69.5 39.5t41.5 79t11.5 128.5q-1 127 -51 183.5t-178 56.5h-44v-498z" />
<glyph unicode="&#x42d;" horiz-adv-x="1016" d="M90 433v78h265v-77v-4v-42.5t1.5 -37.5t3.5 -36.5t7 -31t12 -28.5t18 -22t25 -18t32.5 -10t42.5 -4q34 0 60 8.5t42.5 26t27 37.5t15.5 52.5t6.5 59.5t1.5 69v243h-250v158h250v238q0 134 -33.5 190t-119.5 56q-34 0 -58.5 -8t-40 -26t-24.5 -36.5t-13 -51.5t-5 -57 t-1 -67v-80h-265v69q0 107 19.5 187t64.5 143.5t126.5 97t198.5 33.5q122 0 207 -37t132.5 -107t68 -158.5t20.5 -204.5v-526q0 -123 -20.5 -213t-68 -159.5t-132.5 -104.5t-207 -35q-113 0 -193 30t-127 88.5t-68 136t-21 181.5z" />
<glyph unicode="&#x42e;" horiz-adv-x="1435" d="M116 0v1509h264v-638h169v154q0 121 20 209.5t65 156t123 101.5t190 34q111 0 190 -34.5t124.5 -102t65.5 -156.5t20 -208v-535q0 -120 -20 -210t-65.5 -158.5t-124.5 -104t-190 -35.5q-112 0 -190 35t-123 103.5t-65 158.5t-20 211v177h-169v-667h-264zM800 414 q0 -43 2.5 -74t12 -61.5t25 -50t43 -31t65 -11.5t64.5 11.5t43 31t25 50t12 61.5t3 74v685q0 55 -5 91.5t-20 68.5t-45 48t-78 16q-46 0 -76.5 -16t-45 -48t-20 -68.5t-5.5 -91.5v-685z" />
<glyph unicode="&#x42f;" horiz-adv-x="1068" d="M19 0l305 674q-96 50 -152 153t-56 250q0 220 120.5 326t376.5 106h340v-1509h-275v611h-82h-33l-242 -611h-302zM373 1077q0 -137 58.5 -204.5t195.5 -67.5h51v512h-56q-126 0 -187.5 -58.5t-61.5 -181.5z" />
<glyph unicode="&#x430;" horiz-adv-x="843" d="M73 240q0 94 31 164t101.5 120t117 73t142.5 60q27 11 41 16v90q0 73 -17 107t-69 34q-84 0 -86 -119l-4 -67l-244 9q0 6 0.5 20.5t0.5 18.5q12 169 101 248.5t253 79.5q160 0 236.5 -86.5t76.5 -244.5v-493q0 -123 20 -270h-230q-21 106 -26 158q-23 -74 -76 -124.5 t-137 -50.5q-102 1 -167 79.5t-65 177.5zM317 306q0 -58 22 -92t63 -34q29 0 58 22t46 45v296q-189 -104 -189 -237z" />
<glyph unicode="&#x431;" horiz-adv-x="851" d="M90 384v557q0 118 9.5 204t26 142.5t47 94.5t63 58t83.5 36t99.5 26t121 30.5t138.5 47.5l37 -200q-64 -30 -129 -47t-101.5 -21t-70 -15t-49 -34t-24 -70t-8.5 -131v-100q91 52 184 52q124 0 190.5 -90.5t66.5 -299.5v-233q0 -98 -17.5 -171t-47.5 -118t-76 -71.5 t-97 -36.5t-117 -10q-175 1 -252 101t-77 299zM340 384q0 -134 18.5 -179.5t77.5 -45.5q53 0 71.5 43.5t18.5 163.5v325q0 89 -17 125.5t-60 36.5q-60 0 -109 -81v-388z" />
<glyph unicode="&#x432;" horiz-adv-x="853" d="M98 0v1077h342q97 0 164 -19.5t102.5 -57t50.5 -81.5t16 -104q1 -93 -35 -149t-117 -79q100 -22 139.5 -93t39.5 -181q0 -157 -81.5 -235t-279.5 -78h-341zM349 166h54q27 0 45.5 2t39.5 10.5t33.5 25t21 46t8.5 71.5q0 41 -4.5 70.5t-15 48t-21 29.5t-29.5 16t-33 5.5 t-39 0.5h-60v-325zM349 651h81q57 0 83.5 32t26.5 106q0 68 -31 99t-99 31h-61v-268z" />
<glyph unicode="&#x433;" horiz-adv-x="592" d="M97 0v1077h484v-175h-229v-902h-255z" />
<glyph unicode="&#x434;" horiz-adv-x="1021" d="M25 162q62 40 107 93.5t81.5 135.5t56 200.5t22.5 272.5l13 213h540v-909h145v-453h-184l-19 285h-559l-18 -285h-185v447zM287 168h320v742h-109l-9 -102q-2 -124 -14 -222.5t-29.5 -164t-44.5 -117t-53.5 -81t-60.5 -55.5z" />
<glyph unicode="&#x435;" horiz-adv-x="832" d="M77 386v305q0 199 82 301t264 102q97 0 163 -28.5t102.5 -85.5t52 -132t15.5 -181v-141h-426v-162q0 -34 0.5 -52.5t3.5 -45t9 -41t16 -29.5t26 -21.5t38 -6.5q51 0 71 36t20 104v62h241v-42q0 -168 -83 -256.5t-248 -88.5q-185 0 -266 102t-81 301zM330 653h184v103 q0 82 -20.5 117.5t-72.5 35.5t-71.5 -40t-19.5 -146v-70z" />
<glyph unicode="&#x436;" horiz-adv-x="1158" d="M10 0l241 546l-226 531h232l197 -516h17v516h211v-516h17l202 516h232l-230 -531l245 -546h-223l-225 524h-18v-524h-211v524h-18l-220 -524h-223z" />
<glyph unicode="&#x437;" horiz-adv-x="761" d="M57 752q0 172 79.5 257t250.5 85q81 0 143 -24t99.5 -65t56 -93t18.5 -111q0 -62 -15 -108.5t-41 -73.5t-54.5 -41t-61.5 -19q32 -9 51.5 -17t45.5 -27t41 -44.5t26 -70.5t11 -105q0 -150 -80.5 -232t-244.5 -82q-174 0 -244.5 92.5t-70.5 273.5h210q0 -99 28 -144 t84 -45q31 0 52 12.5t30 38.5t12.5 52.5t3.5 67.5q0 92 -43 121t-166 29v154q119 0 160 32.5t41 117.5q0 130 -104 130q-57 0 -83 -34.5t-26 -126.5h-209z" />
<glyph unicode="&#x438;" horiz-adv-x="901" d="M97 0v1077h208v-643l301 643h198v-1077h-207v646l-297 -646h-203z" />
<glyph unicode="&#x439;" horiz-adv-x="901" d="M97 0v1077h208v-643l301 643h198v-1077h-207v646l-297 -646h-203zM184 1469h128q0 -75 33.5 -108.5t104.5 -33.5t105 33.5t34 108.5h129q0 -122 -65 -193t-203 -71q-136 0 -201 71t-65 193z" />
<glyph unicode="&#x43a;" horiz-adv-x="859" d="M97 0v1077h255v-437h48l179 437h268l-215 -516l219 -561h-269l-182 490h-48v-490h-255z" />
<glyph unicode="&#x43b;" horiz-adv-x="977" d="M30 -6v182q31 -2 53.5 1t41.5 14.5t31.5 24t22.5 41t16 53t11 71t8 85.5t6 105l33 506h626v-1077h-254v895h-154l-21 -337q-6 -118 -16.5 -202t-28.5 -149.5t-42.5 -105.5t-62.5 -66t-85 -35.5t-112 -9.5q-43 0 -73 4z" />
<glyph unicode="&#x43c;" horiz-adv-x="1038" d="M94 0l8 1077h187l230 -585l229 585h187l9 -1077h-205v592l-182 -460h-76l-182 459v-591h-205z" />
<glyph unicode="&#x43d;" horiz-adv-x="914" d="M97 0v1077h255v-434h210v434h255v-1077h-255v463h-210v-463h-255z" />
<glyph unicode="&#x43e;" horiz-adv-x="845" d="M77 360v356q0 182 85.5 280t258.5 98q175 0 261 -98t86 -280v-356q0 -182 -86 -279.5t-261 -97.5q-173 0 -258.5 97.5t-85.5 279.5zM329 343q0 -34 1.5 -56t6.5 -48t15 -41t27.5 -25.5t42.5 -10.5q31 0 50.5 13.5t28.5 42.5t11.5 55.5t2.5 69.5v390q0 34 -1.5 56.5 t-6.5 48.5t-15 41.5t-27 25.5t-43 10q-31 0 -50.5 -14t-28 -42.5t-11.5 -55.5t-3 -70v-390z" />
<glyph unicode="&#x43f;" horiz-adv-x="889" d="M97 0v1077h694v-1077h-254v895h-185v-895h-255z" />
<glyph unicode="&#x440;" horiz-adv-x="888" d="M97 -355v1432h255v-82q100 100 218 99q57 -1 101 -26.5t69 -63.5t41 -89t21.5 -95.5t5.5 -89.5v-353q0 -82 -13.5 -151t-42.5 -124.5t-79.5 -87t-119.5 -31.5q-100 0 -201 97v-435h-255zM352 199q55 -33 112 -33q28 0 47.5 15.5t28 46t11.5 63t3 78.5v371q0 37 -4 66.5 t-14 56.5t-30 41t-48 13q-50 -1 -106 -42v-676z" />
<glyph unicode="&#x441;" horiz-adv-x="818" d="M77 383v312q0 195 80.5 297t262.5 102q172 0 250 -81t78 -251v-88h-237v92q0 82 -20 114.5t-68 32.5q-54 0 -72.5 -38.5t-18.5 -141.5v-394q0 -102 20.5 -138t70.5 -36q51 0 69.5 35t18.5 106v115h237v-102q0 -167 -79.5 -251.5t-248.5 -84.5q-182 0 -262.5 102.5 t-80.5 297.5z" />
<glyph unicode="&#x442;" horiz-adv-x="695" d="M25 896v181h645v-181h-197v-896h-255v896h-193z" />
<glyph unicode="&#x443;" horiz-adv-x="801" d="M24 1077h226l96 -486l60 -333l52 332l81 487h235l-251 -1082q-17 -78 -40.5 -129.5t-54.5 -86t-79.5 -52.5t-105 -25t-140.5 -7l-10 195q46 0 75.5 2.5t54 10.5t35.5 20t16 33.5t2 50t-13 69.5z" />
<glyph unicode="&#x444;" horiz-adv-x="1215" d="M79 441v241q0 97 33 172.5t89 120.5t124 68.5t145 23.5h22v442h229v-442h29q76 0 144 -23t123 -68.5t87.5 -121t32.5 -172.5v-241q0 -94 -25.5 -168t-65.5 -117t-93.5 -71t-102.5 -37.5t-102 -9.5h-27v-378h-229v378h-20q-52 0 -102.5 9.5t-105 37.5t-94 71t-65.5 117 t-26 168zM312 433q0 -122 41.5 -175.5t125.5 -53.5h13v709h-15q-165 0 -165 -201v-279zM721 204h12q171 0 171 229v279q0 201 -170 201h-13v-709z" />
<glyph unicode="&#x445;" horiz-adv-x="769" d="M16 0l234 577l-227 500h249l136 -297l117 297h221l-230 -535l247 -542h-251l-149 326l-122 -326h-225z" />
<glyph unicode="&#x446;" horiz-adv-x="984" d="M97 0v1077h255v-909h209v909h254v-909h145v-453h-183l-19 285h-661z" />
<glyph unicode="&#x447;" horiz-adv-x="868" d="M70 692v385h254v-379q0 -60 25.5 -88t100.5 -29q32 0 66 4v492h254v-1077h-254v427q-67 -7 -123 -7q-164 0 -243.5 63t-79.5 209z" />
<glyph unicode="&#x448;" horiz-adv-x="1248" d="M97 0v1077h242v-900h161v900h242v-900h167v900h241v-1077h-1053z" />
<glyph unicode="&#x449;" horiz-adv-x="1354" d="M97 0v1077h243v-909h160v909h242v-909h166v909h243v-909h145v-453h-183l-19 285h-997z" />
<glyph unicode="&#x44a;" horiz-adv-x="964" d="M0 898v179h468v-441h17q94 -1 160 -9t121 -28.5t87 -56.5t49.5 -91.5t17.5 -133.5q0 -178 -101 -247.5t-346 -69.5h-259v898h-214zM468 147h3q126 0 172.5 33.5t46.5 136.5q0 98 -44 132.5t-168 36.5h-10v-339z" />
<glyph unicode="&#x44b;" horiz-adv-x="1273" d="M97 0v1077h255v-441h17q94 -1 160 -9t120.5 -28.5t87 -56.5t50 -91.5t17.5 -133.5q0 -178 -101 -247.5t-346 -69.5h-260zM352 147h4q125 0 171.5 33.5t46.5 136.5q0 98 -44.5 132.5t-167.5 36.5h-10v-339zM921 0v1077h255v-1077h-255z" />
<glyph unicode="&#x44c;" horiz-adv-x="841" d="M97 0v1077h255v-441h17q94 -1 160 -9t120.5 -28.5t87 -56.5t50 -91.5t17.5 -133.5q0 -178 -101 -247.5t-346 -69.5h-260zM352 147h4q125 0 171.5 33.5t46.5 136.5q0 98 -44.5 132.5t-167.5 36.5h-10v-339z" />
<glyph unicode="&#x44d;" horiz-adv-x="824" d="M76 315v42h238v-43q0 -82 19.5 -114.5t67.5 -32.5q54 0 72.5 38.5t18.5 142.5v125h-248v124h248v137q0 103 -20.5 139t-70.5 36q-51 0 -69 -35t-18 -106v-66h-238v56q0 167 80 251.5t248 84.5q184 0 263.5 -102.5t79.5 -298.5v-311q0 -195 -80 -297t-263 -102 q-172 0 -250 81t-78 251z" />
<glyph unicode="&#x44e;" horiz-adv-x="1182" d="M97 0v1077h237v-449h141v88q0 378 313 378q159 0 237 -98t78 -280v-356q0 -182 -78 -279.5t-237 -97.5q-313 0 -313 377v94h-141v-454h-237zM704 349q0 -43 2.5 -69.5t10 -55t25.5 -42.5t46 -14t46.5 14t26 42t10 55t2.5 70v379q0 34 -1 56t-6 48t-13.5 41t-25 25.5 t-39.5 10.5q-28 0 -46 -14t-25.5 -42.5t-10 -55.5t-2.5 -69v-379z" />
<glyph unicode="&#x44f;" horiz-adv-x="880" d="M22 0l186 450q-140 61 -140 296q0 170 98.5 250.5t321.5 80.5h296v-1077h-255v406q-29 0 -85 2l-149 -408h-273zM298 747q0 -99 50.5 -146t168.5 -48h12v380h-10q-118 0 -169.5 -43t-51.5 -143z" />
<glyph unicode="&#x450;" horiz-adv-x="832" d="M77 386v305q0 199 82 301t264 102q97 0 163 -28.5t102.5 -85.5t52 -132t15.5 -181v-141h-426v-162q0 -34 0.5 -52.5t3.5 -45t9 -41t16 -29.5t26 -21.5t38 -6.5q51 0 71 36t20 104v62h241v-42q0 -168 -83 -256.5t-248 -88.5q-185 0 -266 102t-81 301zM120 1577h259 l110 -372h-144zM330 653h184v103q0 82 -20.5 117.5t-72.5 35.5t-71.5 -40t-19.5 -146v-70z" />
<glyph unicode="&#x451;" horiz-adv-x="832" d="M77 386v305q0 199 82 301t264 102q97 0 163 -28.5t102.5 -85.5t52 -132t15.5 -181v-141h-426v-162q0 -34 0.5 -52.5t3.5 -45t9 -41t16 -29.5t26 -21.5t38 -6.5q51 0 71 36t20 104v62h241v-42q0 -168 -83 -256.5t-248 -88.5q-185 0 -266 102t-81 301zM123 1205v242h228 v-242h-228zM330 653h184v103q0 82 -20.5 117.5t-72.5 35.5t-71.5 -40t-19.5 -146v-70zM480 1205v242h230v-242h-230z" />
<glyph unicode="&#x452;" horiz-adv-x="904" d="M-18 1128v139h130v242h254v-242h256v-139h-256v-283q3 2 32 15t54.5 23.5t67 19.5t78.5 9q51 0 90.5 -14.5t63.5 -38.5t39.5 -56.5t21.5 -66t6 -70.5v-475q0 -103 -7 -174.5t-25.5 -127.5t-46 -89t-75.5 -54.5t-106.5 -29t-144.5 -7.5h-56v147h25q48 0 78.5 8.5t52 26 t32 55t15 86.5t4.5 128v480q0 52 -16 77.5t-60 25.5q-43 0 -123 -36v-707h-254v1128h-130z" />
<glyph unicode="&#x453;" horiz-adv-x="592" d="M97 0v1077h484v-175h-229v-902h-255zM268 1205l111 372h257l-224 -372h-144z" />
<glyph unicode="&#x454;" horiz-adv-x="795" d="M78 383v312q0 195 80 297t263 102q173 0 250.5 -81t77.5 -251v-50h-238v51q0 82 -19.5 114.5t-67.5 32.5q-54 0 -72.5 -38t-18.5 -143v-112h257v-138h-257v-137q0 -103 20.5 -138.5t71.5 -35.5t68.5 35t17.5 105v73h238v-62q0 -167 -79 -251.5t-249 -84.5 q-183 0 -263 102.5t-80 297.5z" />
<glyph unicode="&#x455;" horiz-adv-x="738" d="M40 272l193 70q20 -89 56.5 -135t90.5 -44q40 1 66 28.5t24 67.5q-3 59 -106 147l-145 124q-156 134 -153 281q3 129 88 206t217 77q127 0 206 -76.5t103 -204.5l-168 -70q-34 167 -129 168q-40 1 -64 -24.5t-24 -61.5q-1 -49 90 -128l147 -134q38 -32 62.5 -58t51 -63.5 t40 -80.5t13.5 -92q0 -136 -90.5 -211t-231.5 -75q-134 0 -219.5 74.5t-117.5 214.5z" />
<glyph unicode="&#x456;" horiz-adv-x="448" d="M98 0v1077h255v-1077h-255zM99 1233v215h255v-215h-255z" />
<glyph unicode="&#x457;" horiz-adv-x="470" d="M-55 1205v242h229v-242h-229zM112 0v1077h254v-1077h-254zM303 1205v242h229v-242h-229z" />
<glyph unicode="&#x458;" horiz-adv-x="449" d="M-29 -97q34 -7 54 -7q96 0 96 110v1071h254v-1100q0 -127 -71.5 -201t-200.5 -74q-78 0 -132 19v182zM120 1248v214h257v-214h-257z" />
<glyph unicode="&#x459;" horiz-adv-x="1359" d="M34 -6v181q30 -1 52.5 2t41 14.5t31 25t23 42.5t17 57t12.5 78t9 97t8 121l28 465h627v-442h18q109 0 182 -14t126 -49.5t77 -98t24 -156.5q0 -173 -96.5 -243.5t-325.5 -73.5h-259v895h-155l-19 -329q-7 -128 -18.5 -218t-32.5 -156t-47.5 -106t-68 -62t-89 -29 t-116.5 -5q-2 0 -22 1.5t-27 2.5zM883 147h6q107 0 149 35.5t42 134.5q0 95 -41 131.5t-151 37.5h-5v-339z" />
<glyph unicode="&#x45a;" horiz-adv-x="1260" d="M97 0v1077h255v-435h186v436h255v-442h19q110 -2 181.5 -16.5t124.5 -49.5t76.5 -96.5t23.5 -155.5q0 -174 -96.5 -244.5t-328.5 -72.5h-255v450h-186v-451h-255zM793 147q6 0 9 1q105 3 146 37.5t41 131.5q0 94 -39.5 129t-146.5 40q-2 0 -5.5 0.5t-4.5 0.5v-340z" />
<glyph unicode="&#x45b;" horiz-adv-x="910" d="M-18 1128v139h130v242h254v-242h256v-139h-256v-283q3 2 32 15t54.5 23.5t67 19.5t78.5 9q51 0 90.5 -14.5t63.5 -38.5t39.5 -56.5t21.5 -66t6 -70.5v-666h-254v640q0 52 -16 77.5t-60 25.5q-43 0 -123 -36v-707h-254v1128h-130z" />
<glyph unicode="&#x45c;" horiz-adv-x="859" d="M97 0v1077h255v-437h48l179 437h268l-215 -516l219 -561h-269l-182 490h-48v-490h-255zM402 1205l111 372h258l-224 -372h-145z" />
<glyph unicode="&#x45d;" horiz-adv-x="901" d="M97 0v1077h208v-643l301 643h198v-1077h-207v646l-297 -646h-203zM154 1577h258l110 -372h-143z" />
<glyph unicode="&#x45e;" horiz-adv-x="801" d="M24 1077h226l96 -486l60 -333l52 332l81 487h235l-251 -1082q-17 -78 -40.5 -129.5t-54.5 -86t-79.5 -52.5t-105 -25t-140.5 -7l-10 195q46 0 75.5 2.5t54 10.5t35.5 20t16 33.5t2 50t-13 69.5zM132 1469h128q0 -75 34 -108.5t105 -33.5t104.5 33.5t33.5 108.5h129 q0 -122 -65 -193t-202 -71t-202 71t-65 193z" />
<glyph unicode="&#x45f;" horiz-adv-x="897" d="M97 0v1077h255v-909h193v909h254v-1077h-242l-13 -285h-176l-19 285h-252z" />
<glyph unicode="&#x490;" horiz-adv-x="769" d="M116 0v1509h467l-1 225h166v-428h-358v-1306h-274z" />
<glyph unicode="&#x491;" horiz-adv-x="599" d="M97 0v1077h353v202h135v-377h-233v-902h-255z" />
<glyph unicode="&#x4af;" horiz-adv-x="772" d="M12 1077h243l139 -628l124 628h243l-258 -967v-436h-225v431z" />
<glyph unicode="&#x4b0;" horiz-adv-x="918" d="M23 1509h255l114 -351l73 -231l71 231l108 351h254l-282 -787h241v-178h-265v-544h-263v544h-256v178h233z" />
<glyph unicode="&#x4b1;" horiz-adv-x="779" d="M12 1077h243l139 -628l124 628h243l-250 -940h192v-157h-200v-306h-225v306h-204v157h195z" />
<glyph unicode="&#x4c0;" horiz-adv-x="511" d="M121 0v1509h271v-1509h-271z" />
<glyph unicode="&#x4e8;" horiz-adv-x="1046" d="M88 479v557q0 120 23 208t73.5 152.5t135 97t203.5 32.5q232 0 333.5 -124.5t101.5 -365.5v-557q0 -119 -23 -208.5t-73.5 -155.5t-135 -99.5t-203.5 -33.5q-233 0 -334 126.5t-101 370.5zM368 414q0 -43 3 -74t12.5 -61.5t26 -50t45 -31t68.5 -11.5t68.5 11.5t45 31 t26 50t13 61.5t3.5 74v267h-311v-267zM368 858h311v241q0 55 -5.5 91.5t-21.5 68.5t-48 48t-81 16t-81 -16t-47.5 -48t-21 -68.5t-5.5 -91.5v-241z" />
<glyph unicode="&#x4e9;" horiz-adv-x="845" d="M77 360v356q0 182 85.5 280t258.5 98q175 0 261 -98t86 -280v-356q0 -182 -86 -279.5t-261 -97.5q-173 0 -258.5 97.5t-85.5 279.5zM329 343q0 -34 1.5 -56t6.5 -48t15 -41t27.5 -25.5t42.5 -10.5q31 0 50.5 13.5t28.5 42.5t11.5 55.5t2.5 69.5v141h-186v-141zM329 623 h186v110q0 34 -1.5 56.5t-6.5 48.5t-15 41.5t-27 25.5t-43 10q-31 0 -50.5 -14t-28 -42.5t-11.5 -55.5t-3 -70v-110z" />
<glyph unicode="&#x2000;" horiz-adv-x="1004" />
<glyph unicode="&#x2001;" horiz-adv-x="2009" />
<glyph unicode="&#x2002;" horiz-adv-x="1004" />
<glyph unicode="&#x2003;" horiz-adv-x="2009" />
<glyph unicode="&#x2004;" horiz-adv-x="669" />
<glyph unicode="&#x2005;" horiz-adv-x="502" />
<glyph unicode="&#x2006;" horiz-adv-x="334" />
<glyph unicode="&#x2007;" horiz-adv-x="334" />
<glyph unicode="&#x2008;" horiz-adv-x="251" />
<glyph unicode="&#x2009;" horiz-adv-x="401" />
<glyph unicode="&#x200a;" horiz-adv-x="111" />
<glyph unicode="&#x2010;" d="M105 506v176h449v-176h-449z" />
<glyph unicode="&#x2011;" d="M105 506v176h449v-176h-449z" />
<glyph unicode="&#x2012;" d="M105 506v176h449v-176h-449z" />
<glyph unicode="&#x2013;" horiz-adv-x="1232" d="M105 506v176h1024v-176h-1024z" />
<glyph unicode="&#x2014;" horiz-adv-x="2256" d="M105 506v176h2048v-176h-2048z" />
<glyph unicode="&#x202f;" horiz-adv-x="401" />
<glyph unicode="&#x205f;" horiz-adv-x="502" />
<glyph unicode="&#x25fc;" horiz-adv-x="1078" d="M0 0v1078h1078v-1078h-1078z" />
</font>
</defs>
</svg>
