<?xml version="1.0" standalone="no"?>
<!DOCTYPE svg PUBLIC "-//W3C//DTD SVG 1.1//EN" "http://www.w3.org/Graphics/SVG/1.1/DTD/svg11.dtd" >
<svg xmlns="http://www.w3.org/2000/svg" xmlns:xlink="http://www.w3.org/1999/xlink" version="1.1">
<metadata></metadata>
<defs>
<font id="oswaldextralight" horiz-adv-x="910" >
<font-face units-per-em="2048" ascent="1638" descent="-410" />
<missing-glyph horiz-adv-x="353" />
<glyph horiz-adv-x="0" />
<glyph unicode="&#xd;" horiz-adv-x="620" />
<glyph unicode=" "  horiz-adv-x="353" />
<glyph unicode="&#x09;" horiz-adv-x="353" />
<glyph unicode="&#xa0;" horiz-adv-x="353" />
<glyph unicode="!" horiz-adv-x="367" d="M126 0v137h112v-137h-112zM128 1509h113l-40 -1185h-35z" />
<glyph unicode="&#x22;" horiz-adv-x="636" d="M147 1081v428h102l-47 -428h-55zM393 1081v428h101l-47 -428h-54z" />
<glyph unicode="#" horiz-adv-x="844" d="M87 545v72h130l51 313h-147v72h159l81 507h94l-81 -507h195l81 507h93l-81 -507h107v-72h-117l-52 -313h134v-72h-145l-88 -545h-93l87 545h-195l-87 -545h-94l87 545h-119zM311 617h195l51 313h-195z" />
<glyph unicode="$" horiz-adv-x="839" d="M77 372l90 28q8 -64 19 -111.5t32 -91.5t50.5 -72t73.5 -44t101 -16q241 0 241 243q0 92 -46.5 168.5t-149.5 178.5l-276 275q-131 131 -131 287q0 142 83 222t224 86v177h55v-177q148 -7 228 -94.5t92 -282.5l-86 -21q-15 164 -71.5 240.5t-182.5 76.5h-9 q-110 -2 -175.5 -56t-65.5 -164q0 -59 25.5 -113t85.5 -115l272 -269q105 -104 164.5 -203.5t59.5 -210.5q0 -151 -79 -234.5t-214 -95.5v-158h-54v156q-324 5 -356 391z" />
<glyph unicode="%" horiz-adv-x="1184" d="M79 1032v265q0 249 190 249t190 -247v-269q0 -252 -190 -252t-190 254zM169 1026q0 -83 23 -127t77 -44q100 0 100 171v275q0 168 -100 168q-54 0 -77 -44t-23 -125v-274zM291 0l516 1529h90l-514 -1529h-92zM726 242v265q0 249 190.5 249t190.5 -246v-270 q0 -252 -190.5 -252t-190.5 254zM816 237q0 -84 23 -127.5t77 -43.5q100 0 100 171v274q0 168 -100 168t-100 -168v-274z" />
<glyph unicode="&#x26;" horiz-adv-x="1121" d="M106 326q0 106 57 213t196 245q-106 172 -144.5 257.5t-38.5 175.5q0 148 85 228.5t232 80.5q141 0 222 -70.5t81 -192.5q0 -108 -84.5 -227t-251.5 -264l329 -519q59 75 101 195t45 206h90q0 -103 -50 -236.5t-131 -228.5q49 -63 91 -85.5t95 -22.5v-92q-23 0 -41 4 q-112 12 -205 135q-58 -64 -140 -106t-179 -42q-116 0 -199 48.5t-121.5 125.5t-38.5 172zM206 325q0 -38 8 -73.5t27.5 -70t48.5 -60.5t74.5 -41.5t102.5 -15.5q74 0 137.5 30.5t128.5 97.5l-332 520q-108 -115 -151.5 -204.5t-43.5 -182.5zM272 1219q0 -81 34 -163 t118 -222q128 120 202 225t74 208q0 84 -56.5 130t-153.5 46q-107 0 -162.5 -62.5t-55.5 -161.5z" />
<glyph unicode="'" horiz-adv-x="443" d="M147 1081v428h102l-47 -428h-55z" />
<glyph unicode="(" horiz-adv-x="495" d="M152 622q0 116 1 183.5t4.5 165t11.5 154t21 127.5t34.5 111t51 79t70.5 56.5t93 20.5v-72q-28 -4 -50.5 -16t-40.5 -35.5t-32 -47.5t-24 -66t-17 -75.5t-12 -91t-7.5 -99t-3.5 -112t-1.5 -117.5t-0.5 -128v-37v-50q0 -99 0.5 -156.5t3 -140.5t8 -131t14 -109t22.5 -96 t33 -69.5t46.5 -51.5t61.5 -22v-71q-52 5 -93 24t-70.5 58.5t-51 79.5t-34.5 110.5t-21 126t-11.5 152t-4.5 163.5t-1 183z" />
<glyph unicode=")" horiz-adv-x="475" d="M57 -204q28 4 50.5 16t40.5 35.5t32 47.5t24 66t17 76t12 91.5t7.5 98.5t3.5 112t1.5 118t0.5 128v37v38q0 102 -0.5 159t-3 142t-7.5 133.5t-13.5 111t-22.5 97.5t-33.5 70t-46.5 52t-62 22v72q52 -3 93 -20.5t70.5 -56.5t51 -79t34.5 -110.5t21 -127.5t11.5 -154 t4.5 -164.5t1 -184.5q0 -115 -1 -182t-4.5 -163.5t-11.5 -152.5t-21 -126.5t-34.5 -110.5t-51 -79t-70.5 -58.5t-93 -24.5v71z" />
<glyph unicode="*" horiz-adv-x="664" d="M55 1279l26 64l233 -112l-12 277h79l-14 -277l230 112l26 -64l-239 -98l171 -226l-63 -38l-153 238l-152 -238l-63 40l171 224z" />
<glyph unicode="+" horiz-adv-x="677" d="M42 737v75h257v285h78v-285h259v-75h-259v-289h-78v289h-257z" />
<glyph unicode="," horiz-adv-x="330" d="M103 -157q46 34 62 67t16 90h-67v197h120v-176q0 -87 -23 -134.5t-83 -86.5z" />
<glyph unicode="-" horiz-adv-x="527" d="M72 594v82h385v-82h-385z" />
<glyph unicode="." horiz-adv-x="330" d="M123 0v194h111v-194h-111z" />
<glyph unicode="/" horiz-adv-x="613" d="M40 0l444 1509h88l-443 -1509h-89z" />
<glyph unicode="0" horiz-adv-x="918" d="M107 424v660q0 102 18 179.5t57.5 138t109 92.5t167 32t167.5 -32t109.5 -92.5t57.5 -138t18 -179.5v-660q0 -103 -16.5 -179.5t-54.5 -138t-108.5 -94t-172.5 -32.5q-81 0 -142.5 22t-100.5 60t-64 95t-35 121.5t-10 145.5zM209 408q0 -80 12.5 -141.5t40.5 -110.5 t77.5 -74.5t119.5 -25.5q135 0 192 92.5t57 259.5v692q0 167 -57 258.5t-192 91.5t-192.5 -92t-57.5 -258v-692z" />
<glyph unicode="1" horiz-adv-x="750" d="M172 1249v85q53 15 120 63.5t111 111.5h85v-1509h-99v1374q-30 -43 -97 -76t-120 -49z" />
<glyph unicode="2" d="M101 0v75l420 638q89 135 117 192q62 125 62 255q0 133 -60 207.5t-170 74.5q-79 0 -131.5 -24t-81 -71.5t-39.5 -104.5t-12 -136v-26h-98v31q0 211 86 313t272 102q161 0 246.5 -99.5t85.5 -279.5q0 -64 -14.5 -125.5t-46.5 -125t-57 -105.5t-70 -110l-395 -596h553v-85 h-667z" />
<glyph unicode="3" horiz-adv-x="904" d="M126 1150v25q0 167 79.5 259t258.5 92q85 0 149 -28t102.5 -79t58.5 -117t20 -147q0 -165 -59 -257t-156 -111q39 -10 74.5 -34.5t68 -67.5t52.5 -116t20 -166q0 -197 -85 -310t-265 -113q-317 0 -317 355v28h93v-29q1 -136 55 -205t169 -69q56 0 98 16t77 53.5t54 105.5 t19 165q0 343 -242 346h-44v87h43q131 1 187 77t56 246q0 291 -227 291q-125 0 -184.5 -64t-60.5 -211v-22h-94z" />
<glyph unicode="4" horiz-adv-x="918" d="M105 463v96l449 950h116v-953h174v-93h-174v-463h-99v463h-466zM209 556h362v809z" />
<glyph unicode="5" d="M150 369h98q0 -161 53 -234.5t173 -73.5q129 0 181 93.5t52 306.5q0 157 -26.5 247.5t-74.5 125.5t-128 35q-129 0 -213 -126h-81v766h549l-3 -86h-462l-3 -586q78 109 238 109q156 0 228.5 -118.5t72.5 -356.5q0 -252 -81 -370t-254 -118q-166 0 -242.5 96t-76.5 290z " />
<glyph unicode="6" horiz-adv-x="917" d="M136 440v658q0 428 334 428q166 0 243 -83t79 -256v-35h-96q0 163 -51 227.5t-168 64.5q-54 0 -95 -15.5t-75.5 -51t-52.5 -101t-18 -159.5v-318q47 31 115.5 55.5t140.5 24.5q76 0 129 -15t92.5 -47t62 -86.5t33 -129.5t10.5 -181q0 -217 -82.5 -328.5t-265.5 -111.5 q-174 0 -254.5 113.5t-80.5 346.5zM236 441q0 -110 14.5 -184t46 -116t73 -59.5t101.5 -17.5q63 0 106.5 15.5t76 53.5t48 106t15.5 169q0 92 -5.5 151.5t-20 109.5t-42 76.5t-70.5 40.5t-108 14q-60 0 -128.5 -25t-106.5 -52v-282z" />
<glyph unicode="7" horiz-adv-x="860" d="M141 1427v82h591v-49l-312 -1460h-97l307 1427h-489z" />
<glyph unicode="8" d="M111 393q0 62 8.5 114t20.5 88.5t34 67t38.5 48.5t45.5 35t44.5 24.5t43.5 19.5q-104 31 -163 122.5t-59 240.5q0 82 17 147t54.5 117.5t103.5 80.5t157 28q90 0 156 -29t103.5 -82t54.5 -119t17 -148q0 -148 -58.5 -237t-163.5 -121q28 -12 43.5 -19.5t44 -25t45.5 -35 t39 -48.5t34 -67t20.5 -88t8.5 -114q0 -414 -344 -414q-345 0 -345 414zM209 395q0 -179 64 -257t183 -78t182 78t63 257q0 161 -58 249t-187 103q-130 -15 -188.5 -103t-58.5 -249zM222 1149q0 -146 54 -226.5t180 -88.5q125 8 179.5 88.5t54.5 226.5q0 151 -58 222.5 t-176 71.5q-119 0 -176.5 -71.5t-57.5 -222.5z" />
<glyph unicode="9" horiz-adv-x="917" d="M113 1086q0 216 84 328t267 112q175 0 253.5 -113.5t78.5 -345.5v-659q0 -209 -77 -318.5t-249 -109.5q-167 0 -247.5 83.5t-81.5 256.5v34h96q0 -165 51.5 -228.5t183.5 -63.5q54 0 93 15t70 51.5t46.5 101t15.5 159.5v317q-36 -31 -101 -55t-156 -24q-184 0 -255.5 100 t-71.5 359zM216 1098q0 -92 5.5 -151.5t20 -109.5t42 -76.5t70.5 -40.5t107 -14q140 0 236 77v282q0 145 -27.5 229.5t-76 116t-129.5 31.5q-125 0 -186.5 -77.5t-61.5 -266.5z" />
<glyph unicode=":" horiz-adv-x="356" d="M140 141v191h109v-191h-109zM140 798v192h109v-192h-109z" />
<glyph unicode=";" horiz-adv-x="379" d="M126 12q48 32 63 61t15 86h-65v180h119v-159q0 -88 -22.5 -134.5t-84.5 -76.5zM139 815v194h110v-194h-110z" />
<glyph unicode="&#x3c;" horiz-adv-x="666" d="M54 525v97l506 397v-106l-428 -340l428 -325v-105z" />
<glyph unicode="=" horiz-adv-x="729" d="M91 537v84h547v-84h-547zM91 840v83h547v-83h-547z" />
<glyph unicode="&#x3e;" horiz-adv-x="666" d="M106 143v105l429 341l-429 326v104l507 -383v-95z" />
<glyph unicode="?" horiz-adv-x="869" d="M111 1265q0 125 90.5 194t228.5 69q71 0 132.5 -24.5t109.5 -72t75 -124.5t27 -175q0 -176 -85 -305.5t-266 -253.5v-200h-86v229q184 122 263.5 248t79.5 283q0 152 -72.5 230t-177.5 78q-101 0 -163 -47.5t-62 -134.5q0 -33 7 -63l15 -67l-89 -22l-16 69q-11 47 -11 89 zM333 1v135h97v-135h-97z" />
<glyph unicode="@" horiz-adv-x="1500" d="M109 619q0 177 37 324.5t101 250.5t153 174t192 105t219 35h9q307 0 457 -174.5t150 -521.5q0 -49 -1 -75q-5 -119 -33.5 -210.5t-66.5 -143.5t-87.5 -85t-89.5 -43.5t-78 -10.5q-58 0 -104 41.5t-46 113.5q0 11 1 18q-32 -79 -89.5 -130.5t-133.5 -53.5h-8 q-110 0 -175.5 84t-65.5 238q0 125 36.5 234t96.5 182t136 114.5t155 41.5q75 0 136 -47l16 38h74l-85 -624q-7 -53 -7 -81q0 -49 18 -74t63 -25q28 0 56.5 9.5t63 37.5t62 73t48 122t24.5 177q2 30 2 86q0 170 -37 290.5t-108 190t-163 100t-215 30.5h-14q-129 -2 -239 -56 t-192 -154.5t-128.5 -254t-46.5 -345.5q0 -132 20.5 -239.5t54.5 -181.5t84.5 -130.5t103.5 -89.5t119 -53t123.5 -26.5t124.5 -6.5q163 0 345 46l25 -73q-232 -51 -377 -51q-716 0 -716 804zM547 553q0 -130 44 -187t110 -57h9q67 2 122.5 58.5t91.5 156.5l69 492 q-48 34 -109 34t-121 -34.5t-108 -96t-78 -157.5t-30 -209z" />
<glyph unicode="A" horiz-adv-x="872" d="M60 0l317 1509h116l320 -1509h-102l-79 417h-391l-81 -417h-100zM256 492h362l-182 894z" />
<glyph unicode="B" d="M139 0v1509h311q81 0 143 -19.5t101 -52.5t63 -81.5t33.5 -102.5t9.5 -120q0 -51 -8 -97t-26 -93.5t-55 -82t-89 -46.5q63 -19 107 -60.5t65 -97t30 -108t9 -108.5q0 -62 -5 -112t-18 -102.5t-37 -91t-60.5 -70t-91 -48t-125.5 -16.5h-357zM241 80h242q144 0 197 83.5 t53 275.5q0 328 -236 328h-256v-687zM241 847h254q61 0 103.5 22.5t65 63.5t32 89t9.5 111q0 55 -6 95.5t-23.5 80.5t-48 64.5t-80.5 39.5t-119 15h-187v-581z" />
<glyph unicode="C" d="M107 435v640q0 82 10.5 147.5t36 123.5t67 96.5t105.5 61t150 22.5q96 0 164 -29.5t106.5 -87.5t56 -133t17.5 -175v-76h-97v77q0 173 -53.5 257t-193.5 84q-80 0 -134 -25t-82 -75t-39 -110.5t-11 -145.5v-668q0 -70 7.5 -123t25.5 -98t48 -73.5t76.5 -44.5t108.5 -16 q74 0 123.5 23.5t76 71t37 106t10.5 141.5v91h97v-75q0 -81 -9.5 -145t-33.5 -121t-62.5 -94.5t-99 -59.5t-139.5 -22q-87 0 -152.5 23.5t-106 63t-66 99.5t-35 124t-9.5 145z" />
<glyph unicode="D" horiz-adv-x="963" d="M139 0v1509h331q110 0 186.5 -33t119.5 -94t61.5 -136t18.5 -170v-626q0 -103 -18.5 -181.5t-60.5 -140.5t-117 -95t-181 -33h-340zM241 80h233q71 0 122.5 20.5t81.5 53.5t47.5 84.5t22.5 102.5t5 119v607q0 71 -7 123.5t-25.5 99t-50.5 75.5t-82 46t-118 17h-229v-1348 z" />
<glyph unicode="E" horiz-adv-x="731" d="M138 0v1509h523v-81h-421v-605h345v-80h-345v-663h425v-80h-527z" />
<glyph unicode="F" horiz-adv-x="713" d="M139 0v1509h520v-80h-418v-606h361v-80h-361v-743h-102z" />
<glyph unicode="G" horiz-adv-x="950" d="M107 438v640q0 84 10 149.5t36 123t67 95t105 59t150 21.5q188 0 268.5 -110t80.5 -320v-53h-97v59q0 175 -55 258t-196 83q-66 0 -113 -17.5t-76 -47.5t-46.5 -77.5t-24 -99t-6.5 -119.5v-657q0 -87 12 -150t41 -112.5t82.5 -74t132.5 -24.5q73 0 123.5 23.5t78 71.5 t39.5 110.5t12 149.5v222h-241v78h336v-719h-65l-16 169q-59 -190 -275 -190q-84 0 -148 23t-104.5 62t-65.5 98t-35 125.5t-10 150.5z" />
<glyph unicode="H" horiz-adv-x="1009" d="M138 0v1509h102v-680h529v680h102v-1509h-102v752h-529v-752h-102z" />
<glyph unicode="I" horiz-adv-x="384" d="M142 0v1509h101v-1509h-101z" />
<glyph unicode="J" horiz-adv-x="494" d="M15 -5q58 0 95 4t65 17.5t42 30.5t23 53t11 74.5t2 105.5v1229h102v-1241q0 -66 -4 -110.5t-14.5 -87.5t-30 -69t-51.5 -46.5t-78 -29.5t-110 -9h-52v79z" />
<glyph unicode="K" horiz-adv-x="857" d="M138 0v1509h102v-847l439 847h100l-319 -638l396 -871h-102l-367 809l-147 -268v-541h-102z" />
<glyph unicode="L" horiz-adv-x="695" d="M139 0v1509h102v-1429h456v-80h-558z" />
<glyph unicode="M" horiz-adv-x="1177" d="M121 0l45 1509h100l320 -1362l323 1362h105l43 -1509h-88l-37 1266l-308 -1266h-73l-304 1263l-38 -1263h-88z" />
<glyph unicode="N" horiz-adv-x="960" d="M139 0v1509h81l512 -1274v1274h90v-1509h-80l-513 1277v-1277h-90z" />
<glyph unicode="O" horiz-adv-x="960" d="M107 430v658q0 80 11 144.5t38 120.5t69.5 93t106.5 58.5t148 21.5q105 0 179 -32t115.5 -92t60.5 -137t19 -177v-661q0 -81 -10.5 -145.5t-36.5 -122.5t-68 -96t-107 -60.5t-151.5 -22.5t-152 22.5t-107 61t-67.5 96.5t-36.5 123.5t-10.5 146.5zM210 407q0 -82 12 -141 t41.5 -106.5t83.5 -71.5t133.5 -24t133.5 24t83 71.5t41.5 106.5t12.5 141v696q0 82 -12 140.5t-41.5 105.5t-83.5 70.5t-133.5 23.5t-133.5 -23.5t-83.5 -70.5t-41.5 -105.5t-12 -140.5v-696z" />
<glyph unicode="P" horiz-adv-x="904" d="M139 0v1509h354q99 0 169.5 -29t109 -83t55.5 -121.5t17 -156.5q0 -62 -10 -118t-35 -108t-64 -90t-100 -60t-139 -22h-255v-721h-102zM241 800h232q139 0 203.5 73t64.5 246q0 180 -59.5 246t-206.5 66h-234v-631z" />
<glyph unicode="Q" horiz-adv-x="975" d="M107 430v658q0 100 20 177.5t63 137t117.5 91.5t179.5 32t180 -32t117.5 -92t62 -137t19.5 -177v-661q0 -173 -56.5 -283.5t-188.5 -146.5q41 -53 98 -114t90 -83l-9 -90q-95 45 -259 273q-26 -3 -54 -3q-87 0 -153 22.5t-108.5 61t-69.5 96t-38 123.5t-11 147zM210 407 q0 -81 13.5 -140.5t44 -107t85.5 -71.5t134 -24t134 24t85.5 71.5t43.5 107t13 140.5v696q0 166 -61 253t-215 87q-79 0 -134 -23.5t-85.5 -70t-44 -106t-13.5 -140.5v-696z" />
<glyph unicode="R" horiz-adv-x="947" d="M139 0v1509h367q78 0 137 -19t95 -51.5t59 -81t31.5 -101.5t8.5 -118q0 -55 -5.5 -100.5t-20.5 -90.5t-39 -78t-64.5 -57t-93.5 -32l244 -780h-101l-236 761h-280v-761h-102zM241 838h259q71 0 118.5 20t73 61t35.5 92.5t10 126.5q0 151 -51 221t-186 70h-259v-591z" />
<glyph unicode="S" horiz-adv-x="842" d="M77 372l90 28q8 -64 19 -111.5t32 -91.5t50.5 -72t73.5 -44t101 -16q241 0 241 243q0 92 -46.5 168.5t-149.5 178.5l-276 275q-131 131 -131 287q0 147 89.5 227.5t240.5 81.5h3q161 0 248.5 -87t100.5 -291l-86 -21q-15 164 -71.5 240.5t-182.5 76.5h-9 q-110 -2 -175.5 -56t-65.5 -164q0 -59 25.5 -113t85.5 -115l272 -269q105 -104 164.5 -203.5t59.5 -210.5q0 -164 -91.5 -248t-246.5 -84q-332 0 -365 391z" />
<glyph unicode="T" horiz-adv-x="708" d="M-13 1428v81h735v-81h-313v-1428h-102v1428h-320z" />
<glyph unicode="U" horiz-adv-x="993" d="M122 354v1155h99v-1157q0 -66 13 -115.5t43.5 -90t85.5 -61.5t134 -21q276 0 276 288v1157h99v-1155q0 -374 -375 -374q-108 0 -183 27.5t-116 80t-58.5 117t-17.5 149.5z" />
<glyph unicode="V" horiz-adv-x="895" d="M46 1509h99l313 -1332l294 1332h98l-345 -1509h-95z" />
<glyph unicode="W" horiz-adv-x="1315" d="M63 1508l90 1l221 -1309l242 1275h98l249 -1276l202 1310h88l-246 -1509h-84l-257 1322l-252 -1322h-88z" />
<glyph unicode="X" horiz-adv-x="842" d="M27 0l333 784l-330 726h93l297 -645l288 645h101l-346 -743l352 -767h-98l-310 679l-278 -679h-102z" />
<glyph unicode="Y" horiz-adv-x="860" d="M37 1509h105l296 -906l282 906h104l-337 -1027v-482h-101v482z" />
<glyph unicode="Z" horiz-adv-x="748" d="M58 0v80l543 1349h-495v80h604v-63l-548 -1366h551v-80h-655z" />
<glyph unicode="[" horiz-adv-x="519" d="M138 -270v1779h274v-60h-174v-1657h174v-62h-274z" />
<glyph unicode="\" horiz-adv-x="613" d="M40 1509h88l444 -1509h-89z" />
<glyph unicode="]" horiz-adv-x="503" d="M91 -208h174v1656h-174v61h274v-1777h-274v60z" />
<glyph unicode="^" horiz-adv-x="680" d="M48 979l239 530h107l238 -530h-83l-209 467l-208 -467h-84z" />
<glyph unicode="_" horiz-adv-x="606" d="M0 -86h606v-81h-606v81z" />
<glyph unicode="`" horiz-adv-x="390" d="M94 1509h100l102 -361h-52z" />
<glyph unicode="a" horiz-adv-x="707" d="M71 218q0 72 16 120t67.5 97t131.5 94.5t225 112.5v78q0 118 -15.5 182.5t-46.5 90.5t-88 26q-35 0 -63 -8t-54.5 -28.5t-40.5 -63t-14 -103.5v-30l-96 2q0 26 1 29q3 147 71 212.5t200 65.5q135 0 190 -85t55 -280v-543q0 -153 4 -187h-84q-14 122 -17 143 q-25 -70 -86 -115t-139 -45q-98 0 -157.5 65.5t-59.5 169.5zM169 232q0 -88 41.5 -127.5t100.5 -39.5q65 0 116 42.5t84 108.5v355q-183 -95 -232 -129q-76 -53 -97 -116q-13 -38 -13 -94z" />
<glyph unicode="b" horiz-adv-x="740" d="M106 0v1509h100v-523q82 109 206 109q58 0 101.5 -21t70.5 -57.5t43 -94t22 -122.5t6 -150v-207q0 -236 -56.5 -348t-196.5 -112q-112 0 -196 106v-89h-100zM206 157q80 -97 184 -97q98 0 132 87t34 293v211q0 203 -32.5 284.5t-131.5 81.5q-95 0 -186 -100v-760z" />
<glyph unicode="c" horiz-adv-x="698" d="M86 405v253q0 242 58.5 339.5t213.5 97.5q65 0 113 -18t76 -47.5t45 -76t23 -94.5t6 -113v-43h-93v42q0 159 -39 217t-130 58q-106 0 -140 -75t-34 -275v-280q0 -183 36 -258t138 -75q104 0 136.5 66.5t32.5 237.5v42h93v-40q0 -51 -2.5 -89t-9 -80t-18 -71.5t-31 -57.5 t-47 -45t-67 -27t-88.5 -10q-71 0 -121.5 22t-79.5 57.5t-45 93.5t-21 114t-5 135z" />
<glyph unicode="d" horiz-adv-x="735" d="M86 442v192q0 241 53 351t195 110q114 -1 196 -100v514h99v-1509h-99v82q-82 -99 -191 -99q-139 0 -196 106t-57 353zM185 434q0 -204 35 -289t133 -85q96 0 177 91v773q-92 93 -181 93q-99 0 -131.5 -80t-32.5 -279v-224z" />
<glyph unicode="e" horiz-adv-x="707" d="M86 399v287q0 99 12.5 172t35 118t58.5 72t76 37t94 10q149 0 207 -97t58 -332l-2 -103h-440v-172q0 -190 39.5 -262t134.5 -72q28 0 48.5 4t45 17t40 36t26 66.5t10.5 103.5v80h97v-71q0 -149 -61 -229.5t-205 -80.5q-53 0 -94 11t-76 39.5t-57.5 75t-34.5 119 t-12 171.5zM185 622h344v84q0 65 -3 107.5t-13 85.5t-27.5 67t-48.5 39t-75 15q-64 0 -100.5 -25t-56.5 -94.5t-20 -196.5v-82z" />
<glyph unicode="f" horiz-adv-x="477" d="M32 1007v70h145v146q0 48 2.5 78.5t12.5 65t28 54.5t51.5 33t80.5 13q53 0 99 -13v-75q-59 11 -79 11q-60 0 -78 -35.5t-18 -129.5v-148h180v-70h-180v-1007h-99v1007h-145z" />
<glyph unicode="g" horiz-adv-x="798" d="M27 -175q0 76 57 143t136 108q-50 12 -90 34t-40 47q0 80 134 232q-141 100 -141 334q0 70 17 134t52 118t94.5 87t135.5 33q161 0 238 -144q20 36 60.5 71.5t84.5 54.5l27 10l29 -74q-48 -12 -97 -43t-77 -66q14 -35 24.5 -91.5t10.5 -91.5q0 -171 -73 -275t-224 -104 q-67 0 -115 20q-5 -9 -35 -52.5t-45 -73t-15 -49.5q0 -18 89 -37q30 -8 98 -21t78 -15q141 -31 212 -86t71 -154q0 -61 -28 -108.5t-76.5 -75.5t-109.5 -41.5t-132 -13.5q-350 0 -350 190zM113 -151q0 -134 263 -134q117 0 190.5 39t73.5 117q0 43 -17.5 70.5t-70 52.5 t-149.5 45l-118 20q-172 -98 -172 -210zM174 723q0 -40 4 -76.5t17.5 -81t35.5 -76t61.5 -53t92.5 -21.5q207 0 207 308q0 39 -5.5 75.5t-19.5 78.5t-35.5 73t-60 51.5t-87.5 20.5t-87.5 -22t-61 -54t-37 -74.5t-19.5 -78.5t-5 -70z" />
<glyph unicode="h" horiz-adv-x="729" d="M106 0v1509h100v-546q113 132 255 132q78 0 124.5 -57t46.5 -179v-859h-101v848q0 94 -28.5 131.5t-83.5 37.5q-104 0 -213 -118v-899h-100z" />
<glyph unicode="i" horiz-adv-x="353" d="M122 0v1077h99v-1077h-99zM122 1218v172h99v-172h-99z" />
<glyph unicode="j" horiz-adv-x="376" d="M-29 -206q7 -1 44 -1t63.5 10t40 23t21 37t9 42.5t1.5 48.5v1123h99v-1130q0 -124 -56.5 -179.5t-166.5 -55.5q-45 0 -55 3v79zM150 1218v172h100v-172h-100z" />
<glyph unicode="k" horiz-adv-x="714" d="M106 1v1509h100v-995l399 562h108l-283 -412l266 -665h-99l-242 606l-149 -202v-403h-100z" />
<glyph unicode="l" horiz-adv-x="345" d="M125 0v1509h99v-1509h-99z" />
<glyph unicode="m" horiz-adv-x="1160" d="M106 0v1077h94v-113q52 62 117 97t136 35q135 0 168 -144q52 69 120.5 106.5t142.5 37.5q77 0 127.5 -55.5t50.5 -188.5v-852h-96v854q0 98 -30 135t-84 37q-113 0 -223 -127q3 -22 3 -47v-852h-96v854q0 98 -30 135t-85 37t-112.5 -33.5t-108.5 -91.5v-901h-94z" />
<glyph unicode="n" horiz-adv-x="728" d="M106 0v1077h99v-115q113 133 255 133q78 0 124 -57t46 -179v-859h-99v848q0 94 -29 131.5t-84 37.5q-53 0 -108.5 -32t-104.5 -87v-898h-99z" />
<glyph unicode="o" horiz-adv-x="713" d="M86 393v291q0 213 58.5 312t212.5 99q79 0 132 -25.5t83.5 -80t43 -127t12.5 -178.5v-291q0 -214 -58.5 -312t-213 -98t-212.5 98t-58 312zM185 389q0 -58 1.5 -97t7.5 -80.5t18 -67t30.5 -47t47 -31t67 -9.5t67 9.5t47.5 31t30.5 47t17.5 67t8 80.5t2 97v299 q0 70 -3 115t-13 90t-28 70.5t-50 41t-78.5 15.5t-78 -15.5t-50 -41t-28.5 -70.5t-12.5 -90t-2.5 -115v-299z" />
<glyph unicode="p" horiz-adv-x="745" d="M106 -355v1432h100v-91q84 109 206 109q73 0 121.5 -30.5t74.5 -92t36.5 -138t10.5 -184.5v-207q0 -236 -56 -348t-196 -112q-111 0 -197 106v-444h-100zM206 157q82 -97 185 -97q98 0 132 87t34 293v211q0 203 -32.5 284.5t-132.5 81.5q-95 0 -186 -100v-760z" />
<glyph unicode="q" horiz-adv-x="738" d="M90 442v192q0 241 53.5 351t195.5 110q115 -1 196 -101v83h99v-1432h-99v438q-83 -100 -192 -100q-138 0 -195.5 106t-57.5 353zM189 434q0 -204 35 -289t134 -85q95 0 177 92v771q-90 94 -181 94q-99 0 -132 -80t-33 -279v-224z" />
<glyph unicode="r" horiz-adv-x="527" d="M120 0v1077h98v-145q46 75 117 115.5t138 40.5q1 0 9 -0.5t9 -0.5v-102q-16 5 -40 5q-151 0 -233 -139v-851h-98z" />
<glyph unicode="s" horiz-adv-x="664" d="M63 290l84 25q19 -258 207 -258q80 0 125.5 45t45.5 127q0 123 -157 256l-125 106q-83 69 -119.5 131t-36.5 140q0 110 66 171.5t179 61.5q117 0 178 -75t66 -208l-74 -22q-7 230 -165 230q-72 0 -115.5 -37.5t-43.5 -105.5q0 -63 22.5 -107t87.5 -99l129 -114 q46 -40 73 -66.5t59 -68.5t47.5 -89t16.5 -103q0 -116 -71 -181.5t-193 -65.5q-125 0 -199.5 82t-86.5 225z" />
<glyph unicode="t" horiz-adv-x="489" d="M30 1012v65h141v344h98v-344h183v-65h-183v-787q0 -92 18.5 -125.5t76.5 -33.5q28 0 79 10v-75q-46 -13 -101 -13q-44 0 -75 12t-50 30.5t-29.5 49t-13.5 61t-3 72.5v799h-141z" />
<glyph unicode="u" horiz-adv-x="735" d="M96 218v859h100v-848q0 -93 28.5 -131t84 -38t113.5 35t109 94v888h98v-1077h-98v126q-54 -67 -122.5 -105t-142.5 -38q-78 0 -124 56.5t-46 178.5z" />
<glyph unicode="v" horiz-adv-x="665" d="M35 1077h101l202 -951l196 951h96l-236 -1077h-111z" />
<glyph unicode="w" horiz-adv-x="1055" d="M61 1077h87l150 -964l184 964h97l188 -960l140 960h88l-172 -1077h-103l-188 945l-181 -945h-112z" />
<glyph unicode="x" horiz-adv-x="697" d="M37 0l263 561l-246 516h102l201 -427l199 427h102l-255 -526l259 -551h-93l-220 459l-214 -459h-98z" />
<glyph unicode="y" horiz-adv-x="697" d="M45 1077h97l213 -983l204 983h99l-263 -1165q-22 -96 -88.5 -138t-196.5 -42h-41v80q95 0 147 15.5t69 41t17 68.5q0 15 -1 23q-3 28 -31 149q-53 217 -225 968z" />
<glyph unicode="z" horiz-adv-x="606" d="M60 0v72l389 929h-348v76h450v-64l-386 -937h378v-76h-483z" />
<glyph unicode="{" horiz-adv-x="432" d="M69 586v86q67 0 87.5 51.5t20.5 208.5v216q0 58 0.5 91.5t2.5 74.5t4.5 62t9 47t14 37t20.5 26t28 20t37.5 10.5t47 6t58.5 0.5v-74q-91 0 -107.5 -42t-16.5 -259v-245q0 -140 -22 -198t-79 -76q57 -18 79 -76.5t22 -197.5v-257q0 -216 16.5 -258t107.5 -42v-76 q-34 0 -58.5 1t-47 6.5t-37.5 10.5t-28 19.5t-20.5 26t-14 37.5t-9 47t-4.5 62t-2.5 74.5t-0.5 91.5v228q0 156 -20.5 208t-87.5 52z" />
<glyph unicode="|" horiz-adv-x="380" d="M144 -263v1772h93v-1772h-93z" />
<glyph unicode="}" horiz-adv-x="443" d="M44 -202q92 0 108 42t16 258v257q0 139 22 197.5t79 76.5q-57 18 -79 76t-22 198v245q0 217 -16 259t-108 42v74q34 0 58.5 -0.5t47 -6t37.5 -10.5t28 -20t20.5 -26t14 -37t9 -47t4.5 -62t2.5 -74.5t0.5 -91.5v-216q0 -157 20.5 -208.5t87.5 -51.5v-86q-67 0 -87.5 -52 t-20.5 -208v-228q0 -58 -0.5 -91.5t-2.5 -74.5t-4.5 -62t-9 -47t-14 -37.5t-20.5 -26t-28 -19.5t-37.5 -10.5t-47 -6.5t-58.5 -1v76z" />
<glyph unicode="~" horiz-adv-x="712" d="M76 781q92 106 165 106q37 0 125.5 -50t114.5 -50q25 0 47.5 13.5t72.5 53.5l36 -46q-97 -97 -157 -97q-38 0 -127.5 51t-117.5 51q-43 0 -123 -78z" />
<glyph unicode="&#xad;" horiz-adv-x="527" d="M72 594v82h385v-82h-385z" />
<glyph unicode="&#x400;" horiz-adv-x="731" d="M138 0v1509h523v-81h-421v-605h345v-80h-345v-663h425v-80h-527zM226 1998h100l102 -361h-52z" />
<glyph unicode="&#x401;" horiz-adv-x="731" d="M138 0v1509h523v-81h-421v-605h345v-80h-345v-663h425v-80h-527zM201 1637v140h104v-140h-104zM499 1637v140h103v-140h-103z" />
<glyph unicode="&#x402;" horiz-adv-x="902" d="M-49 1428v81h668v-81h-291v-614q33 35 91 56t121 21q52 0 100 -16t88.5 -48.5t64.5 -89t24 -131.5v-263q0 -176 -84 -259.5t-255 -83.5h-18v78q142 0 200 65.5t58 201.5v264q0 99 -54.5 152t-140.5 53q-106 0 -195 -68v-746h-100v1428h-277z" />
<glyph unicode="&#x403;" horiz-adv-x="687" d="M139 0v1509h513v-81h-411v-1428h-102zM369 1637l121 361h100l-169 -361h-52z" />
<glyph unicode="&#x404;" horiz-adv-x="899" d="M107 435v640q0 82 10.5 147.5t36 123.5t67 96.5t105.5 61t150 22.5q96 0 164 -29.5t106.5 -87.5t56 -133t17.5 -175v-58h-97v59q0 173 -53.5 257t-193.5 84q-80 0 -134 -25t-82 -75t-39 -110.5t-11 -145.5v-252h389v-76h-389v-340q0 -70 7.5 -123t25.5 -98t48 -73.5 t76.5 -44.5t108.5 -16q74 0 123.5 23.5t76 71t37 106t10.5 141.5v76h97v-60q0 -81 -9.5 -145t-33.5 -121t-62.5 -94.5t-99 -59.5t-139.5 -22q-87 0 -152.5 23.5t-106 63t-66 99.5t-35 124t-9.5 145z" />
<glyph unicode="&#x405;" horiz-adv-x="842" d="M77 372l90 28q8 -64 19 -111.5t32 -91.5t50.5 -72t73.5 -44t101 -16q241 0 241 243q0 92 -46.5 168.5t-149.5 178.5l-276 275q-131 131 -131 287q0 147 89.5 227.5t240.5 81.5h3q161 0 248.5 -87t100.5 -291l-86 -21q-15 164 -71.5 240.5t-182.5 76.5h-9 q-110 -2 -175.5 -56t-65.5 -164q0 -59 25.5 -113t85.5 -115l272 -269q105 -104 164.5 -203.5t59.5 -210.5q0 -164 -91.5 -248t-246.5 -84q-332 0 -365 391z" />
<glyph unicode="&#x406;" horiz-adv-x="384" d="M142 0v1509h101v-1509h-101z" />
<glyph unicode="&#x407;" horiz-adv-x="384" d="M-8 1637v140h104v-140h-104zM142 0v1509h101v-1509h-101zM289 1637v140h104v-140h-104z" />
<glyph unicode="&#x408;" horiz-adv-x="494" d="M15 -5q58 0 95 4t65 17.5t42 30.5t23 53t11 74.5t2 105.5v1229h102v-1241q0 -66 -4 -110.5t-14.5 -87.5t-30 -69t-51.5 -46.5t-78 -29.5t-110 -9h-52v79z" />
<glyph unicode="&#x409;" horiz-adv-x="1508" d="M40 -5v81h9q136 0 172.5 101.5t66.5 471.5l65 860h541v-636h160q206 0 305 -110.5t99 -334.5q0 -98 -22 -174t-68.5 -134t-124.5 -89t-186 -31h-266v1431h-343l-63 -782q-12 -140 -20 -216.5t-23 -163.5t-35 -128.5t-52.5 -80.5t-77.5 -52t-109 -13h-5h-23zM894 83h166 q160 0 227.5 85.5t67.5 261.5q0 177 -68.5 268.5t-227.5 91.5h-165v-707z" />
<glyph unicode="&#x40a;" horiz-adv-x="1395" d="M139 1v1509h102v-643h442v643h102v-637h160q207 0 305.5 -110.5t98.5 -334.5q0 -98 -22 -174t-68 -134t-124 -89t-186 -31l-266 1v789h-442v-789h-102zM785 83h167q160 0 227.5 85.5t67.5 261.5q0 177 -68.5 268.5t-228.5 91.5h-165v-707z" />
<glyph unicode="&#x40b;" horiz-adv-x="817" d="M-105 1428v81h710v-81h-307v-615q35 31 92 55t125 24q38 0 72.5 -9.5t64.5 -30.5t48 -60t18 -92v-700h-99v691q0 137 -126 137q-103 0 -195 -84v-744h-101v1428h-302z" />
<glyph unicode="&#x40c;" horiz-adv-x="873" d="M138 0v1509h102v-707h126l330 707h105l-346 -732l403 -777h-103l-389 742h-126v-742h-102zM472 1637l120 361h101l-169 -361h-52z" />
<glyph unicode="&#x40d;" horiz-adv-x="968" d="M138 0v1509h91v-1286l517 1286h84v-1509h-91v1286l-515 -1286h-86zM308 1998h100l102 -361h-52z" />
<glyph unicode="&#x40e;" horiz-adv-x="842" d="M62 1509h100l172 -697l115 -490l102 493l151 694h102l-301 -1314q-36 -173 -57 -225q-33 -82 -97 -113q-65 -30 -202 -30h-33l2 80h26q34 0 60 1.5t48.5 7t39 10.5t30.5 17t23 22.5t17.5 31t13.5 37.5t10 47.5t7.5 55.5t7.5 66zM215 1844h68q3 -75 43 -109t103.5 -34 t104.5 34t47 109h69q-5 -103 -64 -155t-156 -52t-154.5 52t-60.5 155z" />
<glyph unicode="&#x40f;" horiz-adv-x="952" d="M139 0v1509h102v-1432h471v1432h102v-1509h-273l-10 -250h-79l-10 250h-303z" />
<glyph unicode="&#x410;" horiz-adv-x="872" d="M60 0l317 1509h116l320 -1509h-102l-79 417h-391l-81 -417h-100zM256 492h362l-182 894z" />
<glyph unicode="&#x411;" horiz-adv-x="875" d="M138 0v1509h581v-78h-479v-558h166q206 0 305 -110.5t99 -334.5q0 -200 -95.5 -314t-304.5 -114h-272zM240 83h172q160 0 227.5 85.5t67.5 261.5q0 177 -68 268.5t-228 91.5h-171v-707z" />
<glyph unicode="&#x412;" d="M139 0v1509h311q81 0 143 -19.5t101 -52.5t63 -81.5t33.5 -102.5t9.5 -120q0 -51 -8 -97t-26 -93.5t-55 -82t-89 -46.5q63 -19 107 -60.5t65 -97t30 -108t9 -108.5q0 -62 -5 -112t-18 -102.5t-37 -91t-60.5 -70t-91 -48t-125.5 -16.5h-357zM241 80h242q144 0 197 83.5 t53 275.5q0 328 -236 328h-256v-687zM241 847h254q61 0 103.5 22.5t65 63.5t32 89t9.5 111q0 55 -6 95.5t-23.5 80.5t-48 64.5t-80.5 39.5t-119 15h-187v-581z" />
<glyph unicode="&#x413;" horiz-adv-x="687" d="M139 0v1509h513v-81h-411v-1428h-102z" />
<glyph unicode="&#x414;" horiz-adv-x="1051" d="M16 79h54q62 39 86 65q58 65 92 243q37 190 69 609l39 513h530v-1430h111v-329h-82l-10 250h-796l-11 -250h-82v329zM185 79h599v1352h-334l-37 -455q-13 -166 -26.5 -293.5t-26 -215.5t-29 -152t-30 -100.5t-34 -63t-35.5 -38.5t-40 -29q-5 -3 -7 -5z" />
<glyph unicode="&#x415;" horiz-adv-x="731" d="M138 0v1509h523v-81h-421v-605h345v-80h-345v-663h425v-80h-527z" />
<glyph unicode="&#x416;" horiz-adv-x="1144" d="M39 0l389 788l-353 721h98l339 -715h14v715h93v-715h13l340 715h97l-352 -721l388 -788h-100l-367 768h-19v-768h-93v768h-20l-366 -768h-101z" />
<glyph unicode="&#x417;" horiz-adv-x="857" d="M115 1150v25q0 351 340 351q167 0 252.5 -103t85.5 -269q0 -163 -61 -256.5t-159 -113.5q39 -9 75 -33t70 -67t54.5 -115.5t20.5 -165.5q0 -197 -85 -310t-265 -113q-317 0 -317 355v28h93q0 -3 0.5 -17.5t0.5 -16.5q1 -133 55 -201t168 -68q56 0 98 16t77 53.5t54 105.5 t19 165q0 341 -262 347h-95v76h94q141 1 202 81.5t61 251.5q0 291 -233 291q-124 0 -186 -63t-64 -206v-28h-93z" />
<glyph unicode="&#x418;" horiz-adv-x="968" d="M138 0v1509h91v-1286l517 1286h84v-1509h-91v1286l-515 -1286h-86z" />
<glyph unicode="&#x419;" horiz-adv-x="968" d="M138 0v1509h91v-1286l517 1286h84v-1509h-91v1286l-515 -1286h-86zM267 1844h68q3 -75 43 -109t103.5 -34t104.5 34t46 109h70q-5 -103 -64 -155t-157 -52q-96 0 -153.5 52t-60.5 155z" />
<glyph unicode="&#x41a;" horiz-adv-x="873" d="M138 0v1509h102v-707h126l330 707h105l-346 -732l403 -777h-103l-389 742h-126v-742h-102z" />
<glyph unicode="&#x41b;" horiz-adv-x="1038" d="M46 -5v81q86 6 117 21q49 26 74 118q29 106 61 480q7 80 20 252l42 562h540v-1509h-102v1431h-343l-37 -485q-41 -481 -59 -606q-30 -196 -83 -265q-46 -60 -145 -73q-35 -6 -85 -7z" />
<glyph unicode="&#x41c;" horiz-adv-x="1177" d="M121 0l45 1509h94l326 -1343l328 1343h100l43 -1509h-87l-35 1243l-311 -1243h-73l-307 1239l-36 -1239h-87z" />
<glyph unicode="&#x41d;" horiz-adv-x="1009" d="M138 0v1509h102v-680h529v680h102v-1509h-102v752h-529v-752h-102z" />
<glyph unicode="&#x41e;" horiz-adv-x="960" d="M107 430v658q0 80 11 144.5t38 120.5t69.5 93t106.5 58.5t148 21.5q105 0 179 -32t115.5 -92t60.5 -137t19 -177v-661q0 -81 -10.5 -145.5t-36.5 -122.5t-68 -96t-107 -60.5t-151.5 -22.5t-152 22.5t-107 61t-67.5 96.5t-36.5 123.5t-10.5 146.5zM210 407q0 -82 12 -141 t41.5 -106.5t83.5 -71.5t133.5 -24t133.5 24t83 71.5t41.5 106.5t12.5 141v696q0 82 -12 140.5t-41.5 105.5t-83.5 70.5t-133.5 23.5t-133.5 -23.5t-83.5 -70.5t-41.5 -105.5t-12 -140.5v-696z" />
<glyph unicode="&#x41f;" horiz-adv-x="1015" d="M139 0v1509h737v-1509h-102v1431h-533v-1431h-102z" />
<glyph unicode="&#x420;" horiz-adv-x="889" d="M139 0v1509h354q99 0 169.5 -29t109 -83t55.5 -121.5t17 -156.5q0 -62 -10 -118t-35 -108t-64 -90t-100 -60t-139 -22h-255v-721h-102zM241 800h232q139 0 203.5 73t64.5 246q0 180 -59.5 246t-206.5 66h-234v-631z" />
<glyph unicode="&#x421;" d="M107 435v640q0 82 10.5 147.5t36 123.5t67 96.5t105.5 61t150 22.5q96 0 164 -29.5t106.5 -87.5t56 -133t17.5 -175v-76h-97v77q0 173 -53.5 257t-193.5 84q-80 0 -134 -25t-82 -75t-39 -110.5t-11 -145.5v-668q0 -70 7.5 -123t25.5 -98t48 -73.5t76.5 -44.5t108.5 -16 q74 0 123.5 23.5t76 71t37 106t10.5 141.5v91h97v-75q0 -81 -9.5 -145t-33.5 -121t-62.5 -94.5t-99 -59.5t-139.5 -22q-87 0 -152.5 23.5t-106 63t-66 99.5t-35 124t-9.5 145z" />
<glyph unicode="&#x422;" horiz-adv-x="708" d="M-13 1428v81h735v-81h-313v-1428h-102v1428h-320z" />
<glyph unicode="&#x423;" horiz-adv-x="842" d="M62 1509h100l172 -697l115 -490l102 493l151 694h102l-301 -1314q-36 -173 -57 -225q-33 -82 -97 -113q-65 -30 -202 -30h-33l2 80h26q34 0 60 1.5t48.5 7t39 10.5t30.5 17t23 22.5t17.5 31t13.5 37.5t10 47.5t7.5 55.5t7.5 66z" />
<glyph unicode="&#x424;" horiz-adv-x="1105" d="M107 541v441q0 196 78.5 296.5t233.5 100.5h8q43 0 73 -3v269h102v-268q47 3 86 3h8q150 0 226 -101t76 -297v-441q0 -377 -288 -377h-15q-51 0 -93 4v-272h-102v271q-51 -3 -90 -3h-13q-290 0 -290 377zM205 541q0 -159 48 -233.5t164 -74.5h8q42 0 75 4v1070 q-30 3 -68 3h-5q-120 0 -171 -81.5t-51 -246.5v-441zM602 237q32 -4 79 -4h8q115 0 164 74.5t49 233.5v441q0 165 -51.5 246.5t-171.5 81.5h-6q-26 0 -71 -3v-1070z" />
<glyph unicode="&#x425;" horiz-adv-x="842" d="M27 0l333 784l-330 726h93l297 -645l288 645h101l-346 -743l352 -767h-98l-310 679l-278 -679h-102z" />
<glyph unicode="&#x426;" horiz-adv-x="1034" d="M138 0v1509h102v-1432h537v1432h102v-1432h105v-327h-82l-12 250h-752z" />
<glyph unicode="&#x427;" horiz-adv-x="940" d="M103 993v516h96v-515q0 -60 15 -105t40.5 -72.5t64.5 -44.5t80 -23t93 -6q110 0 208 33v733h102v-1509h-102v701q-120 -33 -222 -33q-375 0 -375 325z" />
<glyph unicode="&#x428;" horiz-adv-x="1307" d="M139 0v1509h102v-1432h369v1432h102v-1432h355v1432h101v-1509h-1029z" />
<glyph unicode="&#x429;" horiz-adv-x="1326" d="M138 0v1509h102v-1432h369v1432h102v-1432h356v1432h102v-1432h107v-327h-82l-12 250h-1044z" />
<glyph unicode="&#x42a;" horiz-adv-x="1009" d="M12 1429v80h379v-636h169q206 0 305 -110.5t99 -334.5q0 -200 -95.5 -314t-305.5 -114h-275v1429h-276zM391 83h175q160 0 227.5 85.5t67.5 261.5q0 177 -68 268.5t-228 91.5h-174v-707z" />
<glyph unicode="&#x42b;" horiz-adv-x="1247" d="M138 0v1509h102v-636h170q206 0 305 -110.5t99 -334.5q0 -200 -96 -314t-305 -114h-275zM240 83h176q160 0 227.5 85.5t67.5 261.5q0 177 -68.5 268.5t-227.5 91.5h-175v-707zM1007 0v1509h102v-1509h-102z" />
<glyph unicode="&#x42c;" horiz-adv-x="859" d="M139 0v1509h102v-636h169q207 0 305.5 -110.5t98.5 -334.5q0 -98 -22 -174t-68 -134t-124.5 -89t-185.5 -31h-275zM241 83h176q160 0 227.5 85.5t67.5 261.5q0 177 -68.5 268.5t-228.5 91.5h-174v-707z" />
<glyph unicode="&#x42d;" horiz-adv-x="928" d="M108 410v64h97v-64q0 -173 53.5 -257.5t193.5 -84.5q80 0 134 25t82 75t39 110.5t11 146.5v318h-357v72h357v278q0 179 -58 267t-208 88q-73 0 -123 -24t-76 -71t-37 -106t-11 -141v-77h-97v60q0 102 16 178.5t54 138.5t106.5 94t167.5 32q88 0 153.5 -24t106 -63.5 t65 -99t34 -123.5t9.5 -145v-639q0 -82 -10 -147.5t-36 -124.5t-67 -97.5t-105 -61t-150 -22.5q-96 0 -164 30t-106.5 87.5t-56 132.5t-17.5 175z" />
<glyph unicode="&#x42e;" horiz-adv-x="1244" d="M139 0v1509h99v-706h159v283q0 102 18.5 179t60.5 137t115 92t176 32t176 -32.5t115 -93t61 -138t19 -177.5v-657q0 -81 -10.5 -146t-37 -122.5t-68 -96t-106 -61t-149.5 -22.5q-105 0 -179.5 33t-115 96t-58 141t-17.5 180v290h-159v-720h-99zM492 407q0 -81 13 -140.5 t43.5 -107t86 -71.5t135.5 -24q78 0 132 24t84 71.5t43 107t13 140.5v696q0 81 -13 140t-43.5 106t-85.5 70.5t-133 23.5q-152 0 -213.5 -87t-61.5 -253v-696z" />
<glyph unicode="&#x42f;" horiz-adv-x="981" d="M44 0l299 687q-109 41 -162 151t-53 268q0 85 19.5 154t61.5 126.5t120 90t186 32.5h329v-1509h-103v657h-232q-33 0 -75 5l-277 -662h-113zM228 1105q0 -188 68.5 -278.5t224.5 -90.5h220v694h-223q-143 0 -216.5 -77.5t-73.5 -247.5z" />
<glyph unicode="&#x430;" horiz-adv-x="707" d="M71 218q0 72 16 120t67.5 97t131.5 94.5t225 112.5v78q0 118 -15.5 182.5t-46.5 90.5t-88 26q-35 0 -63 -8t-54.5 -28.5t-40.5 -63t-14 -103.5v-30l-96 2q0 26 1 29q3 147 71 212.5t200 65.5q135 0 190 -85t55 -280v-543q0 -153 4 -187h-84q-14 122 -17 143 q-25 -70 -86 -115t-139 -45q-98 0 -157.5 65.5t-59.5 169.5zM169 232q0 -88 41.5 -127.5t100.5 -39.5q65 0 116 42.5t84 108.5v355q-183 -95 -232 -129q-76 -53 -97 -116q-13 -38 -13 -94z" />
<glyph unicode="&#x431;" horiz-adv-x="818" d="M114 330v683q0 115 11 195.5t36.5 128t56 74t79.5 42t95 23.5t115 25.5t128 41.5l15 -90q-55 -22 -114.5 -35.5t-98.5 -19t-79 -16.5t-64.5 -29.5t-44 -54.5t-28 -96.5t-8.5 -150.5v-139q35 36 112 67t145 32q88 0 144 -40t85.5 -134.5t29.5 -251.5v-179 q0 -122 -20.5 -205.5t-62.5 -129.5t-96 -66t-130 -22h-9q-58 0 -110 20.5t-94.5 61.5t-67.5 109t-25 156zM213 329q0 -137 58.5 -204.5t148.5 -67.5h5q54 2 90 17t62.5 51t39.5 100t13 161v217q0 191 -39 263.5t-136 72.5q-56 0 -131.5 -32.5t-110.5 -68.5v-509z" />
<glyph unicode="&#x432;" horiz-adv-x="698" d="M106 0v1077h237q74 0 127.5 -21.5t82.5 -60t42.5 -83.5t13.5 -98q0 -76 -32.5 -140t-101.5 -92q157 -50 157 -270q0 -74 -11 -127.5t-40.5 -97t-84.5 -65.5t-136 -22h-254zM203 76h147q103 0 144 61.5t41 177.5q0 121 -45.5 171t-130.5 50h-156v-460zM203 611h160 q68 0 111 54t43 145q0 89 -45 138t-134 49h-135v-386z" />
<glyph unicode="&#x433;" horiz-adv-x="519" d="M106 0v1077h375v-78h-276v-999h-99z" />
<glyph unicode="&#x434;" horiz-adv-x="848" d="M26 69q62 34 99.5 101.5t63.5 207t41 380.5l26 319h426v-1005h96v-322h-79l-8 250h-578l-9 -250h-78v319zM137 72h448v930h-247l-25 -262q-22 -341 -56.5 -477t-119.5 -191z" />
<glyph unicode="&#x435;" horiz-adv-x="707" d="M86 399v287q0 99 12.5 172t35 118t58.5 72t76 37t94 10q149 0 207 -97t58 -332l-2 -103h-440v-172q0 -190 39.5 -262t134.5 -72q28 0 48.5 4t45 17t40 36t26 66.5t10.5 103.5v80h97v-71q0 -149 -61 -229.5t-205 -80.5q-53 0 -94 11t-76 39.5t-57.5 75t-34.5 119 t-12 171.5zM185 622h344v84q0 65 -3 107.5t-13 85.5t-27.5 67t-48.5 39t-75 15q-64 0 -100.5 -25t-56.5 -94.5t-20 -196.5v-82z" />
<glyph unicode="&#x436;" horiz-adv-x="943" d="M7 0l324 552l-308 525h94l296 -516h18v516h84v-516h17l294 516h94l-308 -525l324 -552h-93l-310 537h-18v-537h-84v537h-19l-310 -537h-95z" />
<glyph unicode="&#x437;" horiz-adv-x="667" d="M73 812q0 141 69.5 212t197.5 71q86 0 145 -40t85.5 -102.5t26.5 -140.5q0 -2 -0.5 -6.5t-0.5 -6.5q-2 -102 -52.5 -162.5t-130.5 -74.5q86 -26 135.5 -89t51.5 -185v-10q0 -138 -69.5 -217t-192.5 -79h-4q-127 1 -192.5 79t-65.5 225h91q0 -229 168 -231h2q83 0 127 58 t44 167v17q-5 225 -231 225v77q122 0 172.5 49t55.5 146q0 3 0.5 8.5t0.5 9.5q0 89 -43.5 148.5t-123.5 59.5q-83 0 -129.5 -52.5t-46.5 -155.5h-90z" />
<glyph unicode="&#x438;" horiz-adv-x="758" d="M106 0v1077h85v-893l380 893h83v-1077h-85v885l-380 -885h-83z" />
<glyph unicode="&#x439;" horiz-adv-x="758" d="M106 0v1077h85v-893l380 893h83v-1077h-85v885l-380 -885h-83zM162 1412h68q3 -74 43 -108.5t103.5 -34.5t104.5 34.5t47 108.5h69q-5 -103 -64 -154.5t-156 -51.5t-154 51.5t-61 154.5z" />
<glyph unicode="&#x43a;" horiz-adv-x="693" d="M106 0v1077h99v-485h90l269 485h104l-284 -519l295 -558h-104l-280 526h-90v-526h-99z" />
<glyph unicode="&#x43b;" horiz-adv-x="824" d="M14 -9v75q55 2 88 21t59 76.5t41.5 156t29.5 267.5l39 490h448v-1077h-99v1000h-261l-35 -413q-12 -148 -26.5 -245t-35.5 -169t-53 -110t-74 -55t-104 -17h-17z" />
<glyph unicode="&#x43c;" horiz-adv-x="885" d="M97 0l9 1077h76l260 -788l259 788h80l8 -1077h-86l-5 825l-240 -711h-32l-239 709l-3 -823h-87z" />
<glyph unicode="&#x43d;" horiz-adv-x="794" d="M106 0v1077h99v-479h385v479h99v-1077h-99v522h-385v-522h-99z" />
<glyph unicode="&#x43e;" horiz-adv-x="713" d="M86 393v291q0 213 58.5 312t212.5 99q79 0 132 -25.5t83.5 -80t43 -127t12.5 -178.5v-291q0 -214 -58.5 -312t-213 -98t-212.5 98t-58 312zM185 389q0 -58 1.5 -97t7.5 -80.5t18 -67t30.5 -47t47 -31t67 -9.5t67 9.5t47.5 31t30.5 47t17.5 67t8 80.5t2 97v299 q0 70 -3 115t-13 90t-28 70.5t-50 41t-78.5 15.5t-78 -15.5t-50 -41t-28.5 -70.5t-12.5 -90t-2.5 -115v-299z" />
<glyph unicode="&#x43f;" horiz-adv-x="757" d="M106 0v1077h546v-1077h-99v998h-348v-998h-99z" />
<glyph unicode="&#x440;" horiz-adv-x="745" d="M106 -355v1432h100v-91q84 109 206 109q73 0 121.5 -30.5t74.5 -92t36.5 -138t10.5 -184.5v-207q0 -236 -56 -348t-196 -112q-111 0 -197 106v-444h-100zM206 157q82 -97 185 -97q98 0 132 87t34 293v211q0 203 -32.5 284.5t-132.5 81.5q-95 0 -186 -100v-760z" />
<glyph unicode="&#x441;" horiz-adv-x="698" d="M86 405v253q0 242 58.5 339.5t213.5 97.5q65 0 113 -18t76 -47.5t45 -76t23 -94.5t6 -113v-43h-93v42q0 159 -39 217t-130 58q-106 0 -140 -75t-34 -275v-280q0 -183 36 -258t138 -75q104 0 136.5 66.5t32.5 237.5v42h93v-40q0 -51 -2.5 -89t-9 -80t-18 -71.5t-31 -57.5 t-47 -45t-67 -27t-88.5 -10q-71 0 -121.5 22t-79.5 57.5t-45 93.5t-21 114t-5 135z" />
<glyph unicode="&#x442;" horiz-adv-x="611" d="M8 1001v76h595v-76h-244v-1001h-99v1001h-252z" />
<glyph unicode="&#x443;" horiz-adv-x="695" d="M55 1077h96l126 -569l84 -392l78 386l118 575h96l-255 -1128q-16 -66 -41.5 -108t-68.5 -65.5t-91 -33t-125 -14.5v84q127 1 180.5 45.5t53.5 124.5q0 41 -14 98z" />
<glyph unicode="&#x444;" horiz-adv-x="993" d="M86 462v194q0 114 20.5 191.5t61.5 118t91.5 57t120.5 16.5h70v470h91v-470h74q56 0 98 -9.5t80.5 -35t62.5 -68t38 -110.5t14 -160v-194q0 -70 -9 -126.5t-24 -96t-38 -68t-48.5 -45.5t-59 -27.5t-64 -13.5t-68.5 -3h-56v-437h-91v437h-52q-55 0 -96 7t-83.5 30.5 t-70 63.5t-45 111t-17.5 168zM174 460q0 -81 11.5 -139t30 -90.5t49.5 -50t60.5 -22.5t73.5 -5h51v818h-68q-43 0 -72 -5.5t-56.5 -23.5t-44 -51.5t-26 -89.5t-9.5 -136v-205zM541 153h52q45 0 74.5 5t61.5 22.5t50 50t30 90.5t12 139v205q0 80 -10 136t-26.5 89t-44.5 51 t-57.5 23.5t-71.5 5.5h-70v-817z" />
<glyph unicode="&#x445;" horiz-adv-x="697" d="M37 0l263 561l-246 516h102l201 -427l199 427h102l-255 -526l259 -551h-93l-220 459l-214 -459h-98z" />
<glyph unicode="&#x446;" horiz-adv-x="764" d="M106 0v1077h99v-1008h340v1008h99v-1008h94v-319h-75l-9 250h-548z" />
<glyph unicode="&#x447;" horiz-adv-x="701" d="M76 674v403h100v-405q0 -160 170 -160q69 0 148 22v543h99v-1077h-99v462q-105 -22 -166 -22q-116 0 -184 57t-68 177z" />
<glyph unicode="&#x448;" horiz-adv-x="1026" d="M106 0v1077h97v-1008h265v1008h97v-1008h259v1008h97v-1077h-815z" />
<glyph unicode="&#x449;" horiz-adv-x="1070" d="M106 0v1077h95v-1008h272v1008h96v-1008h265v1008h96v-1008h95v-319h-74l-11 250h-834z" />
<glyph unicode="&#x44a;" horiz-adv-x="822" d="M-2 1002v75h332v-433h87q83 0 146 -19t100 -49.5t59 -75.5t29.5 -88t7.5 -96q0 -51 -8 -92.5t-30.5 -84.5t-60 -72.5t-101 -48t-148.5 -18.5h-180v1002h-233zM330 67h81q64 0 110.5 14t73.5 35.5t43 55.5t21.5 67.5t5.5 77t-5 77.5t-21 69.5t-42 59t-73 39t-110 15.5h-84 v-510z" />
<glyph unicode="&#x44b;" horiz-adv-x="981" d="M106 0v1077h99v-433h86q84 0 146.5 -19.5t99 -50t59 -75t30 -87.5t7.5 -96q0 -51 -7.5 -92.5t-30.5 -84.5t-60 -72.5t-101 -48t-148 -18.5h-180zM205 67h81q78 0 130.5 19.5t78.5 56.5t35.5 77.5t9.5 96.5q0 43 -5 77t-21 69.5t-42.5 59t-73.5 39t-110 15.5h-83v-510z M777 0v1077h99v-1077h-99z" />
<glyph unicode="&#x44c;" horiz-adv-x="695" d="M106 0v1077h99v-433h86q84 0 146.5 -19.5t99 -50t59 -75t30 -87.5t7.5 -96q0 -51 -7.5 -92.5t-30.5 -84.5t-60 -72.5t-101 -48t-148 -18.5h-180zM205 67h81q78 0 130.5 19.5t78.5 56.5t35.5 77.5t9.5 96.5q0 43 -5 77t-21 69.5t-42.5 59t-73.5 39t-110 15.5h-83v-510z " />
<glyph unicode="&#x44d;" horiz-adv-x="719" d="M99 304v21h94v-20q0 -140 41.5 -194t134.5 -54q43 0 73 13.5t49 37t28.5 68.5t13 97.5t3.5 134.5v103h-300v66h300v96q0 194 -33 263.5t-136 69.5t-138.5 -61.5t-35.5 -201.5v-26h-94v24q0 60 5 105t22 91.5t45.5 76.5t78.5 48.5t119 18.5q51 0 91 -11t67.5 -29t47 -49 t31.5 -63t18.5 -79t8 -89.5t1.5 -101.5v-239q0 -244 -57 -340.5t-213 -96.5q-66 0 -114 16t-76.5 43t-45.5 70t-23 87.5t-6 104.5z" />
<glyph unicode="&#x44e;" horiz-adv-x="956" d="M106 0v1077h91v-512h151v119q0 84 7 146t25 114t47.5 84t74.5 49.5t107 17.5q77 0 128.5 -25.5t80.5 -80t41 -127t12 -178.5v-291q0 -215 -56.5 -312.5t-205.5 -97.5q-78 0 -129 25.5t-80 79.5t-40.5 126.5t-11.5 178.5v104h-151v-497h-91zM440 389q0 -70 2.5 -115 t12.5 -90.5t27.5 -70.5t49 -40.5t77.5 -15.5q38 0 66 9.5t46.5 31t30 47.5t17.5 67t8 80.5t2 96.5v299q0 69 -2.5 114.5t-13 90.5t-28.5 70.5t-49.5 41t-77 15.5t-77 -15.5t-49 -41t-27.5 -70.5t-12.5 -90t-2.5 -115v-299z" />
<glyph unicode="&#x44f;" horiz-adv-x="717" d="M35 0l219 472q-45 18 -76.5 51t-48.5 74.5t-25 83t-8 85.5q0 51 6.5 91t28 83.5t57 71.5t98 46.5t146.5 18.5h180v-1077h-99v442q-127 0 -169 8l-201 -450h-108zM189 765q0 -132 60.5 -193.5t199.5 -61.5h64v501h-83q-62 0 -107 -13.5t-70.5 -35t-40.5 -55t-19 -66 t-4 -76.5z" />
<glyph unicode="&#x450;" horiz-adv-x="707" d="M86 399v287q0 99 12.5 172t35 118t58.5 72t76 37t94 10q149 0 207 -97t58 -332l-2 -103h-440v-172q0 -190 39.5 -262t134.5 -72q28 0 48.5 4t45 17t40 36t26 66.5t10.5 103.5v80h97v-71q0 -149 -61 -229.5t-205 -80.5q-53 0 -94 11t-76 39.5t-57.5 75t-34.5 119 t-12 171.5zM180 1567h100l102 -361h-52zM185 622h344v84q0 65 -3 107.5t-13 85.5t-27.5 67t-48.5 39t-75 15q-64 0 -100.5 -25t-56.5 -94.5t-20 -196.5v-82z" />
<glyph unicode="&#x451;" horiz-adv-x="707" d="M86 399v287q0 99 12.5 172t35 118t58.5 72t76 37t94 10q149 0 207 -97t58 -332l-2 -103h-440v-172q0 -190 39.5 -262t134.5 -72q28 0 48.5 4t45 17t40 36t26 66.5t10.5 103.5v80h97v-71q0 -149 -61 -229.5t-205 -80.5q-53 0 -94 11t-76 39.5t-57.5 75t-34.5 119 t-12 171.5zM156 1206v140h103v-140h-103zM185 622h344v84q0 65 -3 107.5t-13 85.5t-27.5 67t-48.5 39t-75 15q-64 0 -100.5 -25t-56.5 -94.5t-20 -196.5v-82zM453 1206v140h104v-140h-104z" />
<glyph unicode="&#x452;" horiz-adv-x="757" d="M-7 1166v63h132v280h99v-280h232v-63h-232v-344q97 82 237 82q86 0 141.5 -48t55.5 -148v-521q0 -58 -1 -95t-5 -81.5t-12 -72t-21 -57t-32.5 -47t-47.5 -32t-64.5 -21t-84.5 -6.5h-44v73h33q37 0 63.5 6t46 16t32 31.5t20.5 43t12 61t5 75.5t1 95v523q0 76 -32.5 107.5 t-89.5 31.5q-59 0 -116 -22t-97 -60v-756h-99v1166h-132z" />
<glyph unicode="&#x453;" horiz-adv-x="519" d="M106 0v1077h375v-78h-276v-999h-99zM268 1206l120 361h100l-169 -361h-51z" />
<glyph unicode="&#x454;" horiz-adv-x="700" d="M86 405v253q0 242 58.5 339.5t213.5 97.5q65 0 113 -17.5t76.5 -45.5t45.5 -73t23 -93t6 -112v-27h-94v26q0 108 -18.5 166t-53.5 79.5t-97 21.5q-106 0 -140 -75.5t-34 -274.5v-88h284v-71h-284v-121q0 -183 36.5 -258t137.5 -75q44 0 73.5 11t48.5 31.5t29.5 59t14 83 t3.5 112.5v25h94v-22q0 -73 -5 -123t-20.5 -101t-43.5 -81.5t-76.5 -49.5t-117.5 -19q-51 0 -91.5 11t-69 31t-49 50.5t-32.5 64t-19.5 79.5t-9.5 88t-2 98z" />
<glyph unicode="&#x455;" horiz-adv-x="664" d="M63 290l84 25q19 -258 207 -258q80 0 125.5 45t45.5 127q0 123 -157 256l-125 106q-83 69 -119.5 131t-36.5 140q0 110 66 171.5t179 61.5q117 0 178 -75t66 -208l-74 -22q-7 230 -165 230q-72 0 -115.5 -37.5t-43.5 -105.5q0 -63 22.5 -107t87.5 -99l129 -114 q46 -40 73 -66.5t59 -68.5t47.5 -89t16.5 -103q0 -116 -71 -181.5t-193 -65.5q-125 0 -199.5 82t-86.5 225z" />
<glyph unicode="&#x456;" horiz-adv-x="431" d="M160 1212v165h120v-165h-120zM168 0v1077h100v-1077h-100z" />
<glyph unicode="&#x457;" horiz-adv-x="338" d="M-30 1206v140h104v-140h-104zM121 0v1077h99v-1077h-99zM268 1206v140h103v-140h-103z" />
<glyph unicode="&#x458;" horiz-adv-x="374" d="M-29 -206q7 -1 44 -1t63.5 10t40 23t21 37t9 42.5t1.5 48.5v1123h99v-1130q0 -124 -56.5 -179.5t-166.5 -55.5q-45 0 -55 3v79zM150 1218v172h100v-172h-100z" />
<glyph unicode="&#x459;" horiz-adv-x="1130" d="M7 -9v75q71 0 110.5 38t63.5 134t39 284l45 555h448v-490h64q82 0 140.5 -17t91.5 -42.5t51.5 -66.5t24 -80t5.5 -93q0 -51 -5.5 -88t-24.5 -77t-52.5 -64.5t-93.5 -41t-143 -17.5h-157v1000h-262l-42 -489q-8 -101 -20 -178.5t-26 -132.5t-34 -93.5t-40 -61t-49.5 -35 t-56.5 -16t-66 -3.5h-11zM713 67h59q51 0 89 7t62 22.5t39.5 33t23 45.5t9.5 52.5t2 61.5q0 46 -3 74t-15.5 61.5t-36 51.5t-66 31t-104.5 13h-59v-453z" />
<glyph unicode="&#x45a;" horiz-adv-x="1079" d="M106 0v1077h99v-487h334v487h99v-490h81q83 0 142.5 -17t92.5 -42.5t52 -66.5t24.5 -80t5.5 -93q0 -50 -5.5 -87.5t-25 -77.5t-53.5 -65t-94 -41.5t-144 -16.5h-175v517h-334v-517h-99zM638 67h79q51 0 89 7.5t62.5 23t40 32.5t22.5 45t9.5 52.5t2.5 61.5q0 46 -3.5 74 t-15.5 61t-36 51.5t-66.5 31t-104.5 13.5h-79v-453z" />
<glyph unicode="&#x45b;" horiz-adv-x="757" d="M-7 1166v63h132v280h99v-280h232v-63h-232v-344q97 82 237 82q86 0 141.5 -48t55.5 -148v-708h-99v699q0 76 -32.5 107.5t-90 31.5t-115.5 -22t-97 -60v-756h-99v1166h-132z" />
<glyph unicode="&#x45c;" horiz-adv-x="693" d="M106 0v1077h99v-485h90l269 485h104l-284 -519l295 -558h-104l-280 526h-90v-526h-99zM367 1206l120 361h100l-168 -361h-52z" />
<glyph unicode="&#x45d;" horiz-adv-x="758" d="M106 0v1077h85v-893l380 893h83v-1077h-85v885l-380 -885h-83zM204 1567h100l102 -361h-52z" />
<glyph unicode="&#x45e;" horiz-adv-x="695" d="M55 1077h96l126 -569l84 -392l78 386l118 575h96l-255 -1128q-16 -66 -41.5 -108t-68.5 -65.5t-91 -33t-125 -14.5v84q127 1 180.5 45.5t53.5 124.5q0 41 -14 98zM136 1412h69q2 -74 42.5 -108.5t104 -34.5t104.5 34.5t46 108.5h69q-4 -103 -63 -154.5t-157 -51.5 q-96 0 -153.5 51.5t-61.5 154.5z" />
<glyph unicode="&#x45f;" horiz-adv-x="751" d="M106 0v1077h99v-1002h342v1002h99v-1077h-223l-9 -250h-67l-11 250h-230z" />
<glyph unicode="&#x490;" horiz-adv-x="694" d="M138 0v1509h455v163h69v-241h-422v-1431h-102z" />
<glyph unicode="&#x491;" horiz-adv-x="537" d="M117 0v1077h314v136h62v-214h-277v-999h-99z" />
<glyph unicode="&#x4af;" horiz-adv-x="696" d="M45 1077h97l209 -883l208 883h99l-263 -1047v-312h-94v312z" />
<glyph unicode="&#x4b0;" horiz-adv-x="793" d="M4 1509h104l194 -491l102 -258l96 256l186 493h104l-328 -839h297v-75h-304v-595h-100v595h-305v75h298z" />
<glyph unicode="&#x4b1;" horiz-adv-x="698" d="M45 1077h97l209 -883l208 883h99l-255 -1016h196v-68h-204v-275h-94v275h-202v68h195z" />
<glyph unicode="&#x4e8;" horiz-adv-x="960" d="M107 430v658q0 80 11 144.5t38 120.5t69.5 93t106.5 58.5t148 21.5q105 0 179 -32t115.5 -92t60.5 -137t19 -177v-661q0 -81 -10.5 -145.5t-36.5 -122.5t-68 -96t-107 -60.5t-151.5 -22.5t-152 22.5t-107 61t-67.5 96.5t-36.5 123.5t-10.5 146.5zM210 407q0 -82 12 -141 t41.5 -106.5t83.5 -71.5t133.5 -24t133.5 24t83 71.5t41.5 106.5t12.5 141v324h-541v-324zM210 805h541v298q0 82 -12 140.5t-41.5 105.5t-83.5 70.5t-133.5 23.5t-133.5 -23.5t-83.5 -70.5t-41.5 -105.5t-12 -140.5v-298z" />
<glyph unicode="&#x4e9;" horiz-adv-x="713" d="M86 393v291q0 213 58.5 312t212.5 99q79 0 132 -25.5t83.5 -80t43 -127t12.5 -178.5v-291q0 -214 -58.5 -312t-213 -98t-212.5 98t-58 312zM185 389q0 -58 1.5 -97t7.5 -80.5t18 -67t30.5 -47t47 -31t67 -9.5t67 9.5t47.5 31t30.5 47t17.5 67t8 80.5t2 97v138h-344v-138z M185 596h344v92q0 70 -3 115t-13 90t-28 70.5t-50 41t-78.5 15.5t-78 -15.5t-50 -41t-28.5 -70.5t-12.5 -90t-2.5 -115v-92z" />
<glyph unicode="&#x2000;" horiz-adv-x="999" />
<glyph unicode="&#x2001;" horiz-adv-x="1998" />
<glyph unicode="&#x2002;" horiz-adv-x="999" />
<glyph unicode="&#x2003;" horiz-adv-x="1998" />
<glyph unicode="&#x2004;" horiz-adv-x="666" />
<glyph unicode="&#x2005;" horiz-adv-x="499" />
<glyph unicode="&#x2006;" horiz-adv-x="333" />
<glyph unicode="&#x2007;" horiz-adv-x="333" />
<glyph unicode="&#x2008;" horiz-adv-x="249" />
<glyph unicode="&#x2009;" horiz-adv-x="399" />
<glyph unicode="&#x200a;" horiz-adv-x="111" />
<glyph unicode="&#x2010;" horiz-adv-x="527" d="M72 594v82h385v-82h-385z" />
<glyph unicode="&#x2011;" horiz-adv-x="527" d="M72 594v82h385v-82h-385z" />
<glyph unicode="&#x2012;" horiz-adv-x="527" d="M72 594v82h385v-82h-385z" />
<glyph unicode="&#x2013;" horiz-adv-x="1166" d="M72 594v82h1024v-82h-1024z" />
<glyph unicode="&#x2014;" horiz-adv-x="2190" d="M72 594v82h2048v-82h-2048z" />
<glyph unicode="&#x202f;" horiz-adv-x="399" />
<glyph unicode="&#x205f;" horiz-adv-x="499" />
<glyph unicode="&#x25fc;" horiz-adv-x="1078" d="M0 0v1078h1078v-1078h-1078z" />
</font>
</defs>
</svg>
